<?xml version="1.0" encoding="UTF-8"?>
<!DOCTYPE svg PUBLIC "-//W3C//DTD SVG 1.1//EN" "http://www.w3.org/Graphics/SVG/1.1/DTD/svg11.dtd">
<!-- Creator: CorelDRAW 2020 (64 Bit) -->
<svg xmlns="http://www.w3.org/2000/svg" xml:space="preserve" width="134.682mm" height="40.8747mm" version="1.1" style="shape-rendering:geometricPrecision; text-rendering:geometricPrecision; image-rendering:optimizeQuality; fill-rule:evenodd; clip-rule:evenodd"
viewBox="0 0 14074.19 4271.39"
 xmlns:xlink="http://www.w3.org/1999/xlink"
 xmlns:xodm="http://www.corel.com/coreldraw/odm/2003">
 <defs>
  <style type="text/css">
   <![CDATA[
    .fil0 {fill:#2A3A63;fill-rule:nonzero}
   ]]>
  </style>
 </defs>
 <g id="Camada_x0020_1">
  <metadata id="CorelCorpID_0Corel-Layer"/>
  <path class="fil0" d="M1476.34 4271.39c796.01,0 1234.15,-481.59 1548.59,-1131.06 149.48,-313.7 -292.35,-503.68 -433.73,-194.4 -265.83,583.2 -602.35,848.3 -1114.86,848.3 -349.04,0 -565.53,-238.58 -565.53,-561.11 0,-296.03 123.71,-618.55 335.79,-848.3 256.25,-278.36 622.96,-428.57 1069.94,-428.57 128.13,0 230.48,-101.62 230.48,-225.32 0,-128.13 -102.36,-229.75 -230.48,-229.75 -128.86,0 -234.9,-30.92 -292.34,-83.94 -44.18,-48.6 -70.69,-119.29 -70.69,-212.81 0,-13.25 0,-30.92 4.42,-48.59 101.62,22.09 251.84,88.36 567,88.36 962.43,0 1130.33,-1183.35 273.92,-1240.79 -513.24,-35.34 -929.29,207.66 -1150.21,635.48 -717.22,-105.29 -1262.13,-20.62 -1512.49,248.9 -128.13,136.97 -167.9,309.28 -110.46,477.17 39.76,118.55 167.16,180.41 290.86,140.65 118.55,-39.76 180.41,-167.16 140.65,-290.86 252.58,-163.48 518.4,-203.24 1050.06,-132.55 -8.84,39.76 -8.84,83.94 -8.84,123.71 0,159.06 35.35,295.28 106.04,410.16 -318.85,114.88 -548.59,300.44 -695.13,463.92 -285.71,309.27 -453.6,733.42 -453.6,1153.15 0,600.87 402.06,1038.28 1020.6,1038.28zm1473.47 -3592.74c-123.71,185.56 -496.31,198.81 -850.5,79.52 133.28,-193.67 349.77,-352.72 597.93,-352.72 248.15,0 332.1,154.63 252.58,273.19zm2160.51 996.3c-101.63,-92.77 -259.94,-79.52 -343.89,22.09l-764.35 843.14 -379.96 -843.14c-57.44,-172.31 -322.54,-247.41 -419.73,-22.09l-622.97 1289.39c-159.05,335.05 269.51,520.61 437.4,185.56l366.71 -786.44 260.68 574.37 -839.47 922.67c-92.79,101.62 -83.94,260.67 17.67,353.46 44.18,39.76 106.04,57.43 167.9,57.43 66.27,0 132.54,-26.51 185.56,-83.94l689.24 -764.35 309.28 680.41c30.93,101.62 128.13,167.89 234.16,167.89 22.09,0 48.6,-4.42 79.53,-13.25 128.13,-39.77 198.82,-185.57 150.22,-313.7l-415.31 -913.84 909.42 -1007.34c92.77,-105.3 83.94,-255.52 -22.09,-348.31zm1204.7 1288.65c-296.03,636.22 -565.53,826.2 -808.53,826.2 -256.25,0 -296.03,-220.91 -207.66,-410.89l543.44 -1206.18 256.26 0c128.13,0 229.74,-106.04 229.74,-234.16 0,-132.55 -101.62,-234.16 -229.74,-234.16l-44.18 0 185.56 -415.31c110.46,-273.92 -296.02,-481.59 -419.73,-194.4l-278.34 609.71 -300.44 0c-133.28,0 -234.9,101.62 -234.9,234.16 0,128.13 101.63,234.16 234.9,234.16l83.94 0 -469.07 1016.2c-243,543.44 39.76,1082.46 601.61,1082.46 410.89,0 941.08,-318.11 1294.54,-1122.22 123.71,-278.36 -309.28,-459.49 -437.4,-185.57zm1236.37 1307.79c410.89,0 954.33,-357.88 1312.2,-1161.99 123.72,-278.34 -309.28,-459.49 -437.4,-185.56 -296.02,636.22 -583.2,865.97 -826.2,865.97 -256.25,0 -300.44,-247.42 -212.07,-415.31l459.49 -967.58 123.71 -269.51c35.35,-75.11 13.26,-145.8 -66.27,-176.73l-490.42 -206.92c-22.09,-8.1 -30.93,-21.35 -17.67,-56.7 110.46,-268.77 -313.7,-414.57 -428.57,-145.8l-653.9 1412.35c-159.05,335.79 269.51,521.35 437.4,185.57l446.24 -998.52c8.83,-13.25 17.67,-17.67 35.34,-8.83l163.48 70.69c17.67,8.83 22.09,22.09 13.25,48.59l-459.49 927.83c-243,543.44 39.76,1082.46 600.88,1082.46zm3839.42 -1308.52c-296.02,636.96 -565.53,826.94 -808.52,826.94 -256.26,0 -300.45,-225.33 -212.08,-415.31l600.88 -1316.62c110.46,-273.19 -291.61,-475.69 -415.31,-189.25l-128.13 273.19c-75.11,-158.32 -185.57,-282.03 -331.37,-361.56 -238.58,-131.82 -547.86,-109.72 -835.05,48.6 -530.18,290.86 -941.08,997.77 -879.22,1634 30.92,326.22 185.56,594.99 424.14,717.96 145.8,75.1 313.7,97.19 499.26,70.68 119.3,-17.67 229.75,-61.85 340.21,-122.96 101.62,-55.97 194.4,-122.24 282.77,-201.77 106.04,207.65 322.53,344.62 605.29,344.62 410.89,0 936.66,-318.11 1294.53,-1122.22 123.72,-279.09 -309.28,-460.24 -437.4,-186.3zm-1966.1 764.34c-159.06,88.36 -291.61,106.05 -397.64,44.18 -97.21,-48.59 -163.48,-163.47 -181.15,-335.78 -44.18,-428.56 243,-963.17 636.22,-1183.34 70.69,-39.76 136.97,-70.69 189.98,-75.11 75.11,0 150.22,0 207.66,26.51 97.19,44.18 163.47,163.47 181.14,348.3 39.77,428.57 -256.25,967.59 -636.21,1175.24zm4188.46 -811.47c-234.16,468.33 -388.8,649.47 -552.27,684.82 35.34,-110.46 57.43,-229.74 61.85,-353.45 13.25,-719.44 -326.22,-1139.17 -370.4,-1368.91 -4.41,-35.34 -4.41,-75.11 17.68,-124.45 153.9,-318.11 -256.26,-525.77 -436.67,-212.07 -97.19,167.89 -446.23,712.07 -773.18,1224.58 -97.21,-8.83 -203.24,30.93 -278.36,136.23 -92.77,136.97 -123.71,300.45 -101.62,468.34 -30.93,35.34 -66.27,79.52 -114.88,132.55 -189.98,207.65 88.36,480.84 287.19,312.96 176.73,260.67 450.65,455.07 737.84,455.07 260.67,0 480.85,-79.52 648.74,-216.49 61.85,22.09 127.4,35.34 198.08,35.34 410.89,0 786.44,-282.77 1113.39,-988.94 128.13,-278.34 -300.44,-458.75 -437.4,-185.56zm-1942.53 565.53l715.75 -1161.25c26.5,-44.18 66.27,-53.02 92.04,-8.84 119.29,203.24 189.98,415.31 216.49,613.39 -110.46,8.84 -229.74,83.94 -304.12,243 -92.77,167.89 -79.52,388.8 13.26,573.63 -83.94,57.44 -189.98,88.36 -309.28,88.36 -225.33,0 -393.22,-233.43 -424.14,-348.3z"/>
 </g>
</svg>
