<?xml version="1.0" encoding="UTF-8"?>
<!DOCTYPE svg PUBLIC "-//W3C//DTD SVG 1.1//EN" "http://www.w3.org/Graphics/SVG/1.1/DTD/svg11.dtd">
<!-- Creator: CorelDRAW 2020 (64 Bit) -->
<svg xmlns="http://www.w3.org/2000/svg" xml:space="preserve" width="17.397mm" height="17.397mm" version="1.1" style="shape-rendering:geometricPrecision; text-rendering:geometricPrecision; image-rendering:optimizeQuality; fill-rule:evenodd; clip-rule:evenodd"
viewBox="0 0 232.6 232.6"
 xmlns:xlink="http://www.w3.org/1999/xlink"
 xmlns:xodm="http://www.corel.com/coreldraw/odm/2003">
 <defs>
  <style type="text/css">
   <![CDATA[
    .fil0 {fill:#24D366}
    .fil1 {fill:white}
   ]]>
  </style>
 </defs>
 <g id="Camada_x0020_1">
  <metadata id="CorelCorpID_0Corel-Layer"/>
  <g id="_1966963864544">
   <circle class="fil0" cx="116.3" cy="116.3" r="116.3"/>
   <g>
    <g>
     <path class="fil1" d="M164.36 67.96c-12.75,-12.77 -29.71,-19.8 -47.78,-19.81 -37.23,0 -67.53,30.3 -67.54,67.54 -0.01,11.9 3.1,23.52 9.02,33.77l-9.58 35 35.81 -9.39c9.87,5.38 20.97,8.22 32.28,8.22l0.03 0c0,0 -0,0 0,0 37.22,0 67.53,-30.3 67.54,-67.54 0.01,-18.05 -7.01,-35.02 -19.76,-47.78zm-47.78 103.92l0 0 -0.02 0c-10.07,-0 -19.95,-2.71 -28.57,-7.83l-2.05 -1.22 -21.25 5.57 5.67 -20.72 -1.33 -2.12c-5.62,-8.94 -8.59,-19.27 -8.58,-29.88 0.01,-30.95 25.2,-56.13 56.16,-56.13 14.99,0 29.09,5.85 39.69,16.46 10.6,10.61 16.43,24.72 16.43,39.72 -0.01,30.95 -25.2,56.14 -56.14,56.14zm30.79 -42.05l0 0c-1.69,-0.84 -9.98,-4.93 -11.53,-5.49 -1.55,-0.56 -2.67,-0.84 -3.8,0.84 -1.13,1.69 -4.36,5.49 -5.34,6.62 -0.98,1.13 -1.97,1.27 -3.66,0.42 -1.69,-0.84 -7.12,-2.63 -13.57,-8.38 -5.02,-4.48 -8.4,-10 -9.39,-11.69 -0.98,-1.69 -0.1,-2.6 0.74,-3.44 0.76,-0.76 1.69,-1.97 2.53,-2.96 0.84,-0.99 1.12,-1.69 1.69,-2.81 0.56,-1.13 0.28,-2.11 -0.14,-2.96 -0.42,-0.84 -3.8,-9.15 -5.2,-12.53 -1.37,-3.29 -2.76,-2.85 -3.8,-2.9 -0.98,-0.05 -2.11,-0.06 -3.23,-0.06 -1.13,0 -2.95,0.42 -4.5,2.11 -1.55,1.69 -5.91,5.77 -5.91,14.08 0,8.31 6.05,16.33 6.89,17.46 0.84,1.13 11.9,18.17 28.83,25.48 4.03,1.74 7.17,2.78 9.62,3.56 4.04,1.28 7.72,1.1 10.63,0.67 3.24,-0.48 9.98,-4.08 11.39,-8.02 1.41,-3.94 1.41,-7.32 0.98,-8.03 -0.42,-0.7 -1.55,-1.13 -3.23,-1.97z"/>
    </g>
   </g>
  </g>
 </g>
</svg>
