<?xml version="1.0" encoding="UTF-8"?>
<!DOCTYPE svg PUBLIC "-//W3C//DTD SVG 1.1//EN" "http://www.w3.org/Graphics/SVG/1.1/DTD/svg11.dtd">
<!-- Creator: CorelDRAW 2020 (64 Bit) -->
<svg xmlns="http://www.w3.org/2000/svg" xml:space="preserve" width="25.108mm" height="25.108mm" version="1.1" style="shape-rendering:geometricPrecision; text-rendering:geometricPrecision; image-rendering:optimizeQuality; fill-rule:evenodd; clip-rule:evenodd"
viewBox="0 0 226.51 226.51"
 xmlns:xlink="http://www.w3.org/1999/xlink"
 xmlns:xodm="http://www.corel.com/coreldraw/odm/2003">
 <defs>
  <style type="text/css">
   <![CDATA[
    .fil0 {fill:#FEFEFE}
    .fil1 {fill:#48629D}
   ]]>
  </style>
 </defs>
 <g id="Camada_x0020_1">
  <metadata id="CorelCorpID_0Corel-Layer"/>
  <circle class="fil0" cx="113.25" cy="113.25" r="113.25"/>
  <g id="_1965234691360">
   <path class="fil1" d="M79.25 129.61c0,-5.87 0.36,-9.58 4.34,-14.29 1.21,-1.43 2.59,-2.44 4.17,-3.35 7.01,-4.07 14.78,-1.43 19.28,4.89 1.41,1.97 2.54,4.76 6.21,4.76 3.5,0 4.67,-2.52 6.07,-4.56 2.24,-3.26 7.07,-7.05 11.58,-7.05 9.6,0 16.35,8.05 16.35,16.35 0,7.13 -1.01,10.81 -4.59,16.99 -3.77,6.52 -11.83,13.98 -18.11,18.51 -1.4,1.01 -10.21,7 -11.31,7 -1.62,0 -13.59,-8.49 -16.43,-11.03 -0.97,-0.87 -1.5,-1.16 -2.45,-2.12 -0.45,-0.45 -0.68,-0.71 -1.14,-1.14 -6.26,-5.85 -13.97,-15.78 -13.97,-24.93zm-11.44 -3.6c0,9.58 1.03,13.57 5.99,22.46 1.52,2.72 3.01,4.68 4.8,6.97l11.95 11.91c4.82,3.76 18.54,13.92 22.7,13.92 1.85,0 3.08,-0.82 4.31,-1.57l7.35 -4.42c2.93,-1.73 7.97,-5.46 10.67,-7.64l12.18 -12.01c5.05,-6.43 10.93,-16.28 10.93,-25.36 0,-6.23 0.05,-9.17 -2.52,-15.14 -1.36,-3.16 -3.31,-5.91 -5.57,-8.16 -8.33,-8.29 -19.26,-11.11 -29.84,-5.81 -4.68,2.35 -4.18,3 -7.52,5.24 -5.18,-3.47 -8.17,-7.85 -18.64,-7.85 -14.88,0 -26.81,13.83 -26.81,27.46z"/>
   <path class="fil1" d="M138.43 77.63c-3.4,0 -5.77,-0.35 -8.43,-3.01 -6.89,-6.89 -1.05,-17.91 6.47,-17.91 3.49,0 5.9,0.39 8.59,3.18 6.57,6.81 0.94,17.75 -6.63,17.75zm-22.89 -11.12c0,9.34 4.74,16.68 12.31,20.39 21.75,10.64 42.53,-17.8 25.21,-35.02 -14.62,-14.54 -37.52,-3.17 -37.52,14.63z"/>
   <path class="fil1" d="M78.6 67.49c0,-3.5 0.95,-5.44 2.86,-7.6 6.1,-6.91 18.07,-1.79 18.07,6.3 0,3.4 -0.35,5.77 -3.01,8.43 -6.58,6.58 -17.91,1.77 -17.91,-7.12zm-11.44 -0.65c0,6.9 2.59,11.93 6.29,15.61 13.99,13.91 37.52,4.65 37.52,-15.94 0,-11.22 -10.07,-21.25 -21.25,-21.25 -12.7,0 -22.56,9.58 -22.56,21.58z"/>
   <path class="fil1" d="M41 99.53c0,-15.98 22.52,-10.4 16.78,3.05 -2.11,4.94 -10.17,7.27 -14.78,1.81 -1.01,-1.2 -2,-3.11 -2,-4.86zm-11.44 -1.96c0,8.75 3.47,15.02 10.92,19.15 5.43,3.01 12.97,2.79 18.61,-0.08 2.45,-1.24 6.01,-4.23 7.47,-6.58 0.64,-1.02 1.28,-1.99 1.76,-3.14 6.26,-14.98 -5.45,-28.64 -18.18,-28.64 -11.19,0 -20.6,9.13 -20.6,19.29z"/>
   <path class="fil1" d="M167.85 99.2c0,-12.28 17.65,-13.1 17.65,0.33 0,1.41 -0.49,2.37 -0.97,3.28 -3.63,7.02 -13.2,5.45 -15.72,-0.01 -0.38,-0.83 -0.97,-2.4 -0.97,-3.61zm29.1 -1.71l0 2.82c-0.25,3.56 -1.43,7.04 -3.59,10.01l-4.72 4.76c-4.69,3.55 -8.61,3.73 -13.93,3.73 -8.34,0 -18.31,-8.96 -18.31,-20.27 0,-3.03 0.82,-6.15 1.85,-8.29 0.96,-1.99 2.67,-4.59 4.11,-6.03 1.33,-1.33 4.16,-3.28 6.05,-4.09 7.96,-3.43 16.62,-1.86 22.42,3.93 3.72,3.72 5.79,8.54 6.12,13.41z"/>
  </g>
 </g>
</svg>
