<?xml version="1.0" encoding="UTF-8"?>
<!DOCTYPE svg PUBLIC "-//W3C//DTD SVG 1.1//EN" "http://www.w3.org/Graphics/SVG/1.1/DTD/svg11.dtd">
<!-- Creator: CorelDRAW 2020 (64 Bit) -->
<svg xmlns="http://www.w3.org/2000/svg" xml:space="preserve" width="25.108mm" height="25.108mm" version="1.1" style="shape-rendering:geometricPrecision; text-rendering:geometricPrecision; image-rendering:optimizeQuality; fill-rule:evenodd; clip-rule:evenodd"
viewBox="0 0 156.76 156.76"
 xmlns:xlink="http://www.w3.org/1999/xlink"
 xmlns:xodm="http://www.corel.com/coreldraw/odm/2003">
 <defs>
  <style type="text/css">
   <![CDATA[
    .fil0 {fill:#FEFEFE}
    .fil1 {fill:#48629D}
   ]]>
  </style>
 </defs>
 <g id="Camada_x0020_1">
  <metadata id="CorelCorpID_0Corel-Layer"/>
  <circle class="fil0" cx="78.38" cy="78.38" r="78.38"/>
  <path class="fil1" d="M46.44 95.95c-1.4,-1.92 -3.21,-3.55 -4.61,-5.54 -11.46,-16.34 -13.96,-39.41 -0.11,-55.17 23.72,-26.98 68.16,-19.59 79.25,15.38 1.13,3.55 1.43,7 1.52,10.7 0.07,2.55 -0.01,5.57 0.68,8.02 0.28,0.87 2.46,3.94 3.04,4.88 2.04,3.28 3.79,6.69 5.07,10.34 3.89,11.13 2.38,21.89 -3.78,31.9 -1.94,3.14 -4.44,5.61 -7.82,7.15 -3.81,1.74 -8.13,2.03 -12.27,2.01 -4.38,-0.02 -8.75,-0.36 -13.13,-0.42 -0.44,2.31 -0.64,4.73 -1.14,7.04 -0.4,1.9 -1.66,6.38 -4.34,5.94 -2.7,-0.45 -2.23,-5.14 -2.07,-7.03l0.54 -6.08c-3.78,-0.4 -7.88,-1.41 -10.92,-3.54 -1.95,-1.36 -4.37,-4.08 -2.95,-6.61 0.3,-0.53 0.73,-0.94 1.26,-1.23 1.08,-0.59 2.31,-1.07 3.5,-0.47 1.15,0.58 1.57,1.94 2.54,2.81 1.74,1.56 4.9,2.06 7.12,2.25 2.39,0.21 4.96,0.25 7.5,0.2 -1.18,-0.6 -2.37,-1.15 -3.49,-1.67 -3.91,-1.81 -7.93,-3.44 -11.95,-4.97 -4.71,-1.79 -9.51,-3.47 -14.35,-4.9 -2.32,-0.68 -6.63,-1.98 -9.02,-1.98l-2.08 0.01 1.43 -6.71 1.35 -0c4.88,-0 11.96,2.71 16.59,4.38 3.86,1.39 8.47,3.21 12.61,4.07 0.44,-1.29 0.84,-3.02 1.08,-3.99 0.73,-3 1.37,-6.03 1.96,-9.06 0.57,-2.89 1.1,-5.79 1.57,-8.7 0.2,-1.23 0.43,-2.58 0.58,-3.89l-46.68 -1.08 -2.05 -6.61 2.22 -0.05c8.76,-0.2 17.73,0.36 26.5,0.64 5.61,0.18 11.25,0.32 16.86,0.18 4.27,-0.11 9.04,-0.33 13.21,-1.29 2.58,-0.59 5.19,-1.07 7.78,-1.64 1.8,-0.4 4.69,-0.99 6.71,-1.77 -0.02,-0.18 -0.04,-0.36 -0.06,-0.55 -0.39,-3.92 -0.08,-7.83 -0.6,-11.77 -0.71,-5.39 -2.79,-9.98 -5.83,-14.46 -2.22,-3.26 -5.17,-6.38 -8.24,-8.86 -16.87,-13.6 -43.68,-8.89 -56.24,8.23 -9.02,12.28 -7.62,26.84 -0.56,39.7 1.42,2.59 2.99,4.84 4.88,7.09 1.19,1.4 2.6,2.88 3.32,4.59 0.58,1.36 0.68,2.76 0.53,4.22l-0.01 0.07 -4.6 31.06c-0.55,3.93 0.2,8.37 -5.03,9.11l-1.16 0.16 -0.55 -1.03c-2.29,-4.27 3.7,-32.86 4.47,-41.06zm79.41 -6.57c-0.99,-3.67 -2.82,-8.67 -5.13,-10.48l-0.43 -0.33 -0.15 -0.52c-0.17,-0.59 -0.46,-1.34 -1.02,-1.67 -1.36,-0.81 -5.34,0.43 -6.75,0.83 -4.65,1.32 -8.99,2.56 -13.74,3.33l-5.17 26.02c-0.1,0.49 -0.65,2.79 -0.59,3.39 0.47,0.3 2.41,0.76 2.85,0.87l0.31 0.08 0.26 0.19c2.91,2.09 13.87,7.73 17.16,7.42 5.71,-0.54 9.18,-6.41 10.77,-11.6 -2.11,-0.11 -4.22,-0.17 -6.32,-0.32 -1.67,-0.12 -3.64,-0.33 -4.84,-1.65 -0.79,-0.88 -1.05,-1.99 -1.12,-3.14l-0.07 -1.08 0.96 -0.5c3.8,-2 8.94,-0.42 13.24,-0.17l0.48 -3.39 -12.47 -2.55 -0.04 -0.01c-1.18,-0.29 -3.14,-0.45 -3.9,-1.45 -0.63,-0.84 -0.46,-2.15 -0.56,-3.17l-0.1 -1.08 0.95 -0.53c4,-2.24 10.49,0.75 15.4,1.54z"/>
 </g>
</svg>
