<?xml version="1.0" encoding="UTF-8"?>
<!DOCTYPE svg PUBLIC "-//W3C//DTD SVG 1.1//EN" "http://www.w3.org/Graphics/SVG/1.1/DTD/svg11.dtd">
<!-- Creator: CorelDRAW 2020 (64 Bit) -->
<svg xmlns="http://www.w3.org/2000/svg" xml:space="preserve" width="61.015mm" height="61.1963mm" version="1.1" style="shape-rendering:geometricPrecision; text-rendering:geometricPrecision; image-rendering:optimizeQuality; fill-rule:evenodd; clip-rule:evenodd"
viewBox="0 0 6101.5 6119.63"
 xmlns:xlink="http://www.w3.org/1999/xlink"
 xmlns:xodm="http://www.corel.com/coreldraw/odm/2003">
 <defs>
  <style type="text/css">
   <![CDATA[
    .fil0 {fill:#2A3A63}
    .fil3 {fill:#FFA400}
    .fil2 {fill:#2A3A63;fill-rule:nonzero}
    .fil1 {fill:url(#id0)}
   ]]>
  </style>
  <linearGradient id="id0" gradientUnits="objectBoundingBox" x1="34.0738%" y1="99.6027%" x2="65.9262%" y2="0.397229%">
   <stop offset="0" style="stop-opacity:1; stop-color:#00BFBA"/>
   <stop offset="1" style="stop-opacity:1; stop-color:#1678BF"/>
  </linearGradient>
 </defs>
 <g id="Camada_x0020_1">
  <metadata id="CorelCorpID_0Corel-Layer"/>
  <g id="_1601081492848">
   <g>
    <path class="fil0" d="M1889.69 735.1c-133.76,270.92 -221.42,568.24 -252.94,882.39 -25.81,328.6 6.01,682.39 73.62,1067.56l538.05 235.59c-101.71,-303.3 -150,-631.07 -157.26,-972.66 -14.99,-705.52 191.98,-1145.42 588.37,-1379.9l17.22 -10.01c62.25,-35.44 131.55,-60.3 205.34,-76.5l0 -0.01 0.08 -0.01c119.63,-26.26 251.09,-29.73 383.68,-18.59 214.73,13.99 438.57,66.42 659.39,153.06 189.5,69.55 368.67,160.61 534.49,270.23 181.25,119.83 346.52,261.87 491.99,422.2 -475.51,-2.06 -909.28,115.73 -1275.69,343.63 -456.22,283.77 -803.6,734.48 -992.93,1333.07 115.11,22.81 228.16,60.65 341.79,114.51 27.04,12.82 53.44,26.09 79.23,39.81 154.7,-502.63 437.75,-876.92 808.31,-1107.41 379.41,-235.99 855.27,-325.27 1383.94,-251.3 375.91,636.2 494.02,1460.77 83.9,2380.26 140.37,39.74 276.12,97.06 408.58,166.02l9.69 4.64c181.49,-390.19 282.96,-825.11 282.96,-1283.78 0,-647.05 -201.67,-1247.04 -545.54,-1740.5 -572.38,-821.38 -1499.94,-1307.4 -2502.33,-1307.4 -201.82,0 -399.07,19.64 -589.92,57.07 -983.24,192.85 -1796.99,858.55 -2194.86,1750.55 156.93,52.57 272.5,138.02 367.43,237.11 95.73,-182 199.13,-350.19 310.99,-503.06 51.56,-71.92 106.68,-141.06 165.12,-207.19 225.92,-259.68 483.21,-462.79 777.3,-599.38z"/>
    <path class="fil1" d="M2250.53 5026.62c-626.93,-297.17 -994.63,152.35 -1487.72,-98.31 -100.96,-51.33 -178.57,-101.24 -239.9,-150.22 172.17,254.1 381.64,480.84 620.55,672.38 321.47,-30.85 589.65,-165.05 911.12,-1.63 448.96,228.2 435.8,428.48 585.24,643.44 134.2,18.04 271.17,27.35 410.32,27.35 119.76,0 237.89,-6.9 354.04,-20.31 -26.91,-9.12 -54.57,-19.79 -83.09,-32.21 -440.48,-191.82 -415.92,-730.19 -1070.56,-1040.49zm-849.46 -1695.94c-747.7,-380.03 -213.65,-682.63 -1283.53,-1104.54 -41.43,144.42 -72.5,293.25 -92.32,445.6 35.09,10.76 71.48,24.17 109.34,40.66 440.48,191.82 415.93,730.2 1070.57,1040.5 626.92,297.16 994.62,-152.33 1487.71,98.3 714.17,363.02 259,655.36 1149.05,1048.51 567.01,250.21 907.96,-146.7 1430.01,80.6 36.75,15.99 70.34,34.45 101.27,54.96l6.07 3.99c101.36,-119.71 193.65,-247.31 275.83,-381.78l-9.23 -4.41c-856.72,-448.63 -1077.27,81.68 -1686.49,-183.59 -440.48,-191.82 -415.92,-730.19 -1070.56,-1040.49 -626.93,-297.17 -994.63,152.35 -1487.72,-98.31zm-322.94 805.63c-694.41,-352.95 -283.28,-639.09 -1078.13,-1016.07 3.33,202.6 26.41,400.37 67.41,591.53 213.07,247 319.72,612.09 814.77,846.76 626.93,297.17 994.63,-152.32 1487.72,98.31 714.17,363.02 259,655.36 1149.05,1048.5 420.34,185.5 716.42,15.36 1054.16,7.51 180.37,-104.12 349.08,-226.18 503.73,-363.73 -660.32,-238.05 -894.1,163.88 -1440.43,-74.01 -440.48,-191.81 -415.93,-730.19 -1070.57,-1040.49 -626.92,-297.17 -994.62,152.35 -1487.71,-98.31z"/>
    <path class="fil2" d="M480.86 1419.54c379.32,147.93 560.36,410.33 731.87,658.93 186.37,270.16 357.35,517.96 930.01,419.51l105.87 423.95c-869.84,164.97 -1120.7,-198.64 -1394.66,-595.74 -140.62,-203.82 -289.54,-419.69 -585.42,-518.69 -2.63,-0.89 203.33,-391.47 212.33,-387.96z"/>
    <circle class="fil3" cx="4465.32" cy="3387.2" r="581.5"/>
   </g>
   <g>
    <path class="fil1" d="M2250.53 5026.62c-626.93,-297.17 -994.63,152.35 -1487.72,-98.31 -100.96,-51.33 -178.57,-101.24 -239.9,-150.22 172.17,254.1 381.64,480.84 620.55,672.38 321.47,-30.85 589.65,-165.05 911.12,-1.63 448.96,228.2 435.8,428.48 585.24,643.44 134.2,18.04 271.17,27.35 410.32,27.35 119.76,0 237.89,-6.9 354.04,-20.31 -26.91,-9.12 -54.57,-19.79 -83.09,-32.21 -440.48,-191.82 -415.92,-730.19 -1070.56,-1040.49zm-849.46 -1695.94c-747.7,-380.03 -213.65,-682.63 -1283.53,-1104.54 -41.43,144.42 -72.5,293.25 -92.32,445.6 35.09,10.76 71.48,24.17 109.34,40.66 440.48,191.82 415.93,730.2 1070.57,1040.5 626.92,297.16 994.62,-152.33 1487.71,98.3 714.17,363.02 259,655.36 1149.05,1048.51 567.01,250.21 907.96,-146.7 1430.01,80.6 36.75,15.99 70.34,34.45 101.27,54.96l6.07 3.99c101.36,-119.71 193.65,-247.31 275.83,-381.78l-9.23 -4.41c-856.72,-448.63 -1077.27,81.68 -1686.49,-183.59 -440.48,-191.82 -415.92,-730.19 -1070.56,-1040.49 -626.93,-297.17 -994.63,152.35 -1487.72,-98.31zm-322.94 805.63c-694.41,-352.95 -283.28,-639.09 -1078.13,-1016.07 3.33,202.6 26.41,400.37 67.41,591.53 213.07,247 319.72,612.09 814.77,846.76 626.93,297.17 994.63,-152.32 1487.72,98.31 714.17,363.02 259,655.36 1149.05,1048.5 420.34,185.5 716.42,15.36 1054.16,7.51 180.37,-104.12 349.08,-226.18 503.73,-363.73 -660.32,-238.05 -894.1,163.88 -1440.43,-74.01 -440.48,-191.81 -415.93,-730.19 -1070.57,-1040.49 -626.92,-297.17 -994.62,152.35 -1487.71,-98.31z"/>
    <circle class="fil3" cx="4465.32" cy="3387.2" r="581.5"/>
   </g>
  </g>
 </g>
</svg>
