<?xml version="1.0" encoding="UTF-8"?>
<!DOCTYPE svg PUBLIC "-//W3C//DTD SVG 1.1//EN" "http://www.w3.org/Graphics/SVG/1.1/DTD/svg11.dtd">
<!-- Creator: CorelDRAW 2020 (64 Bit) -->
<svg xmlns="http://www.w3.org/2000/svg" xml:space="preserve" width="55.6632mm" height="14.0581mm" version="1.1" style="shape-rendering:geometricPrecision; text-rendering:geometricPrecision; image-rendering:optimizeQuality; fill-rule:evenodd; clip-rule:evenodd"
viewBox="0 0 2651.88 669.75"
 xmlns:xlink="http://www.w3.org/1999/xlink"
 xmlns:xodm="http://www.corel.com/coreldraw/odm/2003">
 <defs>
  <style type="text/css">
   <![CDATA[
    .fil1 {fill:#29616A}
    .fil4 {fill:#61B370}
    .fil2 {fill:#96C1E6}
    .fil3 {fill:#E4793E}
    .fil0 {fill:#F8CA48}
    .fil7 {fill:#29616A;fill-rule:nonzero}
    .fil6 {fill:#61B370;fill-rule:nonzero}
    .fil5 {fill:#E4793E;fill-rule:nonzero}
   ]]>
  </style>
 </defs>
 <g id="Camada_x0020_1">
  <metadata id="CorelCorpID_0Corel-Layer"/>
  <g id="_1431090849248">
   <g>
    <path class="fil0" d="M284.42 184.75c86.22,0 159.65,54.7 187.52,131.28l-375.05 0c27.87,-76.58 101.31,-131.28 187.53,-131.28z"/>
    <path class="fil1" d="M483.39 363.3c-2.75,64.49 -55.89,115.92 -121.05,115.92 -65.17,0 -118.31,-51.43 -121.06,-115.92l242.11 0z"/>
    <path class="fil2" d="M189.12 363.3c2.65,88.97 72.33,161.08 160.28,167.56 -37.08,32.93 -85.88,52.93 -139.37,52.93 -116,0 -210.03,-94.03 -210.03,-210.03 0,-3.51 0.1,-6.99 0.26,-10.47l188.86 0z"/>
    <path class="fil3" d="M714.17 363.3l-178.62 0c-1.51,50.54 -24.65,95.65 -60.49,126.37 34.09,27.69 77.56,44.29 124.9,44.29 42.53,0 81.93,-13.39 114.22,-36.19l0 -134.47z"/>
    <g>
     <path class="fil4" d="M52.52 6.78c52.2,0 94.52,50.46 94.52,99.76 0,-47.54 37.98,-96.88 85.88,-99.6l0 120.05 -0.17 7.63c-83.07,17.02 -150.85,75.99 -180.23,153.82l0 -161.44 0 -120.21 0 0zm245.54 0c42.58,0.32 78.21,44.9 87.91,83.71 9.83,-39.02 46.06,-83.72 89.26,-83.72l2.63 0.04 0 125.42 63.02 0 0 -125.41c42.11,1.15 77.11,45.54 86.67,83.86 9.65,-37.48 44.44,-81.44 86.62,-83.74l0 125.29 0 189.05 -185.04 0c-14.18,-51.59 -44,-96.69 -84.05,-129.89 -39.65,-35.16 -90.76,-57.7 -147.02,-61.27l0 -123.33z"/>
    </g>
   </g>
   <path class="fil5" d="M966.1 111.91c-1.6,-1.87 -3.21,-3.47 -4.81,-5.07 -2.67,-2.13 -3.2,-5.87 -1.33,-8.81 2.13,-3.47 4,-7.47 5.34,-11.74 4.27,-13.61 2.4,-28.29 -5.34,-41.37 -8.54,-14.68 -23.75,-25.63 -40.57,-29.09 -22.42,-4.8 -44.31,-3.47 -65.39,-2.13 0,0 -6.14,0.27 -6.14,0.27 -46.97,2.93 -36.3,60.86 -36.56,92.62 0,0.53 0,1.07 0,1.6 0,0 0.8,83.01 0.8,83.01 0.53,56.86 113.17,37.1 140.93,20.82 15.48,-9.08 26.16,-25.62 29.09,-45.11 2.94,-20.29 -2.93,-40.84 -16.01,-54.99zm-77.14 -57.65c5.07,0 13.62,0 20.55,2.93 5.07,2.13 9.34,5.87 10.68,12.81 3.21,16.02 -25.89,16.82 -32.03,17.35 -6.67,0.53 -9.88,-3.74 -9.88,-13.08 0,-3.21 0,-6.41 0,-9.61 0,-9.34 4.81,-11.21 10.41,-11.21l0.27 0.8zm46.71 103.56c0,0.53 0,1.07 0,1.6 -0.53,4.54 -2.41,9.08 -6.14,11.74 -2.4,1.87 -5.34,2.67 -8.28,3.47 -10.68,2.67 -39.23,10.94 -41.91,-6.14 -1.33,-7.47 -0.8,-15.22 0,-22.95 0.27,-2.14 0.53,-4.54 1.6,-6.41 5.07,-8.54 31.23,-5.07 38.7,-3.2 5.87,1.6 11.48,5.07 14.42,10.41 1.87,3.47 2.4,7.74 2.13,11.74l-0.53 -0.27zm182.57 9.34c-3.74,0 -7.47,0.27 -11.21,0.27 -9.34,0.27 -18.69,0.27 -28.03,0.53 -2.13,0 -4.54,0 -6.67,-0.8 -5.07,-2.13 -4.54,-10.14 0.53,-11.74 1.33,-0.53 2.93,-0.53 4.54,-0.53 6.94,0.27 13.88,0 20.82,-0.27 14.41,-0.27 26.69,-12.02 29.36,-25.89 2.13,-10.94 -3.2,-21.35 -11.74,-27.76 -9.61,-6.94 -22.15,-7.47 -33.63,-5.6 -3.74,0.53 -7.47,1.33 -11.21,1.07 -12.28,-1.33 -13.34,-16.02 -5.87,-23.49 6.94,-6.94 16.82,-5.34 25.62,-5.07 11.48,0.53 22.96,1.33 34.44,2.4 37.9,3.21 37.63,-56.05 -0.27,-59.25 -31.5,-2.67 -62.99,-3.47 -94.76,-2.14 -25.89,1.07 -26.69,33.1 -28.82,52.05 -5.34,44.58 -2.41,89.42 -0.53,134.26 0.8,22.69 18.15,28.29 37.63,28.82 0,0 0,0 0,0 26.43,3.21 53.12,4.27 79.54,2.94 27.76,-1.61 41.11,-44.58 13.34,-57.12 -4.54,-1.87 -9.08,-2.4 -13.61,-2.4l0.53 -0.27zm240.76 18.15c-8.01,-37.1 -20.29,-72.87 -36.3,-107.3 -13.61,-29.36 -31.5,-70.73 -69.93,-70.2 -36.3,0.53 -54.72,41.64 -65.66,70.47 -13.61,35.77 -24.82,73.93 -30.96,111.84 -6.14,37.37 50.98,53.38 57.12,15.75 0.27,-1.61 0.53,-3.21 0.8,-4.81 0.8,-4 4.54,-10.41 8.81,-10.14 23.22,0.8 46.44,-1.33 69.66,0.53 3.47,2.67 7.21,5.61 10.68,8.28 12.28,41.11 63.26,21.89 55.78,-13.61l0 -0.8zm-80.08 -53.39c-2.4,10.41 -25.62,6.41 -32.56,4.54 -1.33,-0.27 -2.67,-0.8 -4,-1.33 -3.47,-1.6 -6.14,-4.27 -6.67,-8.54 -0.53,-3.74 0.53,-7.47 1.6,-11.21 2.4,-7.47 14.42,-43.24 25.36,-25.09 5.87,10.14 10.94,20.82 15.21,31.76 1.33,3.21 2.4,6.67 1.6,10.14l-0.53 -0.27zm292.54 27.23c-4.81,-22.15 -29.63,-28.29 -46.98,-16.02 -25.89,18.42 -61.12,46.45 -82.48,3.74 -9.08,-18.15 -9.88,-43.51 -2.13,-62.19 14.14,-34.17 54.18,-12.01 83.28,-4.01 14.68,4.01 31.23,-6.4 34.96,-21.09 16.55,-62.99 -96.09,-59.52 -129.45,-45.91 -56.06,22.95 -79.01,90.22 -57.12,144.94 27.23,68.07 108.9,87.82 169.49,49.91 16.01,-10.14 34.96,-29.63 30.43,-50.45l0 1.07zm206.33 30.7c1.07,-1.07 -0.27,-9.34 -0.27,-11.74 -0.27,-6.94 -0.53,-13.88 -0.8,-20.82 -0.27,-13.88 -0.53,-27.76 -0.81,-41.64 -0.8,-27.76 -1.6,-55.52 -2.4,-83.28 -1.07,-38.17 -60.32,-38.44 -59.26,-0.27 0.27,9.61 0.54,19.22 0.81,28.82 0.53,17.62 -12.82,32.57 -30.43,33.63 -0.27,0 -0.53,0 -0.8,0 -18.69,1.33 -34.7,-13.35 -34.97,-32.3 -0.27,-11.21 -0.27,-22.42 -0.27,-33.63 0,-38.17 -59.26,-38.17 -59.26,0 0,59.26 1.6,118.25 4.54,177.24 0.8,18.41 17.35,32.03 35.76,28.02 14.15,-2.93 21.89,-13.88 24.29,-27.49 1.6,-10.14 -2.41,-20.82 -3.47,-30.7 -1.6,-16.55 11.21,-24.56 26.43,-22.96 15.48,1.61 33.36,9.61 38.17,25.63 3.74,12.54 2.4,25.35 8,37.64 8.81,19.21 33.1,16.55 46.71,5.87 0.27,-0.27 0.53,-0.53 0.8,-0.8 8.28,-6.41 10.68,-21.09 6.94,-31.23l0.27 0zm320.3 -30.7c-4.81,-22.15 -29.63,-28.29 -46.98,-16.02 -25.89,18.42 -61.12,46.45 -82.48,3.74 -9.08,-18.15 -9.88,-43.51 -2.13,-62.19 14.14,-34.17 54.18,-12.01 83.28,-4.01 14.68,4.01 31.23,-6.4 34.96,-21.09 16.55,-62.99 -96.09,-59.52 -129.45,-45.91 -56.06,22.95 -79.01,90.22 -57.12,144.94 27.23,68.07 108.9,87.82 169.49,49.91 16.01,-10.14 34.96,-29.63 30.43,-50.45l0 1.07zm142 7.47l-42.71 -3.21c-2.67,-0.27 -6.14,-0.27 -10.14,-0.27 -8.81,0.27 -15.75,-7.2 -15.48,-16.01 0,0 0,0 0,0 0.27,-12.28 0.53,-24.56 0.8,-36.84 0.53,-24.29 1.07,-48.58 1.6,-73.13 0.8,-38.17 -58.46,-38.17 -59.26,0 -0.53,25.89 -1.07,51.78 -1.6,77.67 -0.53,22.95 -5.34,71.27 0.53,93.69 6.67,24.29 27.76,14.68 49.91,16.55 25.89,2.14 50.98,-0.53 76.87,1.34 38.17,2.93 37.9,-56.32 0,-59.26l-0.53 -0.53zm210.87 -131.86c0.27,-38.17 -65.66,-38.17 -65.93,0 0,29.09 -0.8,58.19 -3.74,87.01 -1.33,13.08 -5.34,49.11 -25.89,47.51 -20.55,-1.6 -24.02,-34.7 -24.55,-49.11 -1.07,-27.76 0.53,-55.78 1.07,-83.54 0.53,-38.17 -65.4,-38.17 -65.93,0 -0.8,40.3 -6.67,83.01 4.81,122.25 10.14,34.96 21.89,68.33 84.34,69.93 113.97,2.93 95.29,-131.59 95.55,-193.78l0.27 -0.27zm184.18 77.14c-1.6,-1.87 -3.21,-3.47 -4.81,-5.07 -2.67,-2.13 -3.2,-5.87 -1.33,-8.81 2.13,-3.47 4,-7.47 5.34,-11.74 4.27,-13.61 2.4,-28.29 -5.34,-41.37 -8.54,-14.68 -23.75,-25.63 -40.57,-29.09 -22.42,-4.8 -44.31,-3.47 -65.39,-2.13 0,0 -6.14,0.27 -6.14,0.27 -46.97,2.93 -36.3,60.86 -36.56,92.62 0,0.53 0,1.07 0,1.6 0,0 0.8,83.01 0.8,83.01 0.53,56.86 113.17,37.1 140.93,20.82 15.48,-9.08 26.16,-25.62 29.09,-45.11 2.94,-20.29 -2.93,-40.84 -16.01,-54.99zm-77.14 -57.65c5.07,0 13.62,0 20.55,2.93 5.07,2.13 9.34,5.87 10.68,12.81 3.21,16.02 -25.89,16.82 -32.03,17.35 -6.67,0.53 -9.88,-3.74 -9.88,-13.08 0,-3.21 0,-6.41 0,-9.61 0,-9.34 4.81,-11.21 10.41,-11.21l0.27 0.8zm46.71 103.56c0,0.53 0,1.07 0,1.6 -0.53,4.54 -2.41,9.08 -6.14,11.74 -2.4,1.87 -5.34,2.67 -8.28,3.47 -10.68,2.67 -39.23,10.94 -41.91,-6.14 -1.33,-7.47 -0.8,-15.22 0,-22.95 0.27,-2.14 0.53,-4.54 1.6,-6.41 5.07,-8.54 31.23,-5.07 38.7,-3.2 5.87,1.6 11.48,5.07 14.42,10.41 1.87,3.47 2.4,7.74 2.13,11.74l-0.53 -0.27z"/>
   <path class="fil6" d="M970.36 356.41c0,-0.27 0,-0.53 0,-0.8 -6.41,-37.64 -32.03,-73.13 -72.87,-75.8 -26.96,-1.87 -73.4,-16.02 -87.82,15.75 -9.07,19.75 -1.87,43.51 -1.07,64.06 1.61,35.23 3.21,70.46 4.81,105.7 1.6,37.9 60.86,38.17 59.26,0 -0.27,-3.47 -0.53,-6.94 -0.8,-10.41 26.69,-3.74 57.65,-6.94 76.87,-28.03 17.35,-18.95 25.35,-46.17 21.09,-71.53l0.53 1.07zm-64.06 30.16c-23.75,26.69 -48.05,-18.95 -46.98,-38.97 0.27,-4.8 1.33,-9.88 4.54,-13.61 3.2,-3.74 8.28,-5.61 13.08,-5.87 10.68,-0.8 21.35,5.34 27.49,14.15 7.74,11.21 12.28,33.1 2.67,44.31 0,0 0,0 0,0l-0.8 0zm266.65 65.66c-8.01,-37.1 -20.29,-72.87 -36.3,-107.3 -13.61,-29.36 -31.5,-70.73 -69.93,-70.2 -36.3,0.53 -54.72,41.64 -65.66,70.47 -13.61,35.77 -24.82,73.93 -30.96,111.84 -6.14,37.37 50.98,53.38 57.12,15.75 0.27,-1.61 0.53,-3.21 0.8,-4.81 0.8,-4 4.54,-10.41 8.81,-10.14 23.22,0.8 46.44,-1.33 69.66,0.53 3.47,2.67 7.21,5.61 10.68,8.28 12.28,41.11 63.26,21.89 55.78,-13.61l0 -0.8zm-80.08 -53.39c-2.4,10.41 -25.62,6.41 -32.56,4.54 -1.33,-0.27 -2.67,-0.8 -4,-1.33 -3.47,-1.6 -6.14,-4.27 -6.67,-8.54 -0.53,-3.74 0.53,-7.47 1.6,-11.21 2.4,-7.47 14.42,-43.24 25.36,-25.09 5.87,10.14 10.94,20.82 15.21,31.76 1.33,3.21 2.4,6.67 1.6,10.14l-0.53 -0.27zm226.61 29.9c0.81,-0.8 1.61,-1.6 2.41,-2.4 17.35,-18.95 25.35,-46.17 21.09,-71.53 0,-0.27 0,-0.53 0,-0.8 -6.41,-37.64 -29.36,-73.67 -72.6,-76.07 -26.96,-1.34 -69.13,-9.08 -83.54,22.69 -9.08,19.75 -6.14,36.83 -5.34,57.38 1.6,35.24 3.2,70.47 4.81,105.7 1.6,37.9 60.85,38.17 59.25,0 -0.27,-3.47 -0.53,-6.94 -0.8,-10.41 6.14,-0.8 12.28,-1.6 18.69,-2.67 6.41,10.14 12.54,20.55 18.42,30.96 7.74,13.62 27.22,19.49 40.57,10.94 13.61,-8.8 18.95,-26.16 10.68,-40.57 -4.54,-8.01 -9.34,-16.02 -14.15,-23.76l0.53 0.53zm-89.15 -78.2c-0.27,-5.61 0.8,-11.48 4,-16.02 7.74,-11.21 24.56,-9.61 34.7,-2.4 10.41,7.47 14.68,22.42 15.21,34.7 0.27,5.34 -0.27,10.94 -2.93,15.48 -2.67,4.8 -7.74,8.28 -13.35,9.34 -6.67,1.33 -13.88,-1.07 -18.95,-5.34 -4.01,-3.47 -7.21,-8.01 -9.88,-12.54 -3.47,-5.87 -6.67,-12.28 -8.01,-19.22 -0.27,-1.33 -0.53,-2.67 -0.53,-4l-0.27 0zm313.62 101.7c-8.01,-37.1 -20.29,-72.87 -36.3,-107.3 -13.61,-29.36 -31.5,-70.73 -69.93,-70.2 -36.3,0.53 -54.72,41.64 -65.66,70.47 -13.61,35.77 -24.82,73.93 -30.96,111.84 -6.14,37.37 50.98,53.38 57.12,15.75 0.27,-1.61 0.53,-3.21 0.8,-4.81 0.8,-4 4.54,-10.41 8.81,-10.14 23.22,0.8 46.44,-1.33 69.66,0.53 3.47,2.67 7.21,5.61 10.68,8.28 12.28,41.11 63.26,21.89 55.78,-13.61l0 -0.8zm-80.08 -53.39c-2.4,10.41 -25.62,6.41 -32.56,4.54 -1.33,-0.27 -2.67,-0.8 -4,-1.33 -3.47,-1.6 -6.14,-4.27 -6.67,-8.54 -0.53,-3.74 0.53,-7.47 1.6,-11.21 2.4,-7.47 14.42,-43.24 25.36,-25.09 5.87,10.14 10.94,20.82 15.21,31.76 1.33,3.21 2.4,6.67 1.6,10.14l-0.53 -0.27zm248.77 -94.75c-29.36,-33.36 -77.67,-26.69 -117.98,-26.96 -23.22,0.27 -36.56,5.34 -37.1,30.43 -1.07,46.45 -2.41,87.55 -1.07,138 0.53,18.95 6.14,42.17 20.82,42.71 30.16,6.41 69.67,2.93 95.03,-2.93 37.63,-8.81 59.79,-42.71 65.93,-79.54 5.87,-35.23 -1.87,-74.47 -25.89,-101.7l0.27 0zm-44.58 103.3c-6.94,4.54 -15.48,6.41 -26.42,7.47 -1.07,0 -2.94,0.27 -5.34,0.53 -9.61,1.07 -18.15,-5.07 -18.15,-13.08 0,-17.88 0,-35.77 -0.27,-53.65 -0.27,-7.47 6.94,-13.88 16.02,-13.88 27.49,0 52.58,11.74 52.58,37.1 0,12.01 -6.41,27.49 -18.15,35.23l-0.27 0.27zm160.15 57.12c0,-1.6 0,-3.21 0,-4.81 0,-0.53 0,-1.07 0,-1.6 -4.54,-51.25 -5.87,-102.76 -4,-154.28 1.33,-38.17 -57.92,-38.17 -59.26,0 -1.87,53.65 -0.27,107.04 4.8,160.42 3.47,37.63 62.2,38.43 59.26,0l-0.8 0.27zm116.37 -104.36c-8.54,-3.47 -29.62,-7.74 -32.83,-18.15 -5.34,-18.15 17.88,-7.74 25.09,-4.01 33.9,17.08 64.06,-34.16 29.9,-51.51 -30.7,-15.48 -67.8,-23.75 -95.03,3.47 -17.08,17.08 -23.75,42.97 -17.61,66.19 6.94,25.63 26.69,40.04 49.91,50.45 6.41,2.93 44.58,14.68 27.76,26.16 -21.89,14.95 -32.03,-20.82 -53.38,-16.55 -15.75,3.2 -32.03,18.95 -26.16,36.04 23.49,68.59 142.27,52.58 145.21,-21.89 1.33,-35.5 -22.96,-57.92 -53.39,-70.46l0.53 0.27zm275.19 -30.7c-38.7,-65.4 -150.8,-76.07 -191.38,11.74 -24.83,53.92 -7.74,120.38 50.45,141.2 22.15,8.01 46.44,10.95 69.39,6.41 39.24,-8.01 71.27,-40.84 80.88,-79.54 7.74,-31.23 2.93,-58.18 -9.61,-79.54l0.27 -0.27zm-57.65 58.45c-0.8,15.75 -5.07,33.37 -18.95,40.57 -2.94,1.6 -6.14,2.4 -9.34,2.67 -7.47,0.81 -15.22,-1.33 -21.35,-5.6 -25.63,-17.88 -21.62,-53.92 -2.93,-75 6.14,-6.67 13.88,-12.55 22.95,-14.15 27.76,-4.8 31.5,32.03 30.43,51.51l-0.8 0z"/>
   <path class="fil7" d="M849.15 669.75c19,0 34.04,-12.12 34.04,-28.44 0,-26.01 -37.36,-29.07 -37.36,-44.63 0,-7.27 9.05,-11.99 16.45,-11.99 4.46,0 8.29,2.04 8.29,5.1 0,2.42 -4.08,5.23 -11.99,7.01 -0.13,1.92 3.95,13.13 11.73,13.13 6.63,0 18.24,-8.29 18.24,-20.15 0,-12.24 -11.99,-22.32 -28.44,-22.32 -20.15,0 -34.56,14.41 -34.56,32.64 0,28.57 35.07,27.93 35.07,42.72 0,5.1 -4.46,7.78 -10.33,7.78 -8.16,0 -18.62,-5.23 -24.23,-15.94 -5.48,2.93 -8.8,7.9 -8.8,13.13 0,10.71 13.39,21.93 31.88,21.93zm56.87 0c9.82,0 18.49,-6.25 21.3,-8.67 3.7,5.99 10.33,8.54 17.47,8.54 16.32,0 25.88,-12.24 31.24,-25.63 4.59,-10.84 -10.07,-16.45 -12.75,-8.04 -3.19,9.95 -7.78,17.47 -13.77,17.47 -3.44,0 -5.1,-2.17 -5.1,-6.76 0,-8.04 7.78,-29.08 7.78,-40.93 0,-7.01 -2.42,-10.71 -8.03,-10.71 -2.55,0 -9.82,1.28 -12.24,1.41 0,25.88 -6.5,30.99 -7.39,50.62 -1.92,1.79 -4.97,3.7 -8.67,3.7 -2.93,0 -5.48,-0.89 -5.48,-7.39 0,-11.35 6.25,-24.23 6.25,-37.11 0,-7.65 -2.55,-11.22 -8.16,-11.22 -2.42,0 -9.82,1.28 -12.24,1.41 -0.13,21.04 -7.14,38.89 -7.14,53.04 0,14.03 6.88,20.28 16.96,20.28zm78.68 -0.13c8.67,0 14.54,-4.46 18.62,-10.58 3.57,7.78 11.22,10.58 19.76,10.58 16.71,0 26.02,-11.47 31.24,-25.63 4.21,-10.84 -10.08,-16.45 -12.75,-8.04 -3.19,9.95 -7.78,17.47 -13.77,17.47 -4.34,0 -5.99,-3.7 -5.99,-7.39 0,-10.97 8.03,-33.15 8.03,-42.46 0,-4.08 -1.41,-8.55 -7.14,-8.55 -3.32,0 -7.78,1.41 -11.86,1.41 0,2.3 -0.13,5.1 -0.51,7.39 -2.42,-7.01 -7.01,-10.84 -14.79,-10.84 -20.66,0 -32.39,25.5 -32.39,48.2 0,21.68 10.84,28.43 21.55,28.43zm6.5 -19c-4.72,0 -6.63,-5.35 -6.63,-12.11 0,-11.73 5.48,-27.17 13.64,-27.17 4.72,0 6.63,5.48 6.63,12.37 0,11.99 -5.48,26.9 -13.64,26.9zm119.48 17.09c2.68,0 4.97,-0.38 8.93,-1.28 -0.64,-9.43 0.51,-19.13 2.3,-29.46 2.68,0.9 5.99,1.66 10.33,1.66 22.57,0 38.89,-21.68 38.89,-45.14 0,-17.6 -9.56,-26.01 -22.19,-26.01 -7.27,0 -13.9,2.68 -18.36,5.74 -1.28,-2.8 -3.57,-3.7 -6.63,-3.7 -3.95,0 -10.46,1.53 -13.52,1.53 0.25,12.24 -3.19,29.46 -6.76,45.53 -3.06,13.9 -5.74,27.29 -5.74,36.09 0,10.33 3.57,15.05 12.75,15.05zm18.75 -48.08c-1.41,0 -2.68,-0.13 -4.08,-0.25 2.68,-11.99 5.1,-24.48 5.99,-31.11 2.93,-0.77 5.74,-1.28 8.04,-1.28 5.74,0 8.54,3.83 8.54,10.08 0,13.9 -6.88,22.57 -18.49,22.57zm88.75 49.99c16.7,0 26.01,-11.47 31.37,-25.63 4.08,-10.84 -10.2,-16.45 -12.88,-8.04 -3.19,9.95 -7.78,17.47 -13.77,17.47 -3.83,0 -5.48,-3.19 -5.48,-8.41 0,-8.04 3.95,-23.46 7.52,-35.58 2.17,-1.66 4.34,-5.23 4.34,-8.54 0,-3.06 -1.02,-5.99 -3.7,-7.65 -10.71,2.81 -37.88,3.95 -50.24,3.95 0.64,10.59 -0.89,26.53 -4.85,38.77 -3.57,11.35 9.44,16.2 12.75,8.04 5.1,-12.37 6.76,-25.89 6.76,-31.37 3.83,-0.25 9.69,-0.38 13.52,-1.28 -4.21,14.92 -6.63,27.68 -6.63,35.96 0,15.81 9.43,22.32 21.3,22.32zm40.04 0c8.67,0 14.54,-4.46 18.62,-10.58 3.57,7.78 11.22,10.58 19.76,10.58 16.71,0 26.02,-11.47 31.24,-25.63 4.21,-10.84 -10.08,-16.45 -12.75,-8.04 -3.19,9.95 -7.78,17.47 -13.77,17.47 -4.34,0 -5.99,-3.7 -5.99,-7.39 0,-10.97 8.03,-33.15 8.03,-42.46 0,-4.08 -1.41,-8.55 -7.14,-8.55 -3.32,0 -7.78,1.41 -11.86,1.41 0,2.3 -0.13,5.1 -0.51,7.39 -2.42,-7.01 -7.01,-10.84 -14.79,-10.84 -20.66,0 -32.39,25.5 -32.39,48.2 0,21.68 10.84,28.43 21.55,28.43zm6.5 -19c-4.72,0 -6.63,-5.35 -6.63,-12.11 0,-11.73 5.48,-27.17 13.64,-27.17 4.72,0 6.63,5.48 6.63,12.37 0,11.99 -5.48,26.9 -13.64,26.9zm67.2 -63.5c8.54,0 14.79,-6.76 14.79,-14.66 0,-4.59 -2.93,-8.67 -9.69,-8.67 -8.55,0 -14.54,7.14 -14.54,14.66 0,4.59 2.81,8.67 9.44,8.67zm1.15 82.5c16.45,0 26.01,-12.24 31.37,-25.63 4.59,-10.97 -10.07,-16.45 -12.75,-8.04 -3.19,9.82 -7.78,17.47 -13.77,17.47 -3.19,0 -4.85,-2.81 -4.85,-6.37 0,-10.08 8.03,-29.46 8.03,-41.19 0,-7.14 -2.55,-10.84 -7.9,-10.84 -2.42,0 -8.67,1.41 -12.37,1.41 0.51,22.19 -7.02,37.23 -7.02,53.17 0,15.17 9.06,20.02 19.26,20.02zm40.04 0c8.67,0 14.54,-4.46 18.62,-10.58 3.57,7.78 11.22,10.58 19.76,10.58 16.71,0 26.02,-11.47 31.24,-25.63 4.21,-10.84 -10.08,-16.45 -12.75,-8.04 -3.19,9.95 -7.78,17.47 -13.77,17.47 -4.34,0 -5.99,-3.7 -5.99,-7.39 0,-10.97 8.03,-33.15 8.03,-42.46 0,-4.08 -1.41,-8.55 -7.14,-8.55 -3.32,0 -7.78,1.41 -11.86,1.41 0,2.3 -0.13,5.1 -0.51,7.39 -2.42,-7.01 -7.01,-10.84 -14.79,-10.84 -20.66,0 -32.39,25.5 -32.39,48.2 0,21.68 10.84,28.43 21.55,28.43zm6.5 -19c-4.72,0 -6.63,-5.35 -6.63,-12.11 0,-11.73 5.48,-27.17 13.64,-27.17 4.72,0 6.63,5.48 6.63,12.37 0,11.99 -5.48,26.9 -13.64,26.9zm178.9 -58.02c0,-17.34 -7.9,-25.12 -20.02,-25.12 -23.97,0 -38.77,31.11 -45.78,57.51 -4.21,-0.38 -7.52,-0.89 -9.05,-1.27 -2.04,3.83 -3.06,11.09 -3.06,14.41 0,2.81 3.44,4.46 8.16,5.48 -0.64,4.85 -1.02,9.06 -1.02,12.12 0,8.03 3.19,11.99 9.44,11.99 4.34,0 8.03,-0.77 11.86,-1.53 -0.13,-5.48 0.64,-13.01 1.92,-21.42 6.63,-0.13 13.01,-0.76 18.36,-1.66 -0.51,3.83 -0.77,7.78 -0.77,11.61 0,8.92 3.32,13.01 8.8,13.01 3.06,0 8.93,-0.89 12.5,-1.53 -0.51,-27.29 8.67,-50.75 8.67,-73.58zm-40.68 34.3c-0.64,0 -1.92,0 -3.44,-0.13 4.59,-20.02 11.86,-38.77 19.26,-38.77 2.42,0 3.44,2.93 3.44,7.4 0,9.18 -2.42,19.51 -4.59,30.22 -4.59,0.9 -9.56,1.28 -14.66,1.28zm65.67 42.72c16.7,0 26.01,-11.47 31.24,-25.63 4.21,-10.84 -10.07,-16.45 -12.75,-8.04 -3.19,9.95 -7.78,17.47 -13.77,17.47 -3.32,0 -4.34,-2.81 -4.34,-7.01 0,-15.94 11.22,-51.26 11.22,-66.31 0,-6.89 -2.55,-10.59 -7.9,-10.59 -2.42,0 -8.67,1.41 -12.37,1.41 0,25.76 -10.97,56.62 -10.97,76.76 0,16.7 7.9,21.93 19.64,21.93zm37.36 0c16.7,0 26.01,-11.47 31.24,-25.63 4.21,-10.84 -10.07,-16.45 -12.75,-8.04 -3.19,9.95 -7.78,17.47 -13.77,17.47 -3.32,0 -4.34,-2.81 -4.34,-7.01 0,-15.94 11.22,-51.26 11.22,-66.31 0,-6.89 -2.55,-10.59 -7.9,-10.59 -2.42,0 -8.67,1.41 -12.37,1.41 0,25.76 -10.97,56.62 -10.97,76.76 0,16.7 7.9,21.93 19.64,21.93zm87.48 -1.91c2.8,0 5.1,-0.38 9.05,-1.28 -1.28,-13.77 2.81,-33.03 6.63,-50.24 3.95,-17.86 5.61,-28.57 5.61,-35.58 0,-8.16 -2.17,-11.1 -7.9,-11.1 -3.95,0 -9.82,1.41 -13.52,1.53 0.13,14.03 -3.44,31.37 -6.63,46.55 -5.1,22.7 -5.86,28.05 -5.86,34.17 0,11.61 3.57,15.94 12.63,15.94zm80.2 1.91c16.45,0 25.88,-12.24 31.37,-25.63 4.46,-10.84 -10.2,-16.45 -12.75,-8.04 -3.19,9.95 -7.78,17.47 -13.77,17.47 -3.06,0 -4.34,-2.81 -4.34,-6.76 0,-8.67 5.61,-25.76 5.61,-36.22 0,-12.63 -7.91,-17.47 -15.68,-17.47 -8.93,0 -16.58,6.37 -18.75,8.16 -0.89,-4.21 -3.19,-6.12 -7.27,-6.12 -3.44,0 -7.9,1.41 -12.37,1.41 0.89,22.32 -9.05,45.78 -9.05,61.33 0,7.65 2.42,11.35 8.03,11.35 3.19,0 7.9,-1.14 12.24,-1.4 -0.12,-8.67 1.66,-27.8 6.5,-49.35 1.15,-1.41 5.1,-6.38 9.95,-6.38 2.68,0 5.23,1.28 5.23,6.12 0,5.86 -5.1,19.51 -5.1,30.86 0,13.64 7.52,20.66 20.15,20.66zm54.96 0c19.13,0 33.92,-8.16 40.55,-25.63 3.95,-10.97 -10.08,-16.58 -12.75,-8.04 -4.34,12.5 -12.5,17.47 -23.72,17.47 -10.71,0 -19.13,-6.63 -19.13,-20.15 0,-10.97 4.97,-23.33 12.12,-23.33 3.19,0 4.59,2.42 4.59,5.61 0,2.04 -0.64,4.72 -1.78,7.01 2.29,1.15 4.59,1.79 6.76,1.79 6.76,0 10.84,-5.99 10.84,-14.15 0,-13.13 -10.46,-17.22 -19.76,-17.22 -20.53,0 -34.05,19.9 -34.05,41.82 0,19.9 11.99,34.81 36.34,34.81zm46.67 0c16.7,0 26.01,-11.47 31.24,-25.63 4.21,-10.84 -10.07,-16.45 -12.75,-8.04 -3.19,9.95 -7.78,17.47 -13.77,17.47 -3.32,0 -4.34,-2.81 -4.34,-7.01 0,-15.94 11.22,-51.26 11.22,-66.31 0,-6.89 -2.55,-10.59 -7.9,-10.59 -2.42,0 -8.67,1.41 -12.37,1.41 0,25.76 -10.97,56.62 -10.97,76.76 0,16.7 7.9,21.93 19.64,21.93zm33.92 0.13c9.82,0 18.49,-6.25 21.3,-8.67 3.7,5.99 10.33,8.54 17.47,8.54 16.32,0 25.88,-12.24 31.24,-25.63 4.59,-10.84 -10.07,-16.45 -12.75,-8.04 -3.19,9.95 -7.78,17.47 -13.77,17.47 -3.44,0 -5.1,-2.17 -5.1,-6.76 0,-8.04 7.78,-29.08 7.78,-40.93 0,-7.01 -2.42,-10.71 -8.03,-10.71 -2.55,0 -9.82,1.28 -12.24,1.41 0,25.88 -6.5,30.99 -7.39,50.62 -1.92,1.79 -4.97,3.7 -8.67,3.7 -2.93,0 -5.48,-0.89 -5.48,-7.39 0,-11.35 6.25,-24.23 6.25,-37.11 0,-7.65 -2.55,-11.22 -8.16,-11.22 -2.42,0 -9.82,1.28 -12.24,1.41 -0.13,21.04 -7.14,38.89 -7.14,53.04 0,14.03 6.88,20.28 16.96,20.28zm82.38 -0.76c17.72,0 29.2,-12.88 29.2,-28.44 0,-16.45 -14.66,-32.26 -21.55,-47.57 -7.78,1.28 -14.66,2.04 -23.72,1.53 -0.89,12.75 -5.23,29.2 -9.05,41.44 -3.57,11.22 9.44,16.2 12.75,8.04 4.34,-11.86 6.76,-23.34 7.9,-31.62 6.25,6.12 12.75,18.49 12.75,26.77 0,7.65 -3.95,13.9 -15.17,13.9 -1.53,4.34 -4.08,12.75 -2.68,14.28 1.53,0.76 4.97,1.66 9.57,1.66zm51.9 -81.87c8.54,0 14.79,-6.76 14.79,-14.66 0,-4.59 -2.93,-8.67 -9.69,-8.67 -8.55,0 -14.54,7.14 -14.54,14.66 0,4.59 2.81,8.67 9.44,8.67zm1.15 82.5c16.45,0 26.01,-12.24 31.37,-25.63 4.59,-10.97 -10.07,-16.45 -12.75,-8.04 -3.19,9.82 -7.78,17.47 -13.77,17.47 -3.19,0 -4.85,-2.81 -4.85,-6.37 0,-10.08 8.03,-29.46 8.03,-41.19 0,-7.14 -2.55,-10.84 -7.9,-10.84 -2.42,0 -8.67,1.41 -12.37,1.41 0.51,22.19 -7.02,37.23 -7.02,53.17 0,15.17 9.06,20.02 19.26,20.02zm37.75 0.13c24.1,0 40.93,-32.64 40.93,-58.78 0,-11.86 -2.81,-16.32 -9.82,-16.32 -2.3,0 -5.74,0.64 -9.69,1.92 0,20.27 -5.99,55.34 -16.83,55.34 -2.81,0 -3.83,-3.57 -3.83,-8.8 0,-13.64 5.86,-29.71 5.86,-39.28 0,-5.86 -2.93,-8.8 -8.55,-8.8 -3.57,0 -7.65,1.41 -10.33,1.41 0,12.63 -7.39,29.84 -7.39,46.67 0,17.47 6.63,26.65 19.64,26.65zm79.31 -0.13c23.21,0 36.35,-11.35 41.31,-25.63 3.32,-9.06 -9.69,-18.24 -12.75,-8.04 -4.08,12.5 -11.99,17.47 -24.99,17.47 -8.04,0 -14.92,-4.08 -16.96,-9.43 20.79,-1.79 34.04,-14.41 34.04,-31.24 0,-14.54 -10.84,-19.77 -20.91,-19.77 -20.15,0 -35.07,18.49 -35.07,44.25 0,22.95 16.32,32.39 35.32,32.39zm-13.77 -37.87c1.02,-11.22 5.36,-22.44 11.86,-22.44 2.81,0 4.85,2.55 4.85,6.25 0,7.01 -6.76,15.05 -16.71,16.19z"/>
  </g>
 </g>
</svg>
