<?xml version="1.0" encoding="UTF-8"?>
<!DOCTYPE svg PUBLIC "-//W3C//DTD SVG 1.1//EN" "http://www.w3.org/Graphics/SVG/1.1/DTD/svg11.dtd">
<!-- Creator: CorelDRAW 2020 (64 Bit) -->
<svg xmlns="http://www.w3.org/2000/svg" xml:space="preserve" width="173.481mm" height="69.056mm" version="1.1" style="shape-rendering:geometricPrecision; text-rendering:geometricPrecision; image-rendering:optimizeQuality; fill-rule:evenodd; clip-rule:evenodd"
viewBox="0 0 17311.12 6890.89"
 xmlns:xlink="http://www.w3.org/1999/xlink"
 xmlns:xodm="http://www.corel.com/coreldraw/odm/2003">
 <defs>
  <style type="text/css">
   <![CDATA[
    .fil0 {fill:none}
    .fil2 {fill:#29616A}
    .fil5 {fill:#61B370}
    .fil3 {fill:#96C1E6}
    .fil4 {fill:#E4793E}
    .fil1 {fill:#F8CA48}
    .fil8 {fill:#29616A;fill-rule:nonzero}
    .fil7 {fill:#61B370;fill-rule:nonzero}
    .fil6 {fill:#E4793E;fill-rule:nonzero}
   ]]>
  </style>
 </defs>
 <g id="Camada_x0020_1">
  <metadata id="CorelCorpID_0Corel-Layer"/>
  <g id="_2229735501408">
   <rect class="fil0" x="-0" y="-0" width="17311.12" height="6890.89"/>
   <g>
    <g>
     <path class="fil1" d="M3191.33 2633.61c452.97,0 838.79,287.37 985.2,689.74l-1970.46 0c146.41,-402.37 532.26,-689.74 985.27,-689.74z"/>
     <path class="fil2" d="M4236.67 3571.64c-14.47,338.8 -293.66,609.03 -636,609.03 -342.38,0 -621.57,-270.23 -636.04,-609.03l1272.04 0z"/>
     <path class="fil3" d="M2690.65 3571.64c13.92,467.41 380.02,846.29 842.08,880.34 -194.83,173 -451.22,278.12 -732.24,278.12 -609.45,0 -1103.48,-494.03 -1103.48,-1103.48 0,-18.44 0.49,-36.72 1.38,-54.97l992.26 0z"/>
     <path class="fil4" d="M5449.16 3571.64l-938.47 0c-7.91,265.54 -129.49,502.54 -317.81,663.94 179.13,145.49 407.49,232.69 656.22,232.69 223.43,0 430.45,-70.36 600.06,-190.14l0 -706.49z"/>
     <g>
      <path class="fil5" d="M1972.92 1698.55c274.27,0 496.6,265.12 496.6,524.14 0,-249.77 199.55,-509.02 451.22,-523.29l0 630.73 -0.88 40.07c-436.46,89.42 -792.59,399.25 -946.94,808.12l0 -848.2 0 -631.58 0 0zm1290.04 0.03c223.7,1.7 410.9,235.93 461.9,439.81 51.64,-205.02 242.01,-439.84 468.97,-439.84l13.82 0.2 0 658.94 331.06 0 0 -658.91c221.23,6.03 405.14,239.28 455.39,440.63 50.7,-196.92 233.48,-427.92 455.06,-440.01l0 658.29 0 993.22 -972.15 0c-74.53,-271.02 -231.2,-508.02 -441.61,-682.44 -208.29,-184.77 -476.82,-303.15 -772.44,-321.91l0 -647.98z"/>
     </g>
    </g>
    <path class="fil6" d="M6772.75 2250.89c-8.42,-9.82 -16.83,-18.23 -25.25,-26.64 -14.02,-11.23 -16.82,-30.85 -7.02,-46.28 11.23,-18.23 21.04,-39.27 28.05,-61.7 22.43,-71.52 12.62,-148.65 -28.05,-217.37 -44.87,-77.13 -124.8,-134.62 -213.15,-152.85 -117.79,-25.24 -232.78,-18.23 -343.57,-11.22 0,0 -32.25,1.4 -32.25,1.4 -246.81,15.43 -190.71,319.74 -192.12,486.61 0,2.8 0,5.61 0,8.41 0,0 4.21,436.13 4.21,436.13 2.8,298.69 594.58,194.92 740.42,109.38 81.34,-47.68 137.44,-134.62 152.85,-236.99 15.43,-106.57 -15.42,-214.55 -84.13,-288.87zm-405.27 -302.9c26.64,0 71.52,0 107.98,15.43 26.64,11.22 49.08,30.84 56.09,67.31 16.82,84.14 -136.03,88.35 -168.28,91.16 -35.06,2.8 -51.88,-19.64 -51.88,-68.71 0,-16.83 0,-33.66 0,-50.48 0,-49.09 25.24,-58.9 54.68,-58.9l1.41 4.21zm245.41 544.1c0,2.8 0,5.61 0,8.41 -2.8,23.84 -12.62,47.69 -32.25,61.71 -12.62,9.82 -28.05,14.02 -43.48,18.23 -56.09,14.02 -206.14,57.5 -220.16,-32.25 -7.02,-39.27 -4.21,-79.94 0,-120.6 1.4,-11.22 2.8,-23.84 8.41,-33.66 26.64,-44.87 164.07,-26.64 203.34,-16.82 30.85,8.41 60.3,26.64 75.73,54.68 9.81,18.23 12.61,40.67 11.22,61.71l-2.8 -1.41z"/>
    <path id="1" class="fil6" d="M7572.06 2541.17c-19.63,0 -39.27,1.4 -58.89,1.4 -49.09,1.41 -98.16,1.41 -147.25,2.8 -11.22,0 -23.84,0 -35.06,-4.2 -26.64,-11.22 -23.84,-53.29 2.8,-61.71 7.02,-2.8 15.43,-2.8 23.84,-2.8 36.46,1.41 72.92,0 109.38,-1.4 75.73,-1.41 140.24,-63.11 154.26,-136.03 11.22,-57.5 -16.82,-112.18 -61.7,-145.84 -50.49,-36.46 -116.4,-39.27 -176.7,-29.45 -19.63,2.8 -39.26,7.01 -58.89,5.61 -64.5,-7.02 -70.11,-84.14 -30.85,-123.41 36.46,-36.46 88.35,-28.05 134.63,-26.64 60.29,2.8 120.59,7.02 180.89,12.62 199.13,16.82 197.73,-294.49 -1.4,-311.32 -165.48,-14.03 -330.95,-18.23 -497.83,-11.23 -136.03,5.62 -140.23,173.89 -151.46,273.46 -28.04,234.19 -12.61,469.78 -2.8,705.37 4.21,119.2 95.36,148.64 197.73,151.45 0,0 0,0 0,0 138.83,16.83 279.06,22.44 417.9,15.43 145.84,-8.41 215.96,-234.19 70.11,-300.1 -23.84,-9.82 -47.68,-12.62 -71.52,-12.62l2.8 -1.4z"/>
    <path id="2" class="fil6" d="M8836.97 2636.53c-42.07,-194.92 -106.58,-382.83 -190.72,-563.74 -71.52,-154.25 -165.48,-371.62 -367.41,-368.81 -190.72,2.8 -287.48,218.76 -344.97,370.22 -71.52,187.91 -130.42,388.44 -162.67,587.58 -32.25,196.32 267.85,280.46 300.1,82.73 1.41,-8.41 2.8,-16.82 4.21,-25.25 4.2,-21.04 23.84,-54.68 46.27,-53.29 122.01,4.21 244.01,-7.01 366.01,2.8 18.23,14.03 37.86,29.45 56.09,43.48 64.51,215.96 332.35,114.98 293.09,-71.52l0 -4.21zm-420.7 -280.46c-12.62,54.68 -134.62,33.65 -171.08,23.84 -7.02,-1.41 -14.02,-4.21 -21.04,-7.02 -18.23,-8.41 -32.25,-22.43 -35.06,-44.87 -2.8,-19.63 2.8,-39.27 8.41,-58.89 12.62,-39.27 75.73,-227.18 133.22,-131.82 30.85,53.29 57.5,109.38 79.94,166.87 7.01,16.82 12.62,35.06 8.41,53.29l-2.8 -1.4z"/>
    <path id="3" class="fil6" d="M9953.22 2499.1c-25.24,-116.39 -155.66,-148.64 -246.8,-84.14 -136.03,96.76 -321.13,244.01 -433.32,19.63 -47.68,-95.36 -51.88,-228.57 -11.22,-326.74 74.32,-179.5 284.67,-63.1 437.53,-21.04 77.13,21.04 164.07,-33.65 183.71,-110.78 86.94,-330.94 -504.84,-312.71 -680.13,-241.2 -294.49,120.6 -415.09,473.99 -300.1,761.46 143.03,357.59 572.15,461.36 890.48,262.23 84.14,-53.29 183.7,-155.66 159.86,-265.03l0 5.61z"/>
    <path id="4" class="fil6" d="M11037.21 2660.37c5.61,-5.61 -1.4,-49.09 -1.4,-61.7 -1.41,-36.46 -2.8,-72.92 -4.21,-109.39 -1.4,-72.91 -2.8,-145.84 -4.21,-218.76 -4.2,-145.84 -8.41,-291.68 -12.61,-437.53 -5.61,-200.53 -316.93,-201.93 -311.32,-1.4 1.4,50.48 2.8,100.96 4.2,151.45 2.8,92.55 -67.31,171.08 -159.86,176.69 -1.41,0 -2.81,0 -4.21,0 -98.16,7.02 -182.3,-70.11 -183.71,-169.68 -1.4,-58.9 -1.4,-117.8 -1.4,-176.69 0,-200.53 -311.32,-200.53 -311.32,0 0,311.32 8.41,621.22 23.84,931.14 4.2,96.76 91.15,168.28 187.91,147.25 74.32,-15.43 114.99,-72.92 127.61,-144.44 8.42,-53.29 -12.61,-109.38 -18.23,-161.27 -8.41,-86.94 58.9,-129.01 138.83,-120.6 81.34,8.41 175.3,50.48 200.53,134.62 19.64,65.91 12.62,133.23 42.07,197.73 46.28,100.97 173.89,86.94 245.41,30.85 1.41,-1.41 2.8,-2.8 4.21,-4.21 43.47,-33.65 56.09,-110.78 36.46,-164.07l1.4 0z"/>
    <path id="5" class="fil6" d="M12720 2499.1c-25.24,-116.39 -155.66,-148.64 -246.8,-84.14 -136.03,96.76 -321.13,244.01 -433.32,19.63 -47.68,-95.36 -51.88,-228.57 -11.22,-326.74 74.32,-179.5 284.67,-63.1 437.53,-21.04 77.13,21.04 164.07,-33.65 183.71,-110.78 86.94,-330.94 -504.84,-312.71 -680.13,-241.2 -294.49,120.6 -415.09,473.99 -300.1,761.46 143.03,357.59 572.15,461.36 890.48,262.23 84.14,-53.29 183.7,-155.66 159.86,-265.03l0 5.61z"/>
    <path id="6" class="fil6" d="M13466.04 2538.37l-224.37 -16.83c-14.02,-1.4 -32.25,-1.4 -53.29,-1.4 -46.28,1.4 -82.74,-37.86 -81.34,-84.14 0,0 0,0 0,0 1.4,-64.51 2.8,-129.01 4.2,-193.52 2.8,-127.62 5.62,-255.23 8.42,-384.24 4.2,-200.53 -307.11,-200.53 -311.33,0 -2.8,136.02 -5.61,272.05 -8.41,408.08 -2.8,120.59 -28.04,374.42 2.8,492.21 35.07,127.62 145.85,77.14 262.24,86.94 136.02,11.23 267.84,-2.8 403.87,7.02 200.53,15.43 199.13,-295.89 0,-311.32l-2.8 -2.8z"/>
    <path id="7" class="fil6" d="M14573.87 1845.62c1.41,-200.53 -344.96,-200.53 -346.37,0 0,152.85 -4.21,305.71 -19.63,457.15 -7.02,68.71 -28.05,258.03 -136.03,249.62 -107.98,-8.41 -126.21,-182.3 -129.01,-258.03 -5.61,-145.84 2.8,-293.08 5.61,-438.92 2.8,-200.53 -343.57,-200.53 -346.37,0 -4.21,211.75 -35.07,436.12 25.24,642.26 53.3,183.71 114.99,359 443.13,367.42 598.8,15.43 500.63,-691.35 502.04,-1018.09l1.4 -1.41z"/>
    <path id="8" class="fil6" d="M15541.49 2250.89c-8.42,-9.82 -16.83,-18.23 -25.25,-26.64 -14.02,-11.23 -16.82,-30.85 -7.02,-46.28 11.23,-18.23 21.04,-39.27 28.05,-61.7 22.43,-71.52 12.62,-148.65 -28.05,-217.37 -44.87,-77.13 -124.8,-134.62 -213.15,-152.85 -117.79,-25.24 -232.78,-18.23 -343.57,-11.22 0,0 -32.25,1.4 -32.25,1.4 -246.81,15.43 -190.71,319.74 -192.12,486.61 0,2.8 0,5.61 0,8.41 0,0 4.21,436.13 4.21,436.13 2.8,298.69 594.58,194.92 740.42,109.38 81.34,-47.68 137.44,-134.62 152.85,-236.99 15.43,-106.57 -15.42,-214.55 -84.13,-288.87zm-405.27 -302.9c26.64,0 71.52,0 107.98,15.43 26.64,11.22 49.08,30.84 56.09,67.31 16.82,84.14 -136.03,88.35 -168.28,91.16 -35.06,2.8 -51.88,-19.64 -51.88,-68.71 0,-16.83 0,-33.66 0,-50.48 0,-49.09 25.24,-58.9 54.68,-58.9l1.41 4.21zm245.41 544.1c0,2.8 0,5.61 0,8.41 -2.8,23.84 -12.62,47.69 -32.25,61.71 -12.62,9.82 -28.05,14.02 -43.48,18.23 -56.09,14.02 -206.14,57.5 -220.16,-32.25 -7.02,-39.27 -4.21,-79.94 0,-120.6 1.4,-11.22 2.8,-23.84 8.41,-33.66 26.64,-44.87 164.07,-26.64 203.34,-16.82 30.85,8.41 60.3,26.64 75.73,54.68 9.81,18.23 12.61,40.67 11.22,61.71l-2.8 -1.41z"/>
    <path class="fil7" d="M6795.18 3535.45c0,-1.4 0,-2.8 0,-4.21 -33.66,-197.73 -168.28,-384.23 -382.83,-398.26 -141.64,-9.81 -385.64,-84.14 -461.36,82.74 -47.68,103.77 -9.82,228.57 -5.61,336.55 8.41,185.11 16.82,370.22 25.24,555.32 8.41,199.13 319.74,200.53 311.32,0 -1.4,-18.23 -2.8,-36.46 -4.2,-54.69 140.23,-19.63 302.9,-36.45 403.87,-147.25 91.16,-99.56 133.23,-242.6 110.78,-375.82l2.8 5.61zm-336.56 158.46c-124.8,140.23 -252.41,-99.57 -246.8,-204.74 1.4,-25.24 7.01,-51.88 23.84,-71.52 16.82,-19.63 43.47,-29.45 68.71,-30.84 56.09,-4.21 112.18,28.04 144.44,74.32 40.66,58.89 64.5,173.89 14.02,232.78 0,0 0,0 0,0l-4.21 0z"/>
    <path id="1" class="fil7" d="M7859.55 4038.89c-42.07,-194.92 -106.58,-382.83 -190.72,-563.74 -71.52,-154.25 -165.48,-371.62 -367.41,-368.81 -190.72,2.8 -287.48,218.76 -344.97,370.22 -71.52,187.91 -130.42,388.44 -162.67,587.58 -32.25,196.32 267.85,280.46 300.1,82.73 1.41,-8.41 2.8,-16.82 4.21,-25.25 4.2,-21.04 23.84,-54.68 46.27,-53.29 122.01,4.21 244.01,-7.01 366.01,2.8 18.23,14.03 37.86,29.45 56.09,43.48 64.51,215.96 332.35,114.98 293.09,-71.52l0 -4.21zm-420.7 -280.46c-12.62,54.68 -134.62,33.65 -171.08,23.84 -7.02,-1.41 -14.02,-4.21 -21.04,-7.02 -18.23,-8.41 -32.25,-22.43 -35.06,-44.87 -2.8,-19.63 2.8,-39.27 8.41,-58.89 12.62,-39.27 75.73,-227.18 133.22,-131.82 30.85,53.29 57.5,109.38 79.94,166.87 7.01,16.82 12.62,35.06 8.41,53.29l-2.8 -1.4z"/>
    <path id="2" class="fil7" d="M8629.42 3915.48c4.21,-4.2 8.42,-8.41 12.62,-12.62 91.16,-99.56 133.23,-242.6 110.78,-375.82 0,-1.41 0,-2.8 0,-4.21 -33.66,-197.73 -154.25,-387.04 -381.44,-399.66 -141.63,-7.02 -363.19,-47.68 -438.92,119.2 -47.68,103.77 -32.25,193.52 -28.05,301.5 8.41,185.1 16.83,370.22 25.25,555.32 8.41,199.12 319.73,200.53 311.32,0 -1.41,-18.23 -2.8,-36.46 -4.21,-54.69 32.26,-4.2 64.51,-8.41 98.17,-14.02 33.65,53.29 65.91,107.98 96.75,162.67 40.67,71.52 143.04,102.36 213.15,57.49 71.52,-46.27 99.57,-137.43 56.09,-213.15 -23.84,-42.06 -49.08,-84.13 -74.32,-124.8l2.8 2.8zm-468.37 -410.88c-1.41,-29.45 4.2,-60.3 21.04,-84.14 40.66,-58.89 129.01,-50.48 182.3,-12.61 54.69,39.27 77.13,117.79 79.93,182.3 1.41,28.04 -1.4,57.5 -15.43,81.34 -14.02,25.24 -40.66,43.47 -70.11,49.08 -35.07,7.02 -72.92,-5.61 -99.57,-28.04 -21.04,-18.23 -37.86,-42.07 -51.89,-65.91 -18.23,-30.85 -35.06,-64.51 -42.07,-100.97 -1.4,-7.01 -2.8,-14.02 -2.8,-21.04l-1.4 0z"/>
    <path id="3" class="fil7" d="M9808.78 4038.89c-42.07,-194.92 -106.58,-382.83 -190.72,-563.74 -71.52,-154.25 -165.48,-371.62 -367.41,-368.81 -190.72,2.8 -287.48,218.76 -344.97,370.22 -71.52,187.91 -130.42,388.44 -162.67,587.58 -32.25,196.32 267.85,280.46 300.1,82.73 1.41,-8.41 2.8,-16.82 4.21,-25.25 4.2,-21.04 23.84,-54.68 46.27,-53.29 122.01,4.21 244.01,-7.01 366.01,2.8 18.23,14.03 37.86,29.45 56.09,43.48 64.51,215.96 332.35,114.98 293.09,-71.52l0 -4.21zm-420.7 -280.46c-12.62,54.68 -134.62,33.65 -171.08,23.84 -7.02,-1.41 -14.02,-4.21 -21.04,-7.02 -18.23,-8.41 -32.25,-22.43 -35.06,-44.87 -2.8,-19.63 2.8,-39.27 8.41,-58.89 12.62,-39.27 75.73,-227.18 133.22,-131.82 30.85,53.29 57.5,109.38 79.94,166.87 7.01,16.82 12.62,35.06 8.41,53.29l-2.8 -1.4z"/>
    <path id="4" class="fil7" d="M10695.03 3260.6c-154.25,-175.3 -408.08,-140.23 -619.83,-141.64 -122,1.41 -192.12,28.05 -194.92,159.87 -5.61,244 -12.62,459.96 -5.61,725 2.8,99.57 32.25,221.57 109.39,224.37 158.46,33.66 366,15.43 499.22,-15.43 197.73,-46.28 314.12,-224.37 346.37,-417.9 30.85,-185.1 -9.81,-391.24 -136.02,-534.28l1.4 0zm-234.19 542.7c-36.45,23.84 -81.33,33.65 -138.82,39.27 -5.61,0 -15.43,1.4 -28.05,2.8 -50.48,5.61 -95.36,-26.64 -95.36,-68.71 0,-93.96 0,-187.92 -1.41,-281.87 -1.4,-39.27 36.46,-72.92 84.14,-72.92 144.44,0 276.26,61.7 276.26,194.92 0,63.11 -33.66,144.44 -95.36,185.1l-1.41 1.41z"/>
    <path id="5" class="fil7" d="M11302.25 4103.4c0,-8.42 0,-16.83 0,-25.25 0,-2.8 0,-5.61 0,-8.41 -23.84,-269.25 -30.85,-539.9 -21.04,-810.55 7.01,-200.53 -304.31,-200.53 -311.33,0 -9.81,281.87 -1.4,562.34 25.25,842.8 18.23,197.73 326.74,201.94 311.32,0l-4.2 1.41z"/>
    <path id="6" class="fil7" d="M11913.65 3555.08c-44.87,-18.22 -155.66,-40.66 -172.48,-95.36 -28.05,-95.36 93.95,-40.66 131.82,-21.04 178.09,89.75 336.55,-179.5 157.05,-270.64 -161.27,-81.34 -356.19,-124.81 -499.22,18.23 -89.75,89.75 -124.8,225.77 -92.55,347.78 36.46,134.62 140.23,210.34 262.23,265.03 33.66,15.43 234.19,77.13 145.85,137.43 -114.99,78.53 -168.28,-109.38 -280.47,-86.94 -82.73,16.83 -168.28,99.57 -137.43,189.32 123.41,360.4 747.44,276.26 762.86,-114.99 7.02,-186.5 -120.59,-304.3 -280.46,-370.21l2.8 1.4z"/>
    <path id="7" class="fil7" d="M13359.46 3393.81c-203.34,-343.57 -792.32,-399.66 -1005.47,61.71 -130.41,283.27 -40.66,632.45 265.04,741.83 116.39,42.07 244,57.5 364.6,33.66 206.14,-42.07 374.42,-214.55 424.9,-417.9 40.67,-164.07 15.43,-305.71 -50.48,-417.89l1.41 -1.41zm-302.9 307.11c-4.21,82.73 -26.64,175.29 -99.57,213.15 -15.43,8.41 -32.25,12.61 -49.09,14.02 -39.27,4.21 -79.93,-7.02 -112.18,-29.45 -134.62,-93.96 -113.59,-283.28 -15.43,-394.06 32.25,-35.06 72.92,-65.91 120.6,-74.32 145.84,-25.24 165.47,168.28 159.86,270.65l-4.2 0z"/>
    <path class="fil8" d="M6158.34 5181.73c99.82,0 178.87,-63.64 178.87,-149.39 0,-136.67 -196.29,-152.74 -196.29,-234.48 0,-38.19 47.57,-62.98 86.43,-62.98 23.44,0 43.54,10.73 43.54,26.8 0,12.72 -21.43,27.46 -62.97,36.84 -0.67,10.05 20.77,69 61.63,69 34.84,0 95.81,-43.54 95.81,-105.84 0,-64.31 -62.98,-117.24 -149.4,-117.24 -105.84,0 -181.55,75.7 -181.55,171.5 0,150.06 184.24,146.72 184.24,224.42 0,26.8 -23.45,40.87 -54.26,40.87 -42.88,0 -97.81,-27.47 -127.29,-83.74 -28.81,15.41 -46.22,41.53 -46.22,69 0,56.27 70.34,115.22 167.48,115.22z"/>
    <path id="1" class="fil8" d="M6457.13 5181.73c51.58,0 97.13,-32.82 111.87,-45.55 19.43,31.48 54.26,44.88 91.78,44.88 85.75,0 136,-64.31 164.13,-134.65 24.12,-56.95 -52.92,-86.43 -66.99,-42.21 -16.75,52.26 -40.87,91.78 -72.36,91.78 -18.09,0 -26.79,-11.4 -26.79,-35.5 0,-42.21 40.86,-152.74 40.86,-215.05 0,-36.85 -12.73,-56.28 -42.21,-56.28 -13.39,0 -51.58,6.71 -64.31,7.37 0,136 -34.17,162.79 -38.86,265.96 -10.05,9.38 -26.12,19.43 -45.55,19.43 -15.41,0 -28.81,-4.69 -28.81,-38.86 0,-59.62 32.83,-127.29 32.83,-194.95 0,-40.19 -13.4,-58.95 -42.88,-58.95 -12.72,0 -51.58,6.71 -64.31,7.37 -0.67,110.53 -37.51,204.32 -37.51,278.69 0,73.69 36.17,106.51 89.1,106.51z"/>
    <path id="2" class="fil8" d="M6870.48 5181.06c45.55,0 76.38,-23.45 97.81,-55.6 18.76,40.86 58.95,55.6 103.84,55.6 87.76,0 136.67,-60.29 164.13,-134.65 22.11,-56.95 -52.92,-86.43 -66.99,-42.21 -16.75,52.26 -40.87,91.78 -72.36,91.78 -22.78,0 -31.48,-19.43 -31.48,-38.86 0,-57.62 42.2,-174.18 42.2,-223.08 0,-21.44 -7.36,-44.89 -37.51,-44.89 -17.42,0 -40.87,7.37 -62.31,7.37 0,12.05 -0.67,26.79 -2.68,38.86 -12.72,-36.85 -36.84,-56.95 -77.7,-56.95 -108.53,0 -170.17,133.99 -170.17,253.24 0,113.89 56.95,149.39 113.22,149.39zm34.17 -99.82c-24.79,0 -34.84,-28.14 -34.84,-63.64 0,-61.64 28.81,-142.7 71.68,-142.7 24.8,0 34.85,28.81 34.85,64.98 0,62.98 -28.81,141.36 -71.69,141.36z"/>
    <path id="3" class="fil8" d="M7532.37 5171.01c14.07,0 26.13,-2.01 46.9,-6.7 -3.35,-49.57 2.67,-100.5 12.05,-154.76 14.07,4.69 31.49,8.71 54.26,8.71 118.58,0 204.33,-113.89 204.33,-237.15 0,-92.45 -50.24,-136.67 -116.57,-136.67 -38.19,0 -73.02,14.07 -96.47,30.15 -6.7,-14.74 -18.75,-19.43 -34.84,-19.43 -20.77,0 -54.93,8.04 -71.01,8.04 1.34,64.31 -16.74,154.75 -35.5,239.16 -16.08,73.02 -30.15,143.37 -30.15,189.6 0,54.26 18.75,79.05 66.99,79.05zm98.48 -252.56c-7.36,0 -14.07,-0.67 -21.43,-1.35 14.07,-62.97 26.79,-128.63 31.48,-163.46 15.41,-4.02 30.15,-6.7 42.21,-6.7 30.15,0 44.88,20.1 44.88,52.93 0,73.01 -36.17,118.58 -97.14,118.58z"/>
    <path id="4" class="fil8" d="M8097.12 5181.06c87.76,0 136.67,-60.29 164.81,-134.65 21.43,-56.95 -53.6,-86.43 -67.67,-42.21 -16.75,52.26 -40.86,91.78 -72.36,91.78 -20.1,0 -28.81,-16.75 -28.81,-44.22 0,-42.21 20.77,-123.27 39.53,-186.91 11.4,-8.71 22.78,-27.47 22.78,-44.88 0,-16.09 -5.36,-31.49 -19.43,-40.19 -56.27,14.74 -198.97,20.77 -263.96,20.77 3.35,55.6 -4.69,139.34 -25.46,203.66 -18.76,59.62 49.57,85.08 67,42.21 26.79,-64.98 35.5,-136 35.5,-164.81 20.1,-1.34 50.91,-2.01 71.01,-6.7 -22.1,78.38 -34.84,145.37 -34.84,188.92 0,83.07 49.57,117.24 111.88,117.24z"/>
    <path id="5" class="fil8" d="M8307.48 5181.06c45.55,0 76.38,-23.45 97.81,-55.6 18.76,40.86 58.95,55.6 103.84,55.6 87.76,0 136.67,-60.29 164.13,-134.65 22.11,-56.95 -52.92,-86.43 -66.99,-42.21 -16.75,52.26 -40.87,91.78 -72.36,91.78 -22.78,0 -31.48,-19.43 -31.48,-38.86 0,-57.62 42.2,-174.18 42.2,-223.08 0,-21.44 -7.36,-44.89 -37.51,-44.89 -17.42,0 -40.87,7.37 -62.31,7.37 0,12.05 -0.67,26.79 -2.68,38.86 -12.72,-36.85 -36.84,-56.95 -77.7,-56.95 -108.53,0 -170.17,133.99 -170.17,253.24 0,113.89 56.95,149.39 113.22,149.39zm34.17 -99.82c-24.79,0 -34.84,-28.14 -34.84,-63.64 0,-61.64 28.81,-142.7 71.68,-142.7 24.8,0 34.85,28.81 34.85,64.98 0,62.98 -28.81,141.36 -71.69,141.36z"/>
    <path id="6" class="fil8" d="M8694.71 4747.61c44.88,0 77.71,-35.5 77.71,-77.05 0,-24.11 -15.41,-45.55 -50.91,-45.55 -44.88,0 -76.38,37.52 -76.38,77.05 0,24.12 14.74,45.55 49.57,45.55zm6.03 433.44c86.43,0 136.67,-64.31 164.81,-134.65 24.12,-57.62 -52.93,-86.43 -67,-42.21 -16.74,51.59 -40.86,91.78 -72.35,91.78 -16.75,0 -25.47,-14.74 -25.47,-33.5 0,-52.93 42.21,-154.75 42.21,-216.39 0,-37.52 -13.4,-56.95 -41.53,-56.95 -12.73,0 -45.56,7.37 -64.99,7.37 2.68,116.57 -36.84,195.62 -36.84,279.36 0,79.72 47.57,105.18 101.15,105.18z"/>
    <path id="7" class="fil8" d="M8911.09 5181.06c45.55,0 76.38,-23.45 97.81,-55.6 18.76,40.86 58.95,55.6 103.84,55.6 87.76,0 136.67,-60.29 164.13,-134.65 22.11,-56.95 -52.92,-86.43 -66.99,-42.21 -16.75,52.26 -40.87,91.78 -72.36,91.78 -22.78,0 -31.48,-19.43 -31.48,-38.86 0,-57.62 42.2,-174.18 42.2,-223.08 0,-21.44 -7.36,-44.89 -37.51,-44.89 -17.42,0 -40.87,7.37 -62.31,7.37 0,12.05 -0.67,26.79 -2.68,38.86 -12.72,-36.85 -36.84,-56.95 -77.7,-56.95 -108.53,0 -170.17,133.99 -170.17,253.24 0,113.89 56.95,149.39 113.22,149.39zm34.17 -99.82c-24.79,0 -34.84,-28.14 -34.84,-63.64 0,-61.64 28.81,-142.7 71.68,-142.7 24.8,0 34.85,28.81 34.85,64.98 0,62.98 -28.81,141.36 -71.69,141.36z"/>
    <path id="8" class="fil8" d="M9885.17 4776.42c0,-91.12 -41.54,-131.98 -105.19,-131.98 -125.94,0 -203.66,163.46 -240.51,302.13 -22.1,-2.01 -39.53,-4.69 -47.56,-6.7 -10.72,20.1 -16.08,58.29 -16.08,75.7 0,14.74 18.08,23.45 42.87,28.81 -3.34,25.46 -5.36,47.57 -5.36,63.64 0,42.21 16.75,62.98 49.57,62.98 22.78,0 42.21,-4.02 62.31,-8.04 -0.67,-28.8 3.35,-68.33 10.05,-112.54 34.84,-0.68 68.33,-4.02 96.47,-8.71 -2.68,20.1 -4.02,40.86 -4.02,60.96 0,46.9 17.41,68.33 46.22,68.33 16.08,0 46.9,-4.69 65.65,-8.04 -2.67,-143.36 45.56,-266.63 45.56,-386.54zm-213.71 180.21c-3.34,0 -10.05,0 -18.08,-0.67 24.11,-105.18 62.3,-203.66 101.15,-203.66 12.73,0 18.09,15.41 18.09,38.86 0,48.24 -12.73,102.5 -24.12,158.77 -24.12,4.69 -50.24,6.7 -77.05,6.7z"/>
    <path id="9" class="fil8" d="M10016.47 5181.06c87.76,0 136.67,-60.29 164.14,-134.65 22.1,-56.95 -52.93,-86.43 -67,-42.21 -16.74,52.26 -40.86,91.78 -72.36,91.78 -17.41,0 -22.77,-14.74 -22.77,-36.85 0,-83.74 58.95,-269.31 58.95,-348.36 0,-36.18 -13.4,-55.61 -41.54,-55.61 -12.72,0 -45.55,7.37 -64.98,7.37 0,135.32 -57.62,297.44 -57.62,403.3 0,87.75 41.54,115.22 103.17,115.22z"/>
    <path id="10" class="fil8" d="M10212.76 5181.06c87.76,0 136.67,-60.29 164.14,-134.65 22.1,-56.95 -52.93,-86.43 -67,-42.21 -16.74,52.26 -40.86,91.78 -72.36,91.78 -17.41,0 -22.77,-14.74 -22.77,-36.85 0,-83.74 58.95,-269.31 58.95,-348.36 0,-36.18 -13.4,-55.61 -41.54,-55.61 -12.72,0 -45.55,7.37 -64.98,7.37 0,135.32 -57.62,297.44 -57.62,403.3 0,87.75 41.54,115.22 103.17,115.22z"/>
    <path id="11" class="fil8" d="M10672.34 5171.01c14.74,0 26.8,-2.01 47.57,-6.7 -6.71,-72.36 14.74,-173.52 34.84,-263.96 20.77,-93.79 29.48,-150.06 29.48,-186.91 0,-42.88 -11.39,-58.29 -41.54,-58.29 -20.77,0 -51.58,7.37 -71.01,8.04 0.67,73.69 -18.09,164.8 -34.84,244.53 -26.8,119.25 -30.81,147.38 -30.81,179.54 0,60.96 18.75,83.74 66.32,83.74z"/>
    <path id="12" class="fil8" d="M11093.72 5181.06c86.43,0 136,-64.31 164.81,-134.65 23.44,-56.95 -53.6,-86.43 -67,-42.21 -16.74,52.26 -40.86,91.78 -72.36,91.78 -16.08,0 -22.77,-14.74 -22.77,-35.5 0,-45.56 29.48,-135.33 29.48,-190.26 0,-66.33 -41.54,-91.78 -82.4,-91.78 -46.9,0 -87.09,33.5 -98.48,42.88 -4.69,-22.1 -16.74,-32.16 -38.19,-32.16 -18.08,0 -41.53,7.37 -64.98,7.37 4.69,117.24 -47.57,240.51 -47.57,322.23 0,40.2 12.73,59.62 42.21,59.62 16.74,0 41.53,-6.03 64.31,-7.36 -0.67,-45.55 8.71,-146.05 34.17,-259.27 6.03,-7.36 26.79,-33.49 52.26,-33.49 14.06,0 27.46,6.7 27.46,32.15 0,30.81 -26.79,102.5 -26.79,162.12 0,71.69 39.53,108.53 105.84,108.53z"/>
    <path id="13" class="fil8" d="M11382.47 5181.06c100.49,0 178.2,-42.88 213.04,-134.65 20.77,-57.62 -52.93,-87.09 -66.99,-42.21 -22.78,65.65 -65.66,91.78 -124.61,91.78 -56.27,0 -100.49,-34.84 -100.49,-105.85 0,-57.61 26.12,-122.6 63.64,-122.6 16.74,0 24.12,12.73 24.12,29.48 0,10.73 -3.35,24.79 -9.38,36.85 12.05,6.03 24.12,9.38 35.5,9.38 35.5,0 56.95,-31.49 56.95,-74.36 0,-69 -54.94,-90.45 -103.84,-90.45 -107.86,0 -178.88,104.52 -178.88,219.74 0,104.51 62.98,182.89 190.93,182.89z"/>
    <path id="14" class="fil8" d="M11627.66 5181.06c87.76,0 136.67,-60.29 164.14,-134.65 22.1,-56.95 -52.93,-86.43 -67,-42.21 -16.74,52.26 -40.86,91.78 -72.36,91.78 -17.41,0 -22.77,-14.74 -22.77,-36.85 0,-83.74 58.95,-269.31 58.95,-348.36 0,-36.18 -13.4,-55.61 -41.54,-55.61 -12.72,0 -45.55,7.37 -64.98,7.37 0,135.32 -57.62,297.44 -57.62,403.3 0,87.75 41.54,115.22 103.17,115.22z"/>
    <path id="15" class="fil8" d="M11805.87 5181.73c51.58,0 97.13,-32.82 111.87,-45.55 19.43,31.48 54.26,44.88 91.78,44.88 85.75,0 136,-64.31 164.13,-134.65 24.12,-56.95 -52.92,-86.43 -66.99,-42.21 -16.75,52.26 -40.87,91.78 -72.36,91.78 -18.09,0 -26.79,-11.4 -26.79,-35.5 0,-42.21 40.86,-152.74 40.86,-215.05 0,-36.85 -12.73,-56.28 -42.21,-56.28 -13.39,0 -51.58,6.71 -64.31,7.37 0,136 -34.17,162.79 -38.86,265.96 -10.05,9.38 -26.12,19.43 -45.55,19.43 -15.41,0 -28.81,-4.69 -28.81,-38.86 0,-59.62 32.83,-127.29 32.83,-194.95 0,-40.19 -13.4,-58.95 -42.88,-58.95 -12.72,0 -51.58,6.71 -64.31,7.37 -0.67,110.53 -37.51,204.32 -37.51,278.69 0,73.69 36.17,106.51 89.1,106.51z"/>
    <path id="16" class="fil8" d="M12238.65 5177.71c93.12,0 153.41,-67.66 153.41,-149.39 0,-86.43 -77.04,-169.49 -113.22,-249.89 -40.86,6.71 -77.04,10.72 -124.6,8.04 -4.69,67 -27.47,153.41 -47.57,217.73 -18.76,58.95 49.57,85.08 67,42.21 22.77,-62.31 35.5,-122.6 41.53,-166.15 32.83,32.16 67,97.14 67,140.69 0,40.19 -20.77,73.01 -79.72,73.01 -8.04,22.78 -21.44,67 -14.07,75.04 8.03,4.01 26.12,8.7 50.24,8.7z"/>
    <path id="17" class="fil8" d="M12511.31 4747.61c44.88,0 77.71,-35.5 77.71,-77.05 0,-24.11 -15.41,-45.55 -50.91,-45.55 -44.88,0 -76.38,37.52 -76.38,77.05 0,24.12 14.74,45.55 49.57,45.55zm6.03 433.44c86.43,0 136.67,-64.31 164.81,-134.65 24.12,-57.62 -52.93,-86.43 -67,-42.21 -16.74,51.59 -40.86,91.78 -72.35,91.78 -16.75,0 -25.47,-14.74 -25.47,-33.5 0,-52.93 42.21,-154.75 42.21,-216.39 0,-37.52 -13.4,-56.95 -41.53,-56.95 -12.73,0 -45.56,7.37 -64.99,7.37 2.68,116.57 -36.84,195.62 -36.84,279.36 0,79.72 47.57,105.18 101.15,105.18z"/>
    <path id="18" class="fil8" d="M12715.64 5181.73c126.61,0 215.04,-171.5 215.04,-308.84 0,-62.3 -14.74,-85.75 -51.58,-85.75 -12.06,0 -30.15,3.35 -50.92,10.05 0,106.52 -31.48,290.75 -88.42,290.75 -14.74,0 -20.11,-18.76 -20.11,-46.22 0,-71.69 30.82,-156.1 30.82,-206.34 0,-30.81 -15.41,-46.23 -44.88,-46.23 -18.76,0 -40.2,7.37 -54.26,7.37 0,66.32 -38.86,156.77 -38.86,245.2 0,91.77 34.84,140.01 103.17,140.01z"/>
    <path id="19" class="fil8" d="M13132.33 5181.06c121.93,0 190.93,-59.62 217.06,-134.65 17.42,-47.57 -50.91,-95.81 -67,-42.21 -21.43,65.65 -62.97,91.78 -131.3,91.78 -42.21,0 -78.38,-21.44 -89.1,-49.57 109.2,-9.38 178.87,-75.71 178.87,-164.14 0,-76.37 -56.95,-103.84 -109.87,-103.84 -105.85,0 -184.24,97.14 -184.24,232.46 0,120.59 85.76,170.17 185.57,170.17zm-72.36 -198.97c5.36,-58.95 28.14,-117.91 62.31,-117.91 14.74,0 25.46,13.39 25.46,32.82 0,36.85 -35.5,79.05 -87.76,85.09z"/>
   </g>
  </g>
 </g>
</svg>
