<?xml version="1.0" encoding="UTF-8"?>
<!DOCTYPE svg PUBLIC "-//W3C//DTD SVG 1.1//EN" "http://www.w3.org/Graphics/SVG/1.1/DTD/svg11.dtd">
<!-- Creator: CorelDRAW 2020 (64 Bit) -->
<svg xmlns="http://www.w3.org/2000/svg" xml:space="preserve" width="100.245mm" height="41.487mm" version="1.1" style="shape-rendering:geometricPrecision; text-rendering:geometricPrecision; image-rendering:optimizeQuality; fill-rule:evenodd; clip-rule:evenodd"
viewBox="0 0 10024.5 4148.7"
 xmlns:xlink="http://www.w3.org/1999/xlink"
 xmlns:xodm="http://www.corel.com/coreldraw/odm/2003">
 <defs>
  <style type="text/css">
   <![CDATA[
    .str0 {stroke:white;stroke-width:154.51;stroke-linecap:round;stroke-linejoin:round;stroke-miterlimit:22.9256}
    .fil0 {fill:none}
    .fil3 {fill:none;fill-rule:nonzero}
    .fil1 {fill:white}
    .fil2 {fill:white;fill-rule:nonzero}
   ]]>
  </style>
 </defs>
 <g id="Camada_x0020_1">
  <metadata id="CorelCorpID_0Corel-Layer"/>
  <g id="_2230029000448">
   <polygon class="fil0" points="-0,0 10024.5,0 10024.5,4148.7 -0,4148.7 "/>
   <g id="_2229438955840">
    <g>
     <path class="fil1" d="M1399.81 668.31c-55.18,111.78 -91.35,234.45 -104.35,364.06 -10.65,135.57 2.47,281.53 30.37,440.44l221.98 97.2c-41.96,-125.13 -61.88,-260.36 -64.87,-401.29 -6.19,-291.08 79.2,-472.56 242.74,-569.31l7.1 -4.13c25.69,-14.63 54.28,-24.88 84.72,-31.56l0 -0.01 0.03 0c49.36,-10.84 103.6,-12.27 158.3,-7.67 88.59,5.77 180.94,27.4 272.05,63.15 78.18,28.69 152.1,66.26 220.52,111.49 74.77,49.44 142.96,108.04 202.98,174.18 -196.19,-0.84 -375.15,47.75 -526.32,141.78 -188.22,117.07 -331.54,303.02 -409.66,549.99 47.5,9.41 94.14,25.02 141.02,47.24 11.15,5.29 22.04,10.76 32.68,16.43 63.83,-207.38 180.61,-361.8 333.49,-456.89 156.54,-97.37 352.87,-134.2 570.98,-103.68 155.09,262.48 203.82,602.67 34.62,982.03 57.91,16.39 113.92,40.05 168.56,68.5l4 1.91c74.88,-160.98 116.75,-340.42 116.75,-529.65 0,-266.96 -83.21,-514.5 -225.08,-718.08 -236.15,-338.88 -618.84,-539.4 -1032.4,-539.4 -83.26,0 -164.64,8.11 -243.38,23.55 -405.66,79.57 -741.39,354.21 -905.53,722.23 64.74,21.69 112.42,56.94 151.59,97.82 39.49,-75.08 82.15,-144.47 128.3,-207.54 21.28,-29.68 44.02,-58.2 68.13,-85.49 93.21,-107.13 199.36,-190.93 320.69,-247.29l-0.01 -0.01z"/>
     <path class="fil1" d="M1548.68 2438.88c-258.65,-122.6 -410.35,62.86 -613.79,-40.56 -41.65,-21.17 -73.67,-41.77 -98.97,-61.97 71.03,104.83 157.45,198.38 256.01,277.4 132.63,-12.72 243.27,-68.09 375.9,-0.67 185.23,94.15 179.8,176.78 241.46,265.47 55.36,7.44 111.87,11.28 169.29,11.28 49.41,0 98.14,-2.85 146.06,-8.38 -11.1,-3.76 -22.51,-8.16 -34.28,-13.29 -181.73,-79.14 -171.6,-301.25 -441.69,-429.28l0.01 0zm-350.46 -699.7c-308.48,-156.79 -88.15,-281.63 -529.55,-455.7 -17.09,59.58 -29.91,120.99 -38.09,183.84 14.48,4.44 29.49,9.98 45.11,16.78 181.73,79.14 171.6,301.26 441.69,429.28 258.65,122.6 410.36,-62.85 613.79,40.56 294.65,149.77 106.86,270.38 474.07,432.58 233.93,103.24 374.6,-60.52 589.98,33.26 15.17,6.59 29.02,14.21 41.79,22.67l2.5 1.65c41.82,-49.39 79.89,-102.02 113.8,-157.52l-3.81 -1.81c-353.46,-185.1 -444.45,33.69 -695.8,-75.75 -181.73,-79.14 -171.6,-301.26 -441.69,-429.28 -258.65,-122.6 -410.35,62.86 -613.79,-40.56zm-133.23 332.38c-286.5,-145.62 -116.88,-263.68 -444.81,-419.21 1.37,83.59 10.89,165.19 27.81,244.05 87.91,101.91 131.91,252.54 336.15,349.35 258.66,122.61 410.36,-62.84 613.79,40.56 294.65,149.77 106.86,270.39 474.07,432.59 173.42,76.53 295.58,6.33 434.92,3.1 74.42,-42.96 144.02,-93.32 207.83,-150.07 -272.43,-98.22 -368.89,67.61 -594.29,-30.53 -181.73,-79.14 -171.6,-301.26 -441.68,-429.28 -258.66,-122.61 -410.36,62.85 -613.79,-40.56z"/>
     <path class="fil2" d="M818.57 950.7c156.49,61.03 231.19,169.29 301.95,271.86 76.89,111.46 147.43,213.69 383.7,173.07l43.67 174.91c-358.87,68.07 -462.37,-81.95 -575.39,-245.78 -58.02,-84.09 -119.46,-173.16 -241.53,-214 -1.09,-0.37 83.88,-161.51 87.6,-160.06z"/>
     <circle class="fil1" cx="2462.44" cy="1762.5" r="239.9"/>
    </g>
    <path class="fil2" d="M8092.78 2233.59c-39.2,-12.29 -82.69,9.5 -95.51,50.11 -34.14,108.12 -73.79,169.76 -131.52,151.88 -53.43,-16.55 -39.32,-95.57 -26.62,-134.66l61.07 -187.88c39.79,-122.42 -27.04,-253.91 -150.3,-294.35 -72.46,-23.77 -149.74,-8.56 -208.25,32.88 -16.65,11.8 -39.61,11.66 -56.36,0 -19.28,-13.41 -40.65,-25.24 -64.2,-32.88 -39.08,-12.69 -79.91,-15.94 -117.43,-7.83 -80.52,17.39 -140.96,52.96 -171,139.56 -10.11,35.41 -8.68,90.33 -28.2,150.33 -31.52,96.94 18.57,-26.33 -14.09,70.26l-89.61 205.13c96.85,-35.71 197.05,-131.63 231.83,-238.33 24.55,-75.28 42.26,-129.85 42.9,-131.23 16.7,-36.23 59.73,-57.08 98.64,-43.85 39.38,13.39 65.5,54.41 53.23,92.38l-117.42 363.24c-13.1,40.52 9.17,85.27 48.53,97.08 7.64,2.28 15.66,3.12 23.48,3.12 32.88,0 63.34,-20.11 73.59,-51.67l61.07 -187.88c29.07,-89.45 56.52,-176.88 84.54,-263.04 14.24,-43.77 59.72,-66.46 101.77,-53.23 42.5,13.38 65.89,59.55 51.66,103.34l-61.05 187.88c-8.57,26.38 -45.43,159.73 25.05,255.21 26.58,36.02 76.72,78.28 169.1,78.28 173.78,0 230.15,-180.06 255.2,-258.34 12.52,-39.14 -9.46,-82.77 -50.1,-95.51zm-1527.7 327.98c2.5,0.89 5.02,1.77 7.56,2.59 122.12,40.71 255.21,-26.61 294.36,-148.74l100.2 -306.88c38.38,-119.72 -25.6,-248.46 -143.18,-291.82l-0.32 0.97c-2.49,-0.89 -5.02,-1.77 -7.56,-2.59 -122.12,-40.71 -255.21,26.61 -294.35,148.74l-100.2 306.88c-2.26,7.06 -4.15,14.15 -5.72,21.25 -24.91,65.06 -81.34,142.93 -170.58,163.42 -186.32,46.97 -303.74,-67.33 -280.26,-137.78l100.21 -305.32c12.53,-43.83 57.93,-65.75 101.76,-53.23 42.28,14.1 65.77,59.49 51.67,103.34 -14.09,39.14 7.84,82.98 48.54,95.51 40.71,12.52 82.98,-9.4 95.51,-48.55 40.71,-122.12 -26.62,-255.2 -148.74,-294.34 -122.13,-40.71 -255.21,26.61 -294.35,148.74l-98.27 300.97c-2.72,4.73 -4.95,9.84 -6.63,15.3 -34.45,108.03 -73.59,165.96 -131.52,151.87 -48.54,-12.52 -39.14,-95.51 -26.62,-134.65l92.37 -289.65c12.53,-39.14 -9.39,-82.98 -50.1,-95.51 -39.14,-12.52 -82.98,9.39 -95.5,50.11l-92.38 288.08c-1.57,6.26 -4.69,15.66 -7.83,29.75 0,0 0,0 0,0 -34.44,108.03 -76.71,169.1 -133.08,151.87 -50.1,-17.22 -37.58,-95.51 -25.06,-134.65l144.06 -450.92c20.34,-61.06 87.67,-93.94 147.16,-72.02 34.45,14.09 70.47,23.49 103.34,21.92 48.54,-3.13 87.68,-37.58 89.25,-84.54 3.13,-50.11 -36.01,-92.38 -84.55,-95.52 -9.39,0 -18.79,1.57 -28.19,3.14 -17.22,4.69 -34.44,3.13 -50.09,-1.57 -1.58,0 -1.58,0 -1.58,0 -51.66,-18.79 -78.27,-73.59 -62.62,-125.26l51.66 -161.26c12.54,-39.15 -9.38,-82.98 -50.09,-95.51 -39.14,-12.53 -82.99,9.39 -95.51,50.1l-28.18 86.11c-21.92,72.03 -87.68,120.56 -161.27,119 -68.89,-1.56 -139.35,20.36 -211.37,86.11 -31.32,28.18 -32.88,76.73 -4.69,108.03 28.18,31.32 76.71,32.89 108.03,4.7 6.26,-6.26 12.52,-12.52 18.78,-17.22 64.19,-46.97 150.31,17.22 126.82,92.37l-155 485.37c-1.55,4.41 -3.84,11.76 -6.26,21.35 -1.2,2.7 -2.25,5.5 -3.14,8.4 -34.44,108.03 -75.15,167.53 -131.52,151.87 -51.66,-15.66 -39.13,-95.51 -26.6,-134.65l48.53 -153.44c29.74,-90.81 64.19,-197.27 79.85,-248.94 12.52,-40.71 -9.39,-82.99 -50.11,-95.51 -39.13,-12.52 -82.97,9.4 -95.5,48.54l-169.1 519.81c-14.08,42.27 -59.49,65.76 -101.77,51.67 -20.35,-6.26 -37.57,-20.36 -46.97,-40.72 -9.4,-18.78 -10.96,-40.7 -4.7,-61.05l137.78 -422.74c14.1,-39.14 -7.82,-82.99 -48.53,-95.51 -39.14,-14.09 -82.98,7.82 -95.51,48.54l-139.34 422.74 -1.08 3.55c-0.76,1.9 -1.44,3.84 -2.06,5.84 -34.44,108.03 -81.42,165.96 -133.09,151.87 -57.93,-17.22 -37.57,-95.51 -25.05,-134.65 62.63,-194.15 64.2,-198.85 114.3,-360.1 12.52,-39.14 -9.4,-82.98 -50.1,-95.51 -20.35,-6.26 -42.27,-3.13 -61.07,6.27 -9.39,6.26 -20.35,4.69 -29.75,-1.57 -18.78,-12.53 -39.14,-23.49 -62.62,-31.31 -122.12,-40.71 -255.2,26.61 -294.35,148.74l-100.21 306.88c-39.14,122.12 28.19,253.64 150.32,294.34 23.48,7.83 48.53,10.96 72.01,10.96 56.37,0 109.6,-20.35 151.88,-56.36 28.18,31.32 76.71,64.19 158.13,64.19 75.01,0 128.34,-34.15 166.71,-79.18 26.31,27.05 59.19,47.69 96.33,60.38 23.49,7.83 48.55,10.96 72.03,10.96 56.37,0 111.16,-20.35 153.44,-56.36 28.18,31.32 76.71,64.19 158.13,64.19 66.74,0 116.31,-27.05 153.46,-64.73 28.67,32.27 77.16,64.73 158.11,64.73 67.33,0 115.86,-26.61 153.44,-64.19 28.19,31.32 76.72,64.19 158.13,64.19 78.62,0 133.22,-36.86 171.75,-84.46 32.25,37.11 73.21,66.18 116.35,81.33 57.92,18.79 115.85,28.19 172.22,28.19 70.45,0 136.22,-14.1 197.28,-43.85 38.39,-19.19 72.62,-43.77 102.21,-73.07 25.72,31.01 59.64,55.81 99.83,70.63l0.32 -0.97zm210.63 -599.93l-0.1 0.3c7.85,3.27 14.97,7.66 21.2,12.92l0.25 0.2 0.33 0.3c23.55,20.79 33.97,54.38 23.45,87.12l-11.22 34.12 0.5 -0.06 -88.74 270.35c-10.96,34.45 -42.27,56.37 -76.71,56.37 -7.84,0 -15.66,-1.58 -25.06,-3.14 -2.23,-0.74 -4.41,-1.58 -6.53,-2.5l0.1 -0.29c-7.86,-3.28 -14.97,-7.67 -21.2,-12.93l-0.26 -0.2 -0.33 -0.3c-19.9,-17.56 -30.43,-44.27 -26.86,-71.89l1.73 -5.02c1.44,-4.71 2.44,-9.45 2.98,-14.15l9.93 -30.18 -0.5 0.06 88.73 -270.35c10.96,-34.44 42.27,-56.37 76.71,-56.37 7.84,0 15.66,1.58 25.06,3.14 2.24,0.74 4.42,1.59 6.54,2.5zm-2675.42 457.74c-42.28,-14.1 -65.76,-59.5 -51.66,-101.77l100.2 -305.32c10.96,-34.44 42.28,-56.37 76.72,-56.37 7.83,0 15.65,1.58 25.05,3.14 39.14,14.1 61.06,53.23 53.23,92.38l-101.76 316.27c-14.1,42.27 -59.51,65.76 -101.78,51.67zm4635.98 -185.79c-40.69,-12.51 -82.67,9.5 -95.49,50.11 -34.14,108.12 -81.61,166.58 -133.1,151.88 -58.1,-16.6 -37.63,-95.55 -25.04,-134.66 62.55,-194.17 63.93,-198.94 114.29,-360.1 12.25,-39.22 -9.4,-82.98 -50.1,-95.51 -20.34,-6.26 -42.7,-3.92 -61.07,6.27 -9.85,5.48 -20.36,4.69 -29.74,-1.57 -18.79,-12.51 -39.16,-23.48 -62.63,-31.31 -122.12,-40.69 -254.55,26.84 -294.35,148.74l-100.21 306.88c-39.79,121.89 28.19,253.65 150.32,294.35 23.47,7.82 48.53,10.96 72.01,10.96 56.37,0 109.6,-20.36 151.88,-56.37 28.18,31.32 76.71,64.19 158.13,64.19 172.23,0 230.16,-180.05 255.21,-258.34 12.52,-39.14 -9.41,-82.98 -50.11,-95.51l0 -0.01zm-540.15 189.46c-42.27,-14.08 -65.56,-59.43 -51.67,-101.77l100.2 -305.32c11.27,-34.34 42.28,-56.36 76.72,-56.36 7.83,0 15.99,0.21 25.05,3.13 39.59,12.77 65.45,54.39 53.23,92.38l-101.76 316.28c-13.64,42.4 -59.52,65.74 -101.77,51.66zm1157.05 -189.46c-40.63,-12.74 -82.99,9.4 -95.51,50.11l-3.13 4.7c-31.32,101.77 -59.6,155.38 -103.33,144.04 -40.81,-10.57 -36.21,-64.25 -28.18,-92.37 7.61,-26.68 19.73,-69.08 29.74,-103.34 49.48,-169.27 -84.56,-234.85 -156.57,-270.86 -18.79,-9.39 -31.13,-17.45 -42.27,-26.62 -15.48,-12.74 -23.37,-36.01 -21.93,-57.93 0.11,-1.55 0,-3.14 0,-4.7 0,-3.14 0,-4.7 0,-7.82 0,0 0,0 0,0 0,-6.26 -1.09,-12.69 -3.12,-18.8 -7.36,-22.08 -25.21,-38.74 -48.54,-46.97 -3.29,-1.15 -6.26,-1.56 -7.83,-3.12 -4.7,0 -10.96,-1.58 -15.66,-1.58 -32.88,0 -62.78,20.33 -73.59,53.24l-140.9 429c-12.2,37.17 4.92,79.33 42.27,95.5 9.64,4.18 20.36,6.26 29.74,6.26 32.89,0 63.5,-20.05 73.59,-51.66l46.97 -147.17c22.13,-69.33 113.73,-88.78 159.7,-31.32 10.39,12.99 16.54,26.85 12.53,40.71 -10.09,34.7 -23.81,78.21 -31.31,104.91 -20.67,73.49 -9.58,155.14 31.31,211.36 34.25,47.1 84.53,75.38 144.05,78.28 4.68,0.22 9.39,0 14.09,0 155,0 210.62,-155.01 234.85,-252.07l1.56 -6.27c10.07,-40.36 -9.33,-83.21 -48.53,-95.51z"/>
    <path class="fil3 str0" d="M6756.33 2456.73c32.18,21.28 72.01,31.19 120.5,24.96 151.44,-19.49 246.84,-205.77 275.41,-340.86 10.45,-49.38 40.6,-236.59 41.52,-285.89"/>
    <g>
     <path class="fil2" d="M4340.99 3533.1c12.58,13.49 22.18,28.92 28.79,46.3 6.62,17.38 9.86,35.41 9.86,54.08 0,20.75 -3.89,40.2 -11.67,58.36 -7.78,18.16 -18.55,34.11 -32.29,47.86 -13.75,13.74 -29.83,24.51 -47.99,32.29 -18.16,7.78 -37.61,11.67 -58.36,11.67 -33.72,0 -61.6,-7.78 -83.78,-23.34 -22.04,-15.7 -40.33,-36.06 -54.86,-61.35 -14.52,-25.16 -26.45,-53.82 -35.79,-86.11 -9.34,-32.16 -17.9,-64.97 -25.68,-98.3 -7.26,-30.61 -15.04,-60.7 -23.08,-90.01 -8.04,-29.31 -17.9,-56.41 -29.57,-81.31 -11.67,-24.9 -25.81,-46.82 -42.41,-65.75 -16.6,-18.94 -37.35,-33.07 -62.38,-42.41 0,-0.52 -0.26,-0.78 -0.78,-0.78 -19.19,-5.71 -38.13,-10.5 -56.8,-14.39 -18.68,-3.9 -35.54,-7.14 -50.58,-9.73 -17.64,-2.6 -34.63,-4.67 -50.71,-6.23 -55.5,-6.22 -101.93,3.63 -139.41,29.57 -16.08,11.93 -28.53,25.81 -37.35,41.63 -8.82,15.82 -13.23,32.04 -13.23,48.64 0,16.08 2.59,30.86 7.78,44.35 5.19,13.49 12.45,25.29 21.79,35.39 9.34,10.12 20.23,18.03 32.68,23.74 12.45,5.7 26.2,8.56 41.24,8.56 15.04,0 27.75,-2.6 38.13,-7.79 10.37,-5.18 19.06,-11.93 26.07,-20.23 7,-8.3 12.45,-17.5 16.34,-27.62 3.89,-10.12 6.87,-19.84 8.95,-29.18 2.07,-9.34 3.37,-17.77 3.89,-25.29 0.51,-7.52 0.77,-13.1 0.77,-16.73l0 -0.78 0 -52.91c0,-8.3 3.12,-15.17 9.34,-20.62 6.23,-5.45 13.49,-7.65 21.79,-6.61 6.74,1.03 12.32,4.02 16.73,8.94 4.41,4.93 6.61,11.03 6.61,18.29l0 53.69 0 1.56c0,22.3 -2.98,44.22 -8.95,65.75 -5.96,21.53 -15.04,40.59 -27.23,57.32 -12.19,16.73 -27.62,30.35 -46.3,40.85 -18.67,10.51 -40.72,15.83 -66.14,15.83 -22.31,0 -43.06,-4.28 -62.25,-12.84 -19.19,-8.56 -35.92,-20.24 -50.19,-35.02 -14.27,-14.78 -25.42,-32.29 -33.46,-52.52 -8.04,-20.23 -12.06,-42.02 -12.06,-65.37 0,-25.42 6.48,-49.93 19.45,-73.53 12.97,-23.6 31.13,-43.7 54.47,-60.3 31.65,-22.83 69,-36.32 112.05,-40.47 19.2,-2.07 35.02,-10.24 47.47,-24.51 12.45,-14.26 18.67,-30.99 18.67,-50.19l0 -6.22c0,-12.97 -2.46,-25.16 -7.39,-36.58 -4.93,-11.41 -11.67,-21.26 -20.23,-29.56 -8.56,-8.3 -18.42,-14.79 -29.57,-19.46 -11.15,-4.67 -23.21,-7 -36.18,-7l-1.56 0c-17.64,0 -29.57,5.45 -35.79,16.34 -5.19,9.34 -4.67,18.42 1.55,27.23 5.71,9.34 16.35,13.23 31.91,11.68 7.78,-1.04 14.65,1.16 20.62,6.61 5.96,5.45 8.95,12.32 8.95,20.62 0,7.26 -2.6,13.36 -7.78,18.29 -5.19,4.93 -11.42,7.91 -18.68,8.95l-8.56 0c-31.64,0 -55.51,-11.94 -71.59,-35.8 -8.3,-12.45 -12.84,-26.2 -13.61,-41.24 -0.78,-15.04 2.46,-29.05 9.72,-42.02 7.78,-14.52 18.94,-25.68 33.46,-33.46 14.53,-7.78 31.13,-11.67 49.8,-11.67 17.12,0 31.91,-2.07 44.36,-6.22 12.45,-4.15 22.82,-8.82 31.12,-14.01 8.3,-5.19 14.4,-10.12 18.29,-14.79 3.89,-4.66 5.83,-7.26 5.83,-7.78 4.15,-6.22 9.99,-9.98 17.51,-11.28 7.52,-1.3 14.4,0.13 20.62,4.28 7.78,5.71 11.67,13.49 11.67,23.34 0,4.15 1.82,6.75 5.45,7.79 3.63,1.03 6.74,0 9.34,-3.12 15.17,-18.15 34.11,-28.79 57.06,-31.9 1.56,-0.52 3.63,-0.78 6.23,-0.78l3.11 0 1.55 0 3.12 0c56.67,1.56 101.41,18.94 134.22,52.14 15.05,15.56 26.33,33.97 33.59,55.24 7.27,21.27 10.9,44.62 10.9,70.03 0,23.87 -4.54,46.3 -13.62,67.31 -9.08,21.01 -21.92,39.55 -38.52,55.64 -11.41,11.41 -17.51,25.16 -18.28,41.24 -0.78,16.08 4.02,30.35 14.39,42.8 6.75,8.3 13.49,17.89 20.23,28.79 20.23,32.16 36.06,67.44 47.47,105.82 11.41,38.39 21.66,77.03 30.99,115.95 8.3,35.27 16.61,66.91 24.91,94.93 8.17,28.01 17.76,51.74 28.66,71.2 10.89,19.45 23.73,34.36 38.38,44.74 14.79,10.37 33.07,15.56 54.73,15.56 12.97,0 25.29,-2.59 37.22,-7.78 11.93,-5.19 22.18,-12.06 30.74,-20.62 8.43,-8.56 15.3,-18.68 20.49,-30.35 5.19,-11.67 7.78,-23.99 7.78,-36.96 0,-24.38 -8.04,-45.39 -24.12,-63.03 -4.67,-5.7 -7.13,-12.19 -7.39,-19.45 -0.26,-7.26 2.46,-13.75 8.17,-19.45 5.7,-5.71 12.32,-8.3 19.84,-7.79 7.65,0.52 14.01,3.64 19.32,9.34l0 0.01zm-488.14 -364.93c18.15,0 35.27,-3.24 51.35,-9.73 16.08,-6.48 30.09,-15.3 42.02,-26.45 11.93,-11.16 21.4,-24.13 28.4,-38.91 7.01,-14.78 10.51,-30.74 10.51,-47.86 0,-14 -1.69,-28.14 -5.06,-42.4 -3.37,-14.27 -9.86,-27.37 -19.45,-39.3 -9.6,-11.93 -22.7,-21.66 -39.3,-29.18 -16.6,-7.52 -38.13,-11.54 -64.58,-12.06 -8.82,0.52 -16.21,3.76 -22.18,9.73 -5.97,5.96 -8.95,13.35 -8.95,22.17 0,10.38 4.28,18.94 12.84,25.68 8.56,6.75 18.29,8.56 29.18,5.45 4.67,-1.56 9.08,-4.41 13.23,-8.56 5.71,-5.19 12.32,-7.65 19.84,-7.39 7.52,0.26 13.88,3.24 19.07,8.95 5.18,5.7 7.52,12.19 7,19.45 -0.52,7.26 -3.63,13.75 -9.34,19.45 -16.6,15.56 -36.57,23.35 -59.91,23.35 -19.72,0 -36.58,-5.45 -50.58,-16.34 -6.75,-4.67 -13.75,-5.19 -21.01,-1.56 -7.27,3.63 -10.9,9.86 -10.9,18.67l0 94.16c0,7.26 2.09,13.87 6.23,19.84 4.15,5.97 9.85,10.25 17.12,12.84l0.78 0 53.69 0zm358.71 -140.84c-16.08,0 -29.57,5.44 -40.46,16.34 -10.89,10.89 -16.34,24.38 -16.34,40.46 0,15.56 5.45,28.92 16.34,40.08 10.89,11.15 24.38,16.72 40.46,16.72l7.78 0c7.27,0 13.62,2.73 19.07,8.18 5.44,5.44 7.91,12.06 7.39,19.84 0,7.26 -2.85,13.49 -8.56,18.67 -5.71,5.19 -12.19,7.78 -19.45,7.78l-6.23 0c-16.08,0 -29.57,5.58 -40.46,16.73 -10.89,11.16 -16.34,24.51 -16.34,40.08 0,16.08 5.45,29.57 16.34,40.46 10.89,10.89 24.38,16.34 40.46,16.34l22.57 0c7.78,0 14.26,2.72 19.45,8.17 5.19,5.45 7.78,12.06 7.78,19.84 -0.52,7.27 -3.5,13.49 -8.95,18.68 -5.44,5.19 -11.8,7.78 -19.06,7.78l-105.83 0c-7.26,0 -13.61,-2.72 -19.06,-8.17 -5.45,-5.45 -8.17,-11.8 -8.17,-19.06l0 -336.16c0,-7.78 2.72,-14.26 8.17,-19.45 5.45,-5.19 11.8,-7.78 19.06,-7.78l105.83 0c7.26,0 13.62,2.59 19.06,7.78 5.45,5.19 8.43,11.41 8.95,18.68 0,7.26 -2.59,13.74 -7.78,19.45 -5.19,5.7 -11.67,8.56 -19.45,8.56l-22.57 0zm190.64 114.38c10.9,5.19 22.31,10.9 34.24,17.12 11.93,6.23 22.7,13.75 32.29,22.57 9.6,8.82 17.51,19.32 23.74,31.51 6.22,12.19 9.33,26.59 9.33,43.19 0,15.56 -2.85,30.22 -8.55,43.96 -5.71,13.75 -13.62,25.68 -23.74,35.8 -10.11,10.11 -21.92,18.15 -35.39,24.12 -13.49,5.96 -28.02,8.95 -43.58,8.95 -20.23,0 -39.03,-5.32 -56.41,-15.95 -17.38,-10.64 -31,-25.03 -40.85,-43.19 -4.15,-6.74 -5.06,-13.62 -2.73,-20.62 2.34,-7 6.88,-12.32 13.62,-15.95 6.74,-3.63 13.62,-4.41 20.62,-2.34 7,2.09 12.32,6.49 15.95,13.23 5.19,9.34 12.19,16.73 21.01,22.18 8.82,5.44 18.42,8.17 28.79,8.17 15.56,0 28.92,-5.58 40.08,-16.73 11.15,-11.16 16.73,-25.03 16.73,-41.63 0,-15.56 -5.97,-27.76 -17.9,-36.57 -11.93,-8.82 -28.79,-18.42 -50.58,-28.79 -10.89,-5.19 -21.92,-10.77 -33.07,-16.73 -11.15,-5.97 -21.4,-13.1 -30.74,-21.4 -9.33,-8.3 -16.99,-18.16 -22.95,-29.57 -5.97,-11.41 -8.95,-24.9 -8.95,-40.46 0,-16.09 2.85,-31.13 8.56,-45.14 5.71,-14 13.36,-26.19 22.95,-36.57 9.6,-10.37 20.88,-18.54 33.85,-24.51 12.97,-5.97 26.98,-8.95 42.02,-8.95 19.71,0 37.87,5.19 54.47,15.56 16.6,10.38 29.57,24.65 38.91,42.8 3.63,6.75 4.41,13.62 2.33,20.62 -2.07,7.01 -6.48,12.32 -13.23,15.95 -6.74,3.63 -13.61,4.41 -20.62,2.34 -7,-2.09 -12.32,-6.49 -15.95,-13.23 -10.89,-19.71 -26.2,-29.57 -45.91,-29.57 -15.04,0 -27.62,5.97 -37.74,17.9 -10.11,11.93 -15.17,26.19 -15.17,42.8 0,13.48 5.06,24.12 15.17,31.9 10.12,7.78 26.59,16.86 49.41,27.23l-0.01 0zm254.45 -174.3c18.15,0 35.27,5.19 51.35,15.56 16.09,10.38 29.96,24.52 41.63,42.41 11.68,17.9 20.88,39.17 27.63,63.81 6.74,24.64 10.11,50.97 10.11,78.98 0,28.01 -3.37,54.34 -10.11,78.98 -6.75,24.64 -15.95,45.91 -27.63,63.81 -11.67,17.89 -25.54,32.03 -41.63,42.4 -16.08,10.38 -33.2,15.57 -51.35,15.57 -18.16,0 -35.15,-5.19 -50.97,-15.57 -15.82,-10.37 -29.57,-24.51 -41.24,-42.4 -11.67,-17.9 -20.88,-39.17 -27.62,-63.81 -6.75,-24.64 -10.12,-50.97 -10.12,-78.98 0,-28.01 3.37,-54.34 10.12,-78.98 6.74,-24.64 15.95,-45.91 27.62,-63.81 11.67,-17.89 25.42,-32.03 41.24,-42.41 15.82,-10.37 32.81,-15.56 50.97,-15.56zm0 347.06c8.82,0 17.77,-3.63 26.84,-10.9 9.08,-7.26 17.25,-17.24 24.51,-29.95 7.27,-12.71 13.23,-28.02 17.9,-45.91 4.67,-17.9 7,-37.74 7,-59.53 0,-21.79 -2.33,-41.63 -7,-59.53 -4.67,-17.89 -10.63,-33.2 -17.9,-45.91 -7.26,-12.71 -15.43,-22.69 -24.51,-29.96 -9.07,-7.26 -18.02,-10.89 -26.84,-10.89 -8.82,0 -17.77,3.63 -26.85,10.89 -9.08,7.27 -17.25,17.25 -24.51,29.96 -7.26,12.71 -13.1,28.02 -17.51,45.91 -4.41,17.9 -6.61,37.74 -6.61,59.53 0,21.79 2.2,41.63 6.61,59.53 4.41,17.89 10.25,33.2 17.51,45.91 7.26,12.71 15.43,22.69 24.51,29.95 9.08,7.27 18.03,10.9 26.85,10.9zm383.61 -208.54c0,18.16 -2.85,35.14 -8.56,50.97 -5.7,15.82 -13.74,29.7 -24.12,41.63 -7.78,9.33 -12.58,19.97 -14.39,31.9 -1.82,11.93 0.12,23.08 5.83,33.46l29.57 59.14c3.63,6.74 4.41,13.61 2.33,20.62 -2.07,7 -6.22,12.32 -12.45,15.95 -3.11,2.59 -7.52,3.89 -13.22,3.89 -10.9,0 -19.2,-4.93 -24.9,-14.78l-46.69 -94.16c-6.23,-10.37 -14.79,-15.56 -25.68,-15.56l-0.78 0c-7.78,0 -14.39,2.85 -19.84,8.56 -5.45,5.7 -8.17,12.45 -8.17,20.23l0 68.48c0,7.78 -2.72,14.39 -8.17,19.84 -5.45,5.44 -12.06,7.91 -19.84,7.39 -7.27,-0.52 -13.49,-3.5 -18.68,-8.95 -5.19,-5.45 -7.78,-11.8 -7.78,-19.06l0 -335.38c0,-7.78 2.72,-14.26 8.17,-19.45 5.45,-5.19 11.8,-7.78 19.06,-7.78l71.59 0c16.08,0 31.26,3.5 45.52,10.5 14.27,7.01 26.59,16.6 36.96,28.79 10.38,12.19 18.68,26.33 24.9,42.41 6.23,16.08 9.34,33.2 9.34,51.36zm-116.72 79.37c8.3,0 16.34,-2.09 24.12,-6.23 7.79,-4.15 14.4,-9.85 19.85,-17.12 5.44,-7.26 9.85,-15.69 13.23,-25.28 3.37,-9.6 5.05,-19.85 5.05,-30.74 0,-21.79 -6.09,-40.33 -18.28,-55.64 -12.19,-15.3 -26.85,-22.95 -43.97,-22.95 -12.45,0 -22.95,4.28 -31.51,12.84 -8.56,8.56 -12.84,19.06 -12.84,31.51l0 68.48c0,12.45 4.28,23.08 12.84,31.9 8.56,8.82 19.06,13.23 31.51,13.23zm326.82 -212.43c8.3,0 15.17,2.98 20.62,8.95 5.44,5.96 7.65,13.1 6.61,21.4 -1.04,7.26 -4.15,13.09 -9.34,17.5 -5.18,4.41 -11.41,6.62 -18.67,6.62 -16.6,0 -30.48,5.57 -41.63,16.73 -11.15,11.15 -16.73,25.03 -16.73,41.63l0 250.56c0,7.78 -2.85,14.39 -8.56,19.84 -5.71,5.44 -12.19,7.91 -19.45,7.39 -7.78,-0.52 -14.14,-3.5 -19.07,-8.95 -4.93,-5.45 -7.39,-11.8 -7.39,-19.06l0 -249.78c0,-16.6 -5.71,-30.48 -17.12,-41.63 -11.41,-11.16 -25.42,-16.73 -42.02,-16.73l-0.78 0c-7.78,0 -14.39,-2.86 -19.84,-8.56 -5.44,-5.71 -7.91,-12.19 -7.39,-19.45 0.52,-7.27 3.5,-13.49 8.95,-18.68 5.45,-5.19 11.8,-7.78 19.06,-7.78l172.75 0zm859.05 329.93l0 0.77 0 98.05c0,7.78 -2.59,14.26 -7.91,19.45 -5.19,5.19 -11.8,7.78 -19.71,7.78 -7.39,0 -13.75,-2.59 -18.94,-7.78 -5.31,-5.19 -7.91,-11.67 -7.91,-19.45 0,-26.46 -7.52,-50.84 -22.56,-73.15 -15.05,-22.3 -35.02,-38.64 -59.92,-49.02 -7.26,-3.11 -14.91,-6.22 -22.95,-9.34 -8.04,-3.11 -16.47,-6.22 -25.29,-9.33 0,0 -1.56,-0.52 -4.67,-1.56 -0.52,0 -4.41,-1.04 -11.67,-3.11 -7.27,-2.09 -15.18,-4.41 -23.74,-7.01 -8.56,-2.59 -16.47,-4.92 -23.73,-7 -7.26,-2.07 -11.15,-3.11 -11.67,-3.11 -25.42,-5.71 -51.23,-9.6 -77.43,-11.67 -26.19,-2.09 -51.61,-1.04 -76.25,3.11 -24.64,4.15 -47.86,12.19 -69.64,24.12 -21.79,11.93 -40.73,28.79 -56.81,50.58 -13.49,18.16 -22.05,36.18 -25.68,54.08 -3.63,17.9 -1.81,34.63 5.45,50.19 6.74,15.04 17.77,27.62 33.07,37.74 15.3,10.11 32.81,16.21 52.52,18.29 26.46,2.07 52.01,-3.64 76.65,-17.12 24.64,-13.49 46.3,-33.72 64.97,-60.7l50.58 -91.82c5.71,-9.85 13.75,-16.86 24.12,-21.01 10.38,-4.15 21.01,-4.67 31.91,-1.55 4.15,1.03 7.13,3.5 8.95,7.39 1.81,3.89 1.68,7.91 -0.39,12.06l-68.48 122.94 -0.78 0c0,0.52 -0.13,0.78 -0.39,0.78 -0.25,0 -0.38,0.26 -0.38,0.78 -22.83,33.2 -49.29,58.62 -79.37,76.26 -30.09,17.64 -61.99,26.45 -95.71,26.45 -2.6,0 -5.32,0 -8.17,0 -2.86,0 -5.58,-0.26 -8.17,-0.77 -29.57,-2.6 -56.03,-11.68 -79.37,-27.24 -23.35,-15.56 -40.47,-35.79 -51.36,-60.69 -3.11,-7.27 -6.1,-16.34 -8.95,-27.24 -2.85,-10.89 -4.02,-23.08 -3.5,-36.57 0.52,-13.49 3.63,-28.27 9.34,-44.35 5.7,-16.08 15.56,-32.94 29.57,-50.58 20.75,-26.46 43.96,-46.82 69.64,-61.08 25.68,-14.27 51.74,-24.39 78.2,-30.35 26.46,-5.97 52.4,-8.82 77.81,-8.56 25.42,0.26 47.99,1.94 67.7,5.06 20.75,2.59 40.59,-0.78 59.53,-10.12 18.93,-9.34 33.59,-23.08 43.96,-41.24l64.59 -115.94c4.67,-7.78 6.74,-15.95 6.22,-24.51 -0.52,-8.56 -2.72,-16.21 -6.61,-22.96 -3.89,-6.74 -9.47,-12.32 -16.73,-16.73 -7.26,-4.41 -15.3,-6.61 -24.12,-6.61l-1.56 0c-16.08,0 -28.27,3.37 -36.57,10.11 -5.19,4.15 -7.78,8.56 -7.78,13.23 0,4.15 2.07,7.52 6.22,10.12 4.15,2.59 9.86,3.89 17.12,3.89 7.78,0 14.4,2.98 19.84,8.95 5.45,5.96 7.65,13.1 6.62,21.4 -1.04,7.26 -4.15,13.09 -9.34,17.5 -5.19,4.41 -11.41,6.62 -18.68,6.62 -12.45,0 -23.34,-2.09 -32.68,-6.23 -9.33,-4.15 -17.25,-9.46 -23.73,-15.95 -6.48,-6.48 -11.28,-13.75 -14.4,-21.79 -3.11,-8.04 -4.66,-16.21 -4.66,-24.51 0,-10.37 2.33,-20.36 7,-29.95 4.67,-9.6 11.41,-18.03 20.23,-25.29 18.16,-15.05 41.76,-22.57 70.81,-22.57 40.46,0 72.11,-2.59 95.06,-7.78 22.96,-5.19 34.63,-7.78 35.15,-7.78 0,0 0.26,-0.26 0.78,-0.78l0.77 0 0.78 0 0.78 0c0.65,0 1.17,-0.26 1.69,-0.78l0.77 0 0.78 0 0.78 0 1.56 0 1.55 0 0.78 0 1.56 0 0.91 0.78 0.77 0 0.78 0 1.56 0 0 0.78 0.78 0 0.77 0 0.78 0c0,0.52 0.26,0.78 0.78,0.78l0.78 0c0,0.51 0.26,0.77 0.78,0.77l0.9 0c0,0.52 0.26,0.78 0.78,0.78l0.78 0.78 0.78 0 0 0.78c0.52,0 1.04,0.26 1.55,0.78 0.52,0 0.78,0.26 0.78,0.77l0.78 0.78c0,0 0.26,0.26 0.78,0.78l0.78 0 0 0.78 0.78 0.78c0,0 0.25,0.26 0.77,0.77l0 0.78c0.65,0 0.91,0.26 0.91,0.78l0.78 0.78 0 0.78c0,0 0.26,0.26 0.78,0.78l0 0.77c0,0 0.26,0.26 0.78,0.78l0 0.78c0,0 0.26,0.26 0.77,0.78l0 0.78 0 0.77c0,0.52 0.26,0.78 0.78,0.78l0 1.56 0 1.56 0 0.77c0.52,0 0.78,0.26 0.78,0.78l0 0.78 0 1.56 -0.78 407.74zm-54.47 -249.01c0,-3.63 -1.03,-6.61 -3.11,-8.94 -2.07,-2.34 -4.54,-3.89 -7.39,-4.67 -2.85,-0.78 -5.84,-0.65 -8.95,0.39 -3.11,1.03 -5.71,3.11 -7.78,6.22l-63.03 113.61c-3.63,6.22 -5.71,12.71 -6.23,19.45 -0.51,6.75 0.39,13.23 2.73,19.45 2.33,6.23 5.7,11.81 10.11,16.73 4.41,4.93 9.99,8.69 16.73,11.29l1.56 0c7.78,3.11 15.56,4.28 23.34,3.5 7.79,-0.78 14.79,-3.37 21.01,-7.78 6.23,-4.41 11.29,-9.99 15.18,-16.73 3.89,-6.75 5.83,-14.27 5.83,-22.57l0 -129.95zm239.65 255.23c7.27,0 13.62,2.59 19.07,7.78 5.44,5.19 8.43,11.41 8.95,18.68 0,7.78 -2.6,14.39 -7.79,19.84 -5.18,5.45 -11.67,8.17 -19.45,8.17l-101.16 0c-7.26,0 -13.61,-2.72 -19.06,-8.17 -5.45,-5.45 -8.17,-11.8 -8.17,-19.06l0 -336.16c0,-7.78 2.72,-14.39 8.17,-19.84 5.45,-5.45 12.06,-7.91 19.84,-7.39 7.27,0 13.49,2.85 18.68,8.56 5.19,5.7 7.78,12.19 7.78,19.45l0 235c0,10.37 1.94,19.97 5.84,28.79 3.89,8.82 9.07,16.47 15.56,22.95 6.48,6.49 14.13,11.67 22.95,15.56 8.82,3.9 18.42,5.84 28.79,5.84zm194.53 0c7.27,0 13.62,2.59 19.07,7.78 5.44,5.19 8.43,11.41 8.95,18.68 0,7.78 -2.6,14.39 -7.79,19.84 -5.18,5.45 -11.67,8.17 -19.45,8.17l-101.16 0c-7.26,0 -13.61,-2.72 -19.06,-8.17 -5.45,-5.45 -8.17,-11.8 -8.17,-19.06l0 -336.16c0,-7.78 2.72,-14.39 8.17,-19.84 5.45,-5.45 12.06,-7.91 19.84,-7.39 7.27,0 13.49,2.85 18.68,8.56 5.19,5.7 7.78,12.19 7.78,19.45l0 235c0,10.37 1.94,19.97 5.84,28.79 3.89,8.82 9.07,16.47 15.56,22.95 6.48,6.49 14.13,11.67 22.95,15.56 8.82,3.9 18.42,5.84 28.79,5.84zm269.23 -336.14c7.27,0 13.62,2.59 19.07,7.78 5.45,5.19 8.17,11.67 8.17,19.45l0 336.16c0,7.26 -2.72,13.61 -8.17,19.06 -5.45,5.45 -11.8,8.17 -19.07,8.17 -7.26,0 -13.61,-2.72 -19.06,-8.17 -5.45,-5.45 -8.17,-11.8 -8.17,-19.06l0 -336.16c0,-7.78 2.72,-14.26 8.17,-19.45 5.45,-5.19 11.8,-7.78 19.06,-7.78zm273.12 0c7.78,-0.52 14.39,1.94 19.84,7.39 5.44,5.45 8.17,12.06 8.17,19.84l0 336.16 0 0.77 0 1.56 0 0.78c0,0.52 -0.13,0.78 -0.39,0.78 -0.26,0 -0.39,0.26 -0.39,0.77l0 1.56 0 0.78c0,0 -0.26,0.52 -0.78,1.55l0 0.78c0,0.52 -0.13,0.78 -0.39,0.78 -0.26,0 -0.39,0.26 -0.39,0.78l0 0.78 -1.55 1.55 0 0.78c-0.52,0.52 -0.78,1.04 -0.78,1.56 -0.52,0 -0.78,0.26 -0.78,0.78l-0.78 0.77c-1.03,1.04 -1.55,1.56 -1.55,1.56 0,0 -0.26,0.26 -0.78,0.78 0,0 -0.26,0.26 -0.78,0.78 0,0.52 -0.26,0.77 -0.78,0.77 0,0.52 -0.26,0.78 -0.78,0.78 -0.51,0.52 -1.03,0.78 -1.55,0.78 0,0.52 -0.26,0.78 -0.78,0.78 -0.52,0 -0.78,0.13 -0.78,0.39 0,0.26 -0.26,0.39 -0.78,0.39l-0.77 0c-0.52,0.52 -0.91,0.78 -1.17,0.78 -0.26,0 -0.65,0.25 -1.17,0.77l-0.78 0c-0.52,0 -0.78,0.13 -0.78,0.39 0,0.26 -0.25,0.39 -0.77,0.39l-1.56 0c0,0 -0.52,0.26 -1.56,0.78l-0.77 0 -2.34 0 -0.78 0 -3.11 0 -1.56 0c-0.51,-0.52 -1.29,-0.78 -2.33,-0.78l-0.78 0c0,0 -1.04,-0.52 -3.11,-1.55 0,0 -1.04,-0.52 -3.11,-1.56l-0.78 0c-1.04,-1.04 -1.56,-1.56 -1.56,-1.56 -0.52,0 -0.78,-0.26 -0.78,-0.78l-2.33 -2.33c0,0 -0.26,-0.26 -0.78,-0.78 0,0 -0.52,-0.52 -1.55,-1.55l-0.78 -0.78c0,0 -0.52,-1.04 -1.56,-3.11l-82.48 -161.86c-2.59,-4.66 -5.97,-7.78 -10.12,-9.33 -4.15,-1.56 -8.17,-1.82 -12.06,-0.78 -3.89,1.04 -7.39,3.24 -10.5,6.61 -3.11,3.37 -4.67,7.65 -4.67,12.84l0 140.07c0,7.78 -2.72,14.39 -8.17,19.84 -5.45,5.44 -12.06,7.91 -19.84,7.39 -7.27,-0.52 -13.49,-3.5 -18.68,-8.95 -5.19,-5.45 -7.78,-11.8 -7.78,-19.06l0 -335.38 0 -0.77 0 -1.56 0 -0.78 0 -1.56c0.52,-0.51 0.78,-1.03 0.78,-1.55l0 -0.78c0,-0.52 0.26,-1.04 0.78,-1.56l0 -0.77c0,-0.52 0.26,-1.04 0.77,-1.56l0 -0.78c0.52,-0.52 0.78,-1.04 0.78,-1.55l0.78 -0.78c0,-0.52 0.13,-0.78 0.39,-0.78 0.26,0 0.39,-0.26 0.39,-0.78 0,0 0.26,-0.52 0.78,-1.56 0,0 0.26,-0.25 0.78,-0.77l0.77 -0.78c0.52,0 0.78,-0.26 0.78,-0.78 0.52,0 0.78,-0.13 0.78,-0.39 0,-0.26 0.26,-0.39 0.78,-0.39 0,-0.52 0.26,-0.78 0.78,-0.78 0,-0.51 0.26,-0.77 0.77,-0.77 0.52,-0.52 1.04,-0.78 1.56,-0.78 0,-0.52 0.26,-0.78 0.78,-0.78 0,0 0.52,-0.26 1.55,-0.78 0,0 0.26,-0.26 0.78,-0.78 0,0 0.52,-0.26 1.56,-0.78l0.78 0c0.52,0 0.78,-0.12 0.78,-0.38 0,-0.26 0.25,-0.39 0.77,-0.39l1.56 0c0,0 0.26,-0.26 0.78,-0.78l1.55 0 1.56 0 1.56 0 0.77 0 1.56 0 1.56 0 0.78 0c0.51,0 1.03,0.26 1.55,0.78l0.78 0c1.04,0 1.82,0.26 2.33,0.77 1.04,0 1.82,0.26 2.34,0.78l0.78 0c0,0 0.52,0.26 1.55,0.78l0.78 0.78 0.78 0.78c0.52,0 1.04,0.26 1.56,0.78 0.51,0 0.77,0.26 0.77,0.77 0.52,0 0.78,0.13 0.78,0.39 0,0.26 0.26,0.39 0.78,0.39 0,0.52 0.26,0.78 0.78,0.78 0,0.52 0.13,0.78 0.39,0.78 0.26,0 0.39,0.26 0.39,0.78 0,0 0.26,0.26 0.77,0.77l0.78 0.78c0,0.52 0.13,0.78 0.39,0.78 0.26,0 0.39,0.26 0.39,0.78l0.78 0.78c0,0 0.26,0.52 0.78,1.55l82.48 161.08c2.07,4.66 5.32,7.78 9.72,9.33 4.41,1.56 8.56,1.95 12.46,1.17 3.89,-0.78 7.39,-2.85 10.5,-6.22 3.11,-3.38 4.67,-7.66 4.67,-12.84l0 -139.29c0,-7.26 2.59,-13.75 7.78,-19.45 5.19,-5.71 11.41,-8.56 18.68,-8.56z"/>
     <path class="fil2" d="M7223.69 3021.88c-8.82,0 -17.5,3.63 -26.06,10.89 -8.56,7.27 -16.34,17.25 -23.35,29.96 -7,12.71 -12.71,28.02 -17.12,45.91 -4.41,17.9 -6.61,37.74 -6.61,59.53 0,21.79 2.2,41.63 6.61,59.53 4.41,17.89 10.12,33.2 17.12,45.91 7.01,12.71 14.79,22.69 23.35,29.95 8.56,7.27 17.24,10.9 26.06,10.9 10.38,0 20.36,-4.41 29.96,-13.23 9.6,-8.82 18.03,-21.27 25.29,-37.35 3.11,-7.26 8.04,-12.19 14.79,-14.79 6.74,-2.59 13.74,-2.33 21,0.78 7.27,3.12 12.07,8.17 14.4,15.18 2.33,7 1.95,13.87 -1.17,20.62 -11.93,26.45 -26.84,46.94 -44.74,61.47 -17.9,14.52 -37.74,21.79 -59.53,21.79 -18.15,0 -34.88,-5.19 -50.19,-15.57 -15.3,-10.37 -28.79,-24.51 -40.46,-42.4 -11.67,-17.9 -20.75,-39.17 -27.23,-63.81 -6.49,-24.64 -9.73,-50.97 -9.73,-78.98 0,-28.01 3.24,-54.34 9.73,-78.98 6.48,-24.64 15.56,-45.91 27.23,-63.81 11.67,-17.89 25.16,-32.03 40.46,-42.41 15.31,-10.37 32.04,-15.56 50.19,-15.56 21.79,0 41.63,7.13 59.53,21.4 17.9,14.27 32.81,34.63 44.74,61.08 3.12,7.27 3.5,14.4 1.17,21.4 -2.33,7.01 -7.13,12.06 -14.4,15.18 -7.26,3.11 -14.26,3.37 -21,0.77 -6.75,-2.59 -11.68,-7.52 -14.79,-14.78 -7.26,-16.08 -15.69,-28.53 -25.29,-37.35 -9.6,-8.82 -19.58,-13.23 -29.96,-13.23zm273.89 287.12c7.27,0 13.62,2.59 19.07,7.78 5.44,5.19 8.43,11.41 8.95,18.68 0,7.78 -2.6,14.39 -7.79,19.84 -5.18,5.45 -11.67,8.17 -19.45,8.17l-101.16 0c-7.26,0 -13.61,-2.72 -19.06,-8.17 -5.45,-5.45 -8.17,-11.8 -8.17,-19.06l0 -336.16c0,-7.78 2.72,-14.39 8.17,-19.84 5.45,-5.45 12.06,-7.91 19.84,-7.39 7.27,0 13.49,2.85 18.68,8.56 5.19,5.7 7.78,12.19 7.78,19.45l0 235c0,10.37 1.94,19.97 5.84,28.79 3.89,8.82 9.07,16.47 15.56,22.95 6.48,6.49 14.13,11.67 22.95,15.56 8.82,3.9 18.42,5.84 28.79,5.84zm238.51 -336.14c7.91,0 14.53,2.59 19.72,7.78 5.31,5.19 7.91,11.67 7.91,19.45l0 168.08c0,8.3 -0.13,19.06 -0.39,32.29 -0.26,13.23 -1.56,27.24 -3.89,42.02 -2.34,14.79 -5.71,29.7 -10.12,44.74 -4.41,15.05 -11.02,28.66 -19.58,40.86 -8.56,12.19 -19.33,22.04 -32.42,29.56 -12.97,7.53 -29.05,11.29 -48.38,11.29 -19.19,0 -35.53,-3.76 -48.76,-11.29 -13.36,-7.52 -24.25,-17.37 -32.81,-29.56 -8.56,-12.2 -15.05,-25.81 -19.58,-40.86 -4.41,-15.04 -7.79,-29.95 -10.12,-44.74 -2.33,-14.78 -3.63,-28.79 -3.89,-42.02 -0.26,-13.23 -0.39,-23.99 -0.39,-32.29l0 -168.08c0,-7.78 2.72,-14.26 8.17,-19.45 5.45,-5.19 11.8,-7.78 19.06,-7.78 7.27,0 13.62,2.59 19.07,7.78 5.45,5.19 8.17,11.67 8.17,19.45l0 168.08c0,60.69 7.26,102.45 21.79,125.28 4.67,7.26 9.98,12.58 15.95,15.95 5.96,3.37 13.62,5.06 22.95,5.06 17.12,0 30.09,-7.01 38.91,-21.01 14.52,-24.38 21.79,-66.14 21.79,-125.28l0 -168.08c0,-7.78 2.59,-14.26 7.91,-19.45 5.19,-5.19 11.54,-7.78 18.93,-7.78zm178.57 168.84c10.9,5.19 22.31,10.9 34.24,17.12 11.93,6.23 22.7,13.75 32.29,22.57 9.6,8.82 17.51,19.32 23.74,31.51 6.22,12.19 9.33,26.59 9.33,43.19 0,15.56 -2.85,30.22 -8.55,43.96 -5.71,13.75 -13.62,25.68 -23.74,35.8 -10.11,10.11 -21.92,18.15 -35.39,24.12 -13.49,5.96 -28.02,8.95 -43.58,8.95 -20.23,0 -39.03,-5.32 -56.41,-15.95 -17.38,-10.64 -31,-25.03 -40.85,-43.19 -4.15,-6.74 -5.06,-13.62 -2.73,-20.62 2.34,-7 6.88,-12.32 13.62,-15.95 6.74,-3.63 13.62,-4.41 20.62,-2.34 7,2.09 12.32,6.49 15.95,13.23 5.19,9.34 12.19,16.73 21.01,22.18 8.82,5.44 18.42,8.17 28.79,8.17 15.56,0 28.92,-5.58 40.08,-16.73 11.15,-11.16 16.73,-25.03 16.73,-41.63 0,-15.56 -5.97,-27.76 -17.9,-36.57 -11.93,-8.82 -28.79,-18.42 -50.58,-28.79 -10.89,-5.19 -21.92,-10.77 -33.07,-16.73 -11.15,-5.97 -21.4,-13.1 -30.74,-21.4 -9.33,-8.3 -16.99,-18.16 -22.95,-29.57 -5.97,-11.41 -8.95,-24.9 -8.95,-40.46 0,-16.09 2.85,-31.13 8.56,-45.14 5.71,-14 13.36,-26.19 22.95,-36.57 9.6,-10.37 20.88,-18.54 33.85,-24.51 12.97,-5.97 26.98,-8.95 42.02,-8.95 19.71,0 37.87,5.19 54.47,15.56 16.6,10.38 29.57,24.65 38.91,42.8 3.63,6.75 4.41,13.62 2.33,20.62 -2.07,7.01 -6.48,12.32 -13.23,15.95 -6.74,3.63 -13.61,4.41 -20.62,2.34 -7,-2.09 -12.32,-6.49 -15.95,-13.23 -10.89,-19.71 -26.2,-29.57 -45.91,-29.57 -15.04,0 -27.62,5.97 -37.74,17.9 -10.11,11.93 -15.17,26.19 -15.17,42.8 0,13.48 5.06,24.12 15.17,31.9 10.12,7.78 26.59,16.86 49.41,27.23l-0.01 0zm175.87 -168.84c7.27,0 13.62,2.59 19.07,7.78 5.45,5.19 8.17,11.67 8.17,19.45l0 336.16c0,7.26 -2.72,13.61 -8.17,19.06 -5.45,5.45 -11.8,8.17 -19.07,8.17 -7.26,0 -13.61,-2.72 -19.06,-8.17 -5.45,-5.45 -8.17,-11.8 -8.17,-19.06l0 -336.16c0,-7.78 2.72,-14.26 8.17,-19.45 5.45,-5.19 11.8,-7.78 19.06,-7.78zm292.59 0.78c7.26,2.07 12.7,6.35 16.34,12.84 3.63,6.48 4.41,13.35 2.33,20.62l-94.15 336.93c0,0.52 -0.52,1.81 -1.56,3.89l0 0.78c-1.04,1.03 -1.56,2.07 -1.56,3.11l-0.77 0c-0.52,0.52 -0.91,1.04 -1.17,1.55 -0.26,0.52 -0.65,1.04 -1.17,1.56l0 0.78c-1.04,0.52 -2.07,1.3 -3.11,2.33l-0.78 0c-1.04,1.04 -2.07,1.82 -3.11,2.34 -1.04,0.52 -1.69,0.78 -1.95,0.78 -0.26,0 -0.9,0.25 -1.94,0.77l-0.78 0c0,0.52 -0.26,0.78 -0.78,0.78l-1.55 0c-0.52,0 -0.78,0.13 -0.78,0.39 0,0.26 -0.26,0.39 -0.78,0.39l-3.89 0 -3.89 0c-0.52,0 -1.04,-0.26 -1.56,-0.78l-2.33 0 -0.78 -0.78 -0.78 0c-0.52,-0.52 -1.04,-0.77 -1.56,-0.77 -0.51,0 -1.03,-0.26 -1.55,-0.78l-0.78 0c-1.04,-1.04 -2.07,-1.82 -3.11,-2.34 -1.04,-0.52 -2.09,-1.29 -3.11,-2.33 0,-0.52 -0.26,-0.78 -0.78,-0.78 -1.04,-1.04 -1.82,-2.07 -2.34,-3.11 -1.03,-2.09 -1.55,-3.11 -1.55,-3.11l-0.78 -0.78c-0.52,-1.04 -0.78,-1.69 -0.78,-1.95 0,-0.26 -0.26,-0.91 -0.78,-1.94l-94.15 -336.93c-2.09,-7.27 -1.3,-14.14 2.33,-20.62 3.63,-6.49 9.08,-10.77 16.34,-12.84 7.27,-2.09 14.14,-1.3 20.62,2.33 6.49,3.63 10.77,9.08 12.84,16.34l49.8 175.86c1.04,4.67 3.38,8.3 7.01,10.89 3.63,2.6 7.39,3.89 11.28,3.89 3.89,0 7.65,-1.29 11.28,-3.89 3.63,-2.59 6.23,-6.22 7.78,-10.89l49.03 -175.86c2.07,-7.26 6.35,-12.71 12.83,-16.34 6.49,-3.63 13.36,-4.41 20.63,-2.33zm168.07 53.69c-16.08,0 -29.57,5.44 -40.46,16.34 -10.89,10.89 -16.34,24.38 -16.34,40.46 0,15.56 5.45,28.92 16.34,40.08 10.89,11.15 24.38,16.72 40.46,16.72l7.78 0c7.27,0 13.62,2.73 19.07,8.18 5.44,5.44 7.91,12.06 7.39,19.84 0,7.26 -2.85,13.49 -8.56,18.67 -5.71,5.19 -12.19,7.78 -19.45,7.78l-6.23 0c-16.08,0 -29.57,5.58 -40.46,16.73 -10.89,11.16 -16.34,24.51 -16.34,40.08 0,16.08 5.45,29.57 16.34,40.46 10.89,10.89 24.38,16.34 40.46,16.34l22.57 0c7.78,0 14.26,2.72 19.45,8.17 5.19,5.45 7.78,12.06 7.78,19.84 -0.52,7.27 -3.5,13.49 -8.95,18.68 -5.44,5.19 -11.8,7.78 -19.06,7.78l-105.83 0c-7.26,0 -13.61,-2.72 -19.06,-8.17 -5.45,-5.45 -8.17,-11.8 -8.17,-19.06l0 -336.16c0,-7.78 2.72,-14.26 8.17,-19.45 5.45,-5.19 11.8,-7.78 19.06,-7.78l105.83 0c7.26,0 13.62,2.59 19.06,7.78 5.45,5.19 8.43,11.41 8.95,18.68 0,7.26 -2.59,13.74 -7.78,19.45 -5.19,5.7 -11.67,8.56 -19.45,8.56l-22.57 0z"/>
    </g>
    <g>
     <path class="fil1" d="M1548.68 2438.88c-258.65,-122.6 -410.35,62.86 -613.79,-40.56 -41.65,-21.17 -73.67,-41.77 -98.97,-61.97 71.03,104.83 157.45,198.38 256.01,277.4 132.63,-12.72 243.27,-68.09 375.9,-0.67 185.23,94.15 179.8,176.78 241.46,265.47 55.36,7.44 111.87,11.28 169.29,11.28 49.41,0 98.14,-2.85 146.06,-8.38 -11.1,-3.76 -22.51,-8.16 -34.28,-13.29 -181.73,-79.14 -171.6,-301.25 -441.69,-429.28l0.01 0zm-350.46 -699.7c-308.48,-156.79 -88.15,-281.63 -529.55,-455.7 -17.09,59.58 -29.91,120.99 -38.09,183.84 14.48,4.44 29.49,9.98 45.11,16.78 181.73,79.14 171.6,301.26 441.69,429.28 258.65,122.6 410.36,-62.85 613.79,40.56 294.65,149.77 106.86,270.38 474.07,432.58 233.93,103.24 374.6,-60.52 589.98,33.26 15.17,6.59 29.02,14.21 41.79,22.67l2.5 1.65c41.82,-49.39 79.89,-102.02 113.8,-157.52l-3.81 -1.81c-353.46,-185.1 -444.45,33.69 -695.8,-75.75 -181.73,-79.14 -171.6,-301.26 -441.69,-429.28 -258.65,-122.6 -410.35,62.86 -613.79,-40.56zm-133.23 332.38c-286.5,-145.62 -116.88,-263.68 -444.81,-419.21 1.37,83.59 10.89,165.19 27.81,244.05 87.91,101.91 131.91,252.54 336.15,349.35 258.66,122.61 410.36,-62.84 613.79,40.56 294.65,149.77 106.86,270.39 474.07,432.59 173.42,76.53 295.58,6.33 434.92,3.1 74.42,-42.96 144.02,-93.32 207.83,-150.07 -272.43,-98.22 -368.89,67.61 -594.29,-30.53 -181.73,-79.14 -171.6,-301.26 -441.68,-429.28 -258.66,-122.61 -410.36,62.85 -613.79,-40.56z"/>
     <circle class="fil1" cx="2462.44" cy="1762.5" r="239.9"/>
    </g>
    <path class="fil2" d="M4404.57 1331.46c-29.74,-86.11 -106.46,-142.47 -197.27,-150.3 -219.21,-15.66 -283.4,192.58 -364.81,454.05l-15.66 48.54c-7.82,23.48 -17.22,53.23 -26.62,87.67 -26.61,81.42 -147.17,70.46 -156.57,-17.22l-25.04 -245.81c-7.84,-70.45 4.7,-275.56 -101.78,-269.3 -65.76,4.7 -75.15,78.29 -89.24,128.39 -20.35,70.46 -40.71,142.47 -61.06,214.5 -60.12,211.3 -109.99,382.58 -158.94,514.88 -3.71,5.91 -6.66,12.43 -8.7,19.47 -1.65,5.67 -3.38,11.33 -5.15,16.96 -9.22,23.58 -18.44,45.78 -27.72,66.59 -18.18,40.78 -33.08,76.45 -45.14,107.58 -23.68,46.85 -48.7,91.27 -72.09,132.77 -3.43,6.11 5.42,-9.59 -18.71,33.6 -3.26,5.83 -6.4,11.19 -9.39,16.04 -2.33,3.77 -5.72,8.93 -10.19,15.49l-2.56 4.03c-81.58,118.04 -238,253.89 -425.47,338.25 -145.96,65.68 -309.52,98.8 -468.05,64.81 -41.66,-8.82 -82.6,17.79 -91.43,59.45 -8.83,41.67 17.79,82.61 59.45,91.44 194.03,41.6 390.31,2.82 563.4,-75.07 213.26,-95.95 393.3,-253.53 488.81,-391.65l3.21 -4.35c3.69,-5.43 8.33,-12.66 13.8,-21.51 4.66,-7.55 9.01,-14.93 13.01,-22.09 11.96,-21.41 2.52,-4.27 18.71,-32.99 55.13,-97.82 118.79,-210.81 159.35,-343.02 26.86,-70.06 52.67,-148.15 78.6,-233.71 14.21,-46.92 82.98,-39.14 89.24,9.4l57.93 573.04c4.7,39.14 37.59,68.89 75.15,68.89 3.14,0 6.27,0 7.83,0 31.32,-3.13 56.37,-25.04 65.76,-53.23 0,0 192.58,-605.91 255.21,-807.89l15.65 -48.54c79.86,-256.78 117.43,-352.28 208.25,-346.01 45.41,3.11 61.06,37.56 65.75,48.52 4.7,14.1 12.53,50.11 -20.34,81.41 -31.33,29.76 -32.89,78.3 -3.15,108.04 28.19,31.32 76.73,31.32 108.04,3.13 67.33,-64.19 89.25,-158.13 57.93,-244.25z"/>
    <path class="fil3 str0" d="M6588.27 2076.03c43.17,128.32 138.14,200.26 220.71,215.19"/>
   </g>
  </g>
 </g>
</svg>
