<?xml version="1.0" encoding="UTF-8"?>
<!DOCTYPE svg PUBLIC "-//W3C//DTD SVG 1.1//EN" "http://www.w3.org/Graphics/SVG/1.1/DTD/svg11.dtd">
<!-- Creator: CorelDRAW 2020 (64 Bit) -->
<svg xmlns="http://www.w3.org/2000/svg" xml:space="preserve" width="129.565mm" height="74.1174mm" version="1.1" style="shape-rendering:geometricPrecision; text-rendering:geometricPrecision; image-rendering:optimizeQuality; fill-rule:evenodd; clip-rule:evenodd"
viewBox="0 0 12925.39 7393.94"
 xmlns:xlink="http://www.w3.org/1999/xlink"
 xmlns:xodm="http://www.corel.com/coreldraw/odm/2003">
 <defs>
  <style type="text/css">
   <![CDATA[
    .fil0 {fill:none}
    .fil1 {fill:#2A3A63}
    .fil4 {fill:#FFA400}
    .fil5 {fill:#04B1BB;fill-rule:nonzero}
    .fil3 {fill:#2A3A63;fill-rule:nonzero}
    .fil2 {fill:url(#id0)}
   ]]>
  </style>
  <linearGradient id="id0" gradientUnits="objectBoundingBox" x1="34.0736%" y1="99.6028%" x2="65.9261%" y2="0.397201%">
   <stop offset="0" style="stop-opacity:1; stop-color:#00BFBA"/>
   <stop offset="1" style="stop-opacity:1; stop-color:#1678BF"/>
  </linearGradient>
 </defs>
 <g id="Camada_x0020_1">
  <metadata id="CorelCorpID_0Corel-Layer"/>
  <polygon class="fil0" points="-0,0 12925.39,0 12925.39,7393.94 -0,7393.94 "/>
  <g id="_2230628419920">
   <g>
    <path class="fil1" d="M2858.93 2294.31c-55.05,111.51 -91.13,233.89 -104.1,363.19 -10.62,135.24 2.46,280.85 30.3,439.38l221.45 96.97c-41.86,-124.83 -61.73,-259.73 -64.71,-400.33 -6.18,-290.38 79.01,-471.43 242.16,-567.94l7.08 -4.12c25.63,-14.59 54.15,-24.82 84.52,-31.48l0 -0.01 0.03 0c49.24,-10.81 103.35,-12.24 157.92,-7.65 88.38,5.76 180.51,27.33 271.4,63 77.99,28.62 151.73,66.1 219.99,111.22 74.59,49.32 142.62,107.78 202.49,173.76 -195.72,-0.84 -374.25,47.64 -525.06,141.44 -187.77,116.79 -330.74,302.29 -408.68,548.67 47.39,9.39 93.91,24.96 140.68,47.13 11.12,5.28 21.99,10.73 32.6,16.39 63.68,-206.88 180.18,-360.93 332.69,-455.79 156.16,-97.14 352.02,-133.88 569.61,-103.43 154.72,261.85 203.33,601.22 34.54,979.67 57.77,16.35 113.65,39.95 168.16,68.34l3.99 1.91c74.7,-160.59 116.47,-339.6 116.47,-528.38 0,-266.32 -83.01,-513.26 -224.54,-716.36 -235.58,-338.07 -617.35,-538.1 -1029.92,-538.1 -83.06,0 -164.24,8.09 -242.8,23.49 -404.69,79.38 -739.61,353.36 -903.36,720.5 64.58,21.64 112.15,56.8 151.23,97.59 39.4,-74.9 81.95,-144.12 127.99,-207.04 21.23,-29.61 43.91,-58.06 67.97,-85.28 92.99,-106.87 198.88,-190.47 319.92,-246.7z"/>
    <path class="fil2" d="M3007.44 4060.62c-258.03,-122.31 -409.36,62.71 -612.32,-40.46 -41.55,-21.12 -73.49,-41.67 -98.73,-61.82 70.86,104.58 157.07,197.9 255.4,276.73 132.31,-12.69 242.69,-67.93 375,-0.67 184.79,93.92 179.37,176.36 240.88,264.83 55.23,7.42 111.6,11.25 168.88,11.25 49.29,0 97.9,-2.84 145.71,-8.36 -11.07,-3.75 -22.46,-8.14 -34.2,-13.26 -181.29,-78.95 -171.19,-300.53 -440.63,-428.25zm-349.62 -698.02c-307.74,-156.41 -87.94,-280.95 -528.28,-454.61 -17.05,59.44 -29.84,120.7 -38,183.4 14.45,4.43 29.42,9.96 45,16.74 181.29,78.95 171.19,300.54 440.63,428.25 258.03,122.31 409.37,-62.7 612.32,40.46 293.94,149.41 106.6,269.73 472.93,431.54 233.37,102.99 373.7,-60.37 588.56,33.18 15.13,6.57 28.95,14.18 41.69,22.62l2.49 1.65c41.72,-49.27 79.7,-101.78 113.53,-157.14l-3.8 -1.81c-352.61,-184.66 -443.38,33.61 -694.13,-75.57 -181.29,-78.95 -171.19,-300.54 -440.63,-428.25 -258.03,-122.31 -409.36,62.71 -612.32,-40.46zm-132.91 331.59c-285.81,-145.27 -116.6,-263.05 -443.74,-418.2 1.37,83.39 10.86,164.79 27.74,243.46 87.7,101.67 131.59,251.93 335.34,348.51 258.04,122.32 409.37,-62.69 612.32,40.46 293.94,149.41 106.6,269.74 472.93,431.55 173,76.35 294.87,6.31 433.88,3.09 74.24,-42.86 143.67,-93.1 207.33,-149.71 -271.78,-97.98 -368,67.45 -592.86,-30.46 -181.29,-78.95 -171.19,-300.54 -440.62,-428.25 -258.04,-122.32 -409.37,62.7 -612.32,-40.46z"/>
    <path class="fil3" d="M2279.08 2576.02c156.11,60.88 230.63,168.88 301.22,271.21 76.71,111.19 147.08,213.18 382.78,172.65l43.57 174.49c-358.01,67.91 -461.26,-81.75 -574.01,-245.19 -57.88,-83.89 -119.17,-172.74 -240.95,-213.49 -1.09,-0.37 83.68,-161.12 87.39,-159.68z"/>
    <circle class="fil4" cx="3919.01" cy="3385.87" r="239.33"/>
   </g>
   <path class="fil3" d="M9535.83 3855.83c-39.11,-12.26 -82.49,9.48 -95.28,49.99 -34.06,107.86 -73.61,169.35 -131.2,151.52 -53.3,-16.51 -39.23,-95.34 -26.56,-134.34l60.92 -187.43c39.69,-122.13 -26.98,-253.3 -149.94,-293.64 -72.29,-23.71 -149.38,-8.54 -207.75,32.8 -16.61,11.77 -39.51,11.63 -56.22,0 -19.23,-13.38 -40.55,-25.18 -64.05,-32.8 -38.99,-12.66 -79.72,-15.9 -117.15,-7.81 -80.33,17.35 -140.62,52.83 -170.59,139.22 -10.09,35.32 -8.66,90.11 -28.13,149.97 -31.44,96.71 18.53,-26.27 -14.06,70.09l-89.39 204.64c96.62,-35.62 196.58,-131.31 231.27,-237.76 24.49,-75.1 42.16,-129.54 42.8,-130.91 16.66,-36.14 59.59,-56.94 98.4,-43.74 39.29,13.36 65.34,54.28 53.1,92.16l-117.14 362.37c-13.07,40.42 9.15,85.07 48.41,96.85 7.62,2.27 15.62,3.11 23.42,3.11 32.8,0 63.19,-20.06 73.41,-51.55l60.92 -187.43c29,-89.24 56.38,-176.46 84.34,-262.41 14.21,-43.66 59.58,-66.3 101.53,-53.1 42.4,13.35 65.73,59.41 51.54,103.09l-60.9 187.43c-8.55,26.32 -45.32,159.35 24.99,254.6 26.52,35.93 76.54,78.09 168.69,78.09 173.36,0 229.6,-179.63 254.59,-257.72 12.49,-39.05 -9.44,-82.57 -49.98,-95.28zm-1524.03 327.19c2.49,0.89 5.01,1.77 7.54,2.58 121.83,40.61 254.6,-26.55 293.65,-148.38l99.96 -306.14c38.29,-119.43 -25.54,-247.86 -142.84,-291.12l-0.32 0.97c-2.48,-0.89 -5.01,-1.77 -7.54,-2.58 -121.83,-40.61 -254.6,26.55 -293.64,148.38l-99.96 306.14c-2.25,7.04 -4.14,14.12 -5.71,21.2 -24.85,64.9 -81.14,142.59 -170.17,163.03 -185.87,46.86 -303.01,-67.17 -279.59,-137.45l99.97 -304.59c12.5,-43.72 57.79,-65.59 101.52,-53.1 42.18,14.07 65.61,59.35 51.55,103.09 -14.06,39.05 7.82,82.78 48.42,95.28 40.61,12.49 82.78,-9.38 95.28,-48.43 40.61,-121.83 -26.56,-254.59 -148.38,-293.63 -121.84,-40.61 -254.6,26.55 -293.64,148.38l-98.03 300.25c-2.71,4.72 -4.94,9.82 -6.61,15.26 -34.37,107.77 -73.41,165.56 -131.2,151.51 -48.42,-12.49 -39.05,-95.28 -26.56,-134.33l92.15 -288.95c12.5,-39.05 -9.37,-82.78 -49.98,-95.28 -39.05,-12.49 -82.78,9.37 -95.27,49.99l-92.16 287.39c-1.57,6.24 -4.68,15.62 -7.81,29.68 0,0 0,0 0,0 -34.36,107.77 -76.53,168.69 -132.76,151.51 -49.98,-17.18 -37.49,-95.28 -25,-134.33l143.71 -449.84c20.29,-60.91 87.46,-93.71 146.81,-71.85 34.37,14.06 70.3,23.43 103.09,21.87 48.42,-3.12 87.47,-37.49 89.04,-84.34 3.12,-49.99 -35.92,-92.16 -84.35,-95.29 -9.37,0 -18.74,1.57 -28.12,3.13 -17.18,4.68 -34.36,3.12 -49.97,-1.57 -1.58,0 -1.58,0 -1.58,0 -51.54,-18.74 -78.08,-73.41 -62.47,-124.96l51.54 -160.87c12.51,-39.06 -9.36,-82.78 -49.97,-95.28 -39.05,-12.5 -82.79,9.37 -95.28,49.98l-28.11 85.9c-21.87,71.86 -87.47,120.27 -160.88,118.71 -68.72,-1.56 -139.02,20.31 -210.86,85.9 -31.24,28.11 -32.8,76.55 -4.68,107.77 28.11,31.24 76.53,32.81 107.77,4.69 6.24,-6.24 12.49,-12.49 18.73,-17.18 64.04,-46.86 149.95,17.18 126.52,92.15l-154.63 484.2c-1.55,4.4 -3.83,11.73 -6.24,21.3 -1.2,2.69 -2.24,5.49 -3.13,8.38 -34.36,107.77 -74.97,167.13 -131.2,151.51 -51.54,-15.62 -39.04,-95.28 -26.54,-134.33l48.41 -153.07c29.67,-90.59 64.04,-196.8 79.66,-248.34 12.49,-40.61 -9.37,-82.79 -49.99,-95.28 -39.04,-12.49 -82.77,9.38 -95.27,48.42l-168.69 518.56c-14.05,42.17 -59.35,65.6 -101.53,51.55 -20.3,-6.24 -37.48,-20.31 -46.86,-40.62 -9.38,-18.73 -10.93,-40.6 -4.69,-60.9l137.45 -421.72c14.07,-39.05 -7.8,-82.79 -48.41,-95.28 -39.05,-14.06 -82.78,7.8 -95.28,48.42l-139.01 421.72 -1.08 3.54c-0.76,1.9 -1.44,3.83 -2.06,5.83 -34.36,107.77 -81.22,165.56 -132.77,151.51 -57.79,-17.18 -37.48,-95.28 -24.99,-134.33 62.48,-193.68 64.05,-198.37 114.03,-359.24 12.49,-39.05 -9.38,-82.78 -49.98,-95.28 -20.3,-6.24 -42.17,-3.12 -60.92,6.25 -9.37,6.24 -20.3,4.68 -29.68,-1.57 -18.73,-12.5 -39.05,-23.43 -62.47,-31.23 -121.83,-40.61 -254.59,26.55 -293.64,148.38l-99.97 306.14c-39.05,121.83 28.12,253.03 149.96,293.63 23.42,7.81 48.41,10.93 71.84,10.93 56.23,0 109.34,-20.3 151.52,-56.22 28.11,31.24 76.53,64.04 157.75,64.04 74.83,0 128.03,-34.07 166.31,-78.99 26.25,26.99 59.05,47.58 96.1,60.24 23.43,7.81 48.43,10.93 71.86,10.93 56.23,0 110.89,-20.3 153.07,-56.22 28.11,31.24 76.53,64.04 157.75,64.04 66.58,0 116.03,-26.99 153.09,-64.57 28.6,32.19 76.97,64.57 157.73,64.57 67.17,0 115.58,-26.55 153.07,-64.04 28.12,31.24 76.54,64.04 157.75,64.04 78.43,0 132.9,-36.77 171.34,-84.26 32.17,37.02 73.03,66.02 116.07,81.13 57.78,18.74 115.57,28.12 171.81,28.12 70.28,0 135.89,-14.07 196.81,-43.74 38.3,-19.14 72.45,-43.66 101.96,-72.89 25.66,30.94 59.5,55.68 99.59,70.46l0.32 -0.97zm210.12 -598.49l-0.1 0.3c7.83,3.26 14.93,7.64 21.15,12.89l0.25 0.2 0.33 0.3c23.49,20.74 33.89,54.25 23.39,86.91l-11.19 34.04 0.5 -0.06 -88.53 269.7c-10.93,34.37 -42.17,56.23 -76.53,56.23 -7.82,0 -15.62,-1.58 -25,-3.13 -2.22,-0.74 -4.4,-1.58 -6.51,-2.49l0.1 -0.29c-7.84,-3.27 -14.93,-7.65 -21.15,-12.9l-0.26 -0.2 -0.33 -0.3c-19.85,-17.52 -30.36,-44.16 -26.8,-71.72l1.73 -5.01c1.44,-4.7 2.43,-9.43 2.97,-14.12l9.91 -30.11 -0.5 0.06 88.52 -269.7c10.93,-34.36 42.17,-56.23 76.53,-56.23 7.82,0 15.62,1.58 25,3.13 2.23,0.74 4.41,1.59 6.52,2.49zm-2669 456.64c-42.18,-14.07 -65.6,-59.36 -51.54,-101.53l99.96 -304.59c10.93,-34.36 42.18,-56.23 76.54,-56.23 7.81,0 15.61,1.58 24.99,3.13 39.05,14.07 60.91,53.1 53.1,92.16l-101.52 315.51c-14.07,42.17 -59.37,65.6 -101.54,51.55zm4624.85 -185.34c-40.59,-12.48 -82.47,9.48 -95.26,49.99 -34.06,107.86 -81.41,166.18 -132.78,151.52 -57.96,-16.56 -37.54,-95.32 -24.98,-134.34 62.4,-193.7 63.78,-198.46 114.02,-359.24 12.22,-39.13 -9.38,-82.78 -49.98,-95.28 -20.29,-6.24 -42.6,-3.91 -60.92,6.25 -9.83,5.47 -20.31,4.68 -29.67,-1.57 -18.74,-12.48 -39.07,-23.42 -62.48,-31.23 -121.83,-40.59 -253.94,26.78 -293.64,148.38l-99.97 306.14c-39.69,121.6 28.12,253.04 149.96,293.64 23.41,7.8 48.41,10.93 71.84,10.93 56.23,0 109.34,-20.31 151.52,-56.23 28.11,31.24 76.53,64.04 157.75,64.04 171.82,0 229.61,-179.62 254.6,-257.72 12.49,-39.05 -9.39,-82.78 -49.99,-95.28zm-538.85 189c-42.17,-14.05 -65.4,-59.29 -51.55,-101.53l99.96 -304.59c11.24,-34.26 42.18,-56.22 76.54,-56.22 7.81,0 15.95,0.21 24.99,3.12 39.49,12.74 65.29,54.26 53.1,92.16l-101.52 315.52c-13.61,42.3 -59.38,65.58 -101.53,51.54zm1154.27 -189c-40.53,-12.71 -82.79,9.38 -95.28,49.99l-3.12 4.69c-31.24,101.53 -59.46,155.01 -103.08,143.69 -40.71,-10.54 -36.12,-64.1 -28.11,-92.15 7.59,-26.62 19.68,-68.91 29.67,-103.09 49.36,-168.86 -84.36,-234.29 -156.19,-270.21 -18.74,-9.37 -31.06,-17.41 -42.17,-26.56 -15.44,-12.71 -23.31,-35.92 -21.88,-57.79 0.11,-1.55 0,-3.13 0,-4.69 0,-3.13 0,-4.69 0,-7.8 0,0 0,0 0,0 0,-6.24 -1.09,-12.66 -3.11,-18.75 -7.34,-22.03 -25.15,-38.65 -48.42,-46.86 -3.28,-1.15 -6.24,-1.56 -7.81,-3.11 -4.69,0 -10.93,-1.58 -15.62,-1.58 -32.8,0 -62.63,20.28 -73.41,53.11l-140.56 427.97c-12.17,37.08 4.91,79.14 42.17,95.27 9.62,4.17 20.31,6.24 29.67,6.24 32.81,0 63.35,-20 73.41,-51.54l46.86 -146.82c22.08,-69.16 113.46,-88.57 159.32,-31.24 10.37,12.96 16.5,26.79 12.5,40.61 -10.07,34.62 -23.75,78.02 -31.23,104.66 -20.62,73.31 -9.56,154.77 31.23,210.85 34.17,46.99 84.33,75.2 143.7,78.09 4.67,0.22 9.37,0 14.06,0 154.63,0 210.11,-154.64 234.29,-251.46l1.56 -6.25c10.05,-40.26 -9.31,-83.01 -48.41,-95.28z"/>
   <path class="fil3" d="M8160.14 4142.55c-35.41,-23.43 -45.11,-71.16 -21.68,-106.57 23.43,-35.41 71.16,-45.11 106.57,-21.68 8.61,5.7 18.12,9.8 28.52,11.95 11.58,2.39 24.76,2.81 39.6,0.91 44.01,-5.66 83.15,-35.4 115.5,-75.46 47.96,-59.36 79.77,-138.54 93.62,-204.07l0.06 -0.29c5.64,-26.95 17.66,-98 27.11,-163.2 6.95,-47.89 12.44,-90.88 12.74,-107.27 0.66,-42.39 35.58,-76.22 77.97,-75.56 42.39,0.66 76.22,35.58 75.56,77.97 -0.47,25.6 -6.43,74.88 -13.94,126.53 -9.91,68.3 -22.76,143.93 -28.99,173.42 -18.2,85.55 -60.31,189.58 -124.33,268.79 -55.36,68.52 -127.39,120.06 -216.04,131.46 -32.21,4.13 -62.06,2.97 -89.58,-2.72 -30.86,-6.39 -58.37,-18.12 -82.71,-34.22z"/>
   <g>
    <path class="fil5" d="M5793.05 5152.22c12.55,13.46 22.13,28.85 28.72,46.19 6.6,17.34 9.84,35.32 9.84,53.95 0,20.7 -3.88,40.1 -11.64,58.22 -7.76,18.12 -18.51,34.03 -32.21,47.75 -13.72,13.71 -29.76,24.45 -47.87,32.21 -18.12,7.76 -37.52,11.64 -58.22,11.64 -33.64,0 -61.45,-7.76 -83.58,-23.28 -21.99,-15.66 -40.23,-35.97 -54.73,-61.2 -14.49,-25.1 -26.39,-53.69 -35.7,-85.9 -9.32,-32.08 -17.86,-64.81 -25.62,-98.06 -7.24,-30.54 -15,-60.55 -23.02,-89.79 -8.02,-29.24 -17.86,-56.27 -29.5,-81.11 -11.64,-24.84 -25.75,-46.71 -42.31,-65.59 -16.56,-18.89 -37.26,-32.99 -62.23,-42.31 0,-0.52 -0.26,-0.78 -0.78,-0.78 -19.14,-5.7 -38.04,-10.47 -56.66,-14.36 -18.64,-3.89 -35.45,-7.12 -50.46,-9.71 -17.6,-2.59 -34.55,-4.66 -50.59,-6.22 -55.37,-6.21 -101.69,3.62 -139.08,29.5 -16.04,11.9 -28.46,25.75 -37.26,41.53 -8.8,15.78 -13.2,31.96 -13.2,48.52 0,16.04 2.58,30.79 7.76,44.24 5.18,13.46 12.42,25.23 21.74,35.31 9.32,10.1 20.18,17.99 32.6,23.68 12.42,5.69 26.14,8.54 41.14,8.54 15,0 27.68,-2.59 38.04,-7.77 10.35,-5.17 19.01,-11.9 26.01,-20.18 6.98,-8.28 12.42,-17.46 16.3,-27.55 3.88,-10.1 6.85,-19.79 8.93,-29.11 2.07,-9.32 3.36,-17.73 3.88,-25.23 0.51,-7.5 0.77,-13.07 0.77,-16.69l0 -0.78 0 -52.78c0,-8.28 3.11,-15.13 9.32,-20.57 6.22,-5.44 13.46,-7.63 21.74,-6.59 6.72,1.03 12.29,4.01 16.69,8.92 4.4,4.92 6.59,11 6.59,18.25l0 53.56 0 1.56c0,22.25 -2.97,44.11 -8.93,65.59 -5.95,21.48 -15,40.49 -27.16,57.18 -12.16,16.69 -27.55,30.28 -46.19,40.75 -18.63,10.48 -40.62,15.79 -65.98,15.79 -22.26,0 -42.96,-4.27 -62.1,-12.81 -19.14,-8.54 -35.83,-20.19 -50.07,-34.94 -14.24,-14.74 -25.36,-32.21 -33.38,-52.39 -8.02,-20.18 -12.03,-41.92 -12.03,-65.21 0,-25.36 6.46,-49.81 19.4,-73.35 12.94,-23.54 31.06,-43.6 54.34,-60.16 31.57,-22.78 68.83,-36.23 111.78,-40.37 19.15,-2.07 34.94,-10.22 47.36,-24.45 12.42,-14.23 18.63,-30.92 18.63,-50.07l0 -6.21c0,-12.94 -2.45,-25.1 -7.37,-36.49 -4.92,-11.38 -11.64,-21.21 -20.18,-29.49 -8.54,-8.28 -18.38,-14.75 -29.5,-19.41 -11.12,-4.66 -23.15,-6.98 -36.09,-6.98l-1.56 0c-17.6,0 -29.5,5.44 -35.7,16.3 -5.18,9.32 -4.66,18.38 1.55,27.16 5.7,9.32 16.31,13.2 31.83,11.65 7.76,-1.04 14.61,1.16 20.57,6.59 5.95,5.44 8.93,12.29 8.93,20.57 0,7.24 -2.59,13.33 -7.76,18.25 -5.18,4.92 -11.39,7.89 -18.64,8.93l-8.54 0c-31.56,0 -55.38,-11.91 -71.42,-35.71 -8.28,-12.42 -12.81,-26.14 -13.58,-41.14 -0.78,-15 2.45,-28.98 9.7,-41.92 7.76,-14.49 18.89,-25.62 33.38,-33.38 14.5,-7.76 31.06,-11.64 49.68,-11.64 17.08,0 31.83,-2.07 44.25,-6.21 12.42,-4.14 22.77,-8.8 31.05,-13.98 8.28,-5.18 14.37,-10.1 18.25,-14.75 3.88,-4.65 5.82,-7.24 5.82,-7.76 4.14,-6.21 9.97,-9.96 17.47,-11.25 7.5,-1.3 14.37,0.13 20.57,4.27 7.76,5.7 11.64,13.46 11.64,23.28 0,4.14 1.82,6.73 5.44,7.77 3.62,1.03 6.72,0 9.32,-3.11 15.13,-18.11 34.03,-28.72 56.92,-31.82 1.56,-0.52 3.62,-0.78 6.22,-0.78l3.1 0 1.55 0 3.11 0c56.53,1.56 101.17,18.89 133.9,52.01 15.01,15.52 26.27,33.89 33.51,55.11 7.25,21.22 10.87,44.51 10.87,69.86 0,23.81 -4.53,46.19 -13.59,67.15 -9.06,20.96 -21.87,39.46 -38.43,55.51 -11.38,11.38 -17.47,25.1 -18.24,41.14 -0.78,16.04 4.01,30.28 14.36,42.7 6.73,8.28 13.46,17.85 20.18,28.72 20.18,32.08 35.97,67.28 47.36,105.57 11.38,38.3 21.61,76.85 30.92,115.67 8.28,35.19 16.57,66.75 24.85,94.7 8.15,27.94 17.72,51.62 28.59,71.03 10.86,19.4 23.67,34.28 38.29,44.63 14.75,10.35 32.99,15.52 54.6,15.52 12.94,0 25.23,-2.58 37.13,-7.76 11.9,-5.18 22.13,-12.03 30.67,-20.57 8.41,-8.54 15.26,-18.64 20.44,-30.28 5.18,-11.64 7.76,-23.93 7.76,-36.87 0,-24.32 -8.02,-45.28 -24.06,-62.88 -4.66,-5.69 -7.11,-12.16 -7.37,-19.4 -0.26,-7.24 2.45,-13.72 8.15,-19.4 5.69,-5.7 12.29,-8.28 19.79,-7.77 7.63,0.52 13.98,3.63 19.27,9.32zm-486.97 -364.06c18.11,0 35.19,-3.23 51.23,-9.71 16.04,-6.46 30.02,-15.26 41.92,-26.39 11.9,-11.13 21.35,-24.07 28.33,-38.82 6.99,-14.74 10.48,-30.67 10.48,-47.75 0,-13.97 -1.69,-28.07 -5.05,-42.3 -3.36,-14.24 -9.84,-27.3 -19.4,-39.21 -9.58,-11.9 -22.65,-21.61 -39.21,-29.11 -16.56,-7.5 -38.04,-11.51 -64.42,-12.03 -8.8,0.52 -16.17,3.75 -22.13,9.71 -5.96,5.95 -8.93,13.32 -8.93,22.12 0,10.36 4.27,18.89 12.81,25.62 8.54,6.73 18.25,8.54 29.11,5.44 4.66,-1.56 9.06,-4.4 13.2,-8.54 5.7,-5.18 12.29,-7.63 19.79,-7.37 7.5,0.26 13.85,3.23 19.02,8.93 5.17,5.69 7.5,12.16 6.98,19.4 -0.52,7.24 -3.62,13.72 -9.32,19.4 -16.56,15.52 -36.48,23.29 -59.77,23.29 -19.67,0 -36.49,-5.44 -50.46,-16.3 -6.73,-4.66 -13.72,-5.18 -20.96,-1.56 -7.25,3.62 -10.87,9.84 -10.87,18.63l0 93.93c0,7.24 2.08,13.84 6.22,19.79 4.14,5.96 9.83,10.23 17.08,12.81l0.78 0 53.56 0zm357.85 -140.5c-16.04,0 -29.5,5.43 -40.36,16.3 -10.86,10.86 -16.3,24.32 -16.3,40.36 0,15.52 5.44,28.85 16.3,39.98 10.86,11.12 24.32,16.68 40.36,16.68l7.76 0c7.25,0 13.59,2.72 19.02,8.16 5.43,5.43 7.89,12.03 7.37,19.79 0,7.24 -2.84,13.46 -8.54,18.63 -5.7,5.18 -12.16,7.76 -19.4,7.76l-6.22 0c-16.04,0 -29.5,5.57 -40.36,16.69 -10.86,11.13 -16.3,24.45 -16.3,39.98 0,16.04 5.44,29.5 16.3,40.36 10.86,10.86 24.32,16.3 40.36,16.3l22.52 0c7.76,0 14.23,2.71 19.4,8.15 5.18,5.44 7.76,12.03 7.76,19.79 -0.52,7.25 -3.49,13.46 -8.93,18.64 -5.43,5.18 -11.77,7.76 -19.01,7.76l-105.58 0c-7.24,0 -13.58,-2.71 -19.01,-8.15 -5.44,-5.44 -8.15,-11.77 -8.15,-19.01l0 -335.35c0,-7.76 2.71,-14.23 8.15,-19.4 5.44,-5.18 11.77,-7.76 19.01,-7.76l105.58 0c7.24,0 13.59,2.58 19.01,7.76 5.44,5.18 8.41,11.38 8.93,18.64 0,7.24 -2.58,13.71 -7.76,19.4 -5.18,5.69 -11.64,8.54 -19.4,8.54l-22.52 0zm190.18 114.11c10.87,5.18 22.26,10.87 34.16,17.08 11.9,6.22 22.65,13.72 32.21,22.52 9.58,8.8 17.47,19.27 23.68,31.43 6.21,12.16 9.31,26.53 9.31,43.09 0,15.52 -2.84,30.15 -8.53,43.85 -5.7,13.72 -13.59,25.62 -23.68,35.71 -10.09,10.09 -21.87,18.11 -35.31,24.06 -13.46,5.95 -27.95,8.93 -43.48,8.93 -20.18,0 -38.94,-5.31 -56.27,-15.91 -17.34,-10.61 -30.93,-24.97 -40.75,-43.09 -4.14,-6.72 -5.05,-13.59 -2.72,-20.57 2.33,-6.98 6.86,-12.29 13.59,-15.91 6.72,-3.62 13.59,-4.4 20.57,-2.33 6.98,2.08 12.29,6.47 15.91,13.2 5.18,9.32 12.16,16.69 20.96,22.13 8.8,5.43 18.38,8.15 28.72,8.15 15.52,0 28.85,-5.57 39.98,-16.69 11.12,-11.13 16.69,-24.97 16.69,-41.53 0,-15.52 -5.96,-27.69 -17.86,-36.48 -11.9,-8.8 -28.72,-18.38 -50.46,-28.72 -10.86,-5.18 -21.87,-10.74 -32.99,-16.69 -11.12,-5.96 -21.35,-13.07 -30.67,-21.35 -9.31,-8.28 -16.95,-18.12 -22.89,-29.5 -5.96,-11.38 -8.93,-24.84 -8.93,-40.36 0,-16.05 2.84,-31.06 8.54,-45.03 5.7,-13.97 13.33,-26.13 22.89,-36.48 9.58,-10.35 20.83,-18.5 33.77,-24.45 12.94,-5.96 26.92,-8.93 41.92,-8.93 19.66,0 37.78,5.18 54.34,15.52 16.56,10.36 29.5,24.59 38.82,42.7 3.62,6.73 4.4,13.59 2.32,20.57 -2.07,6.99 -6.46,12.29 -13.2,15.91 -6.72,3.62 -13.58,4.4 -20.57,2.33 -6.98,-2.08 -12.29,-6.47 -15.91,-13.2 -10.86,-19.66 -26.14,-29.5 -45.8,-29.5 -15,0 -27.55,5.96 -37.65,17.86 -10.09,11.9 -15.13,26.13 -15.13,42.7 0,13.45 5.05,24.06 15.13,31.82 10.1,7.76 26.53,16.82 49.29,27.16zm253.84 -173.88c18.11,0 35.19,5.18 51.23,15.52 16.05,10.36 29.89,24.46 41.53,42.31 11.65,17.86 20.83,39.08 27.56,63.66 6.72,24.58 10.09,50.85 10.09,78.79 0,27.94 -3.36,54.21 -10.09,78.79 -6.73,24.58 -15.91,45.8 -27.56,63.66 -11.64,17.85 -25.48,31.95 -41.53,42.3 -16.04,10.36 -33.12,15.53 -51.23,15.53 -18.12,0 -35.07,-5.18 -50.85,-15.53 -15.78,-10.35 -29.5,-24.45 -41.14,-42.3 -11.64,-17.86 -20.83,-39.08 -27.55,-63.66 -6.73,-24.58 -10.1,-50.85 -10.1,-78.79 0,-27.94 3.36,-54.21 10.1,-78.79 6.72,-24.58 15.91,-45.8 27.55,-63.66 11.64,-17.85 25.36,-31.95 41.14,-42.31 15.78,-10.35 32.73,-15.52 50.85,-15.52zm0 346.22c8.8,0 17.73,-3.62 26.78,-10.87 9.06,-7.24 17.21,-17.2 24.45,-29.88 7.25,-12.68 13.2,-27.95 17.86,-45.8 4.66,-17.86 6.98,-37.65 6.98,-59.39 0,-21.74 -2.32,-41.53 -6.98,-59.39 -4.66,-17.85 -10.6,-33.12 -17.86,-45.8 -7.24,-12.68 -15.39,-22.64 -24.45,-29.89 -9.05,-7.24 -17.98,-10.86 -26.78,-10.86 -8.8,0 -17.73,3.62 -26.79,10.86 -9.06,7.25 -17.21,17.21 -24.45,29.89 -7.24,12.68 -13.07,27.95 -17.47,45.8 -4.4,17.86 -6.59,37.65 -6.59,59.39 0,21.74 2.19,41.53 6.59,59.39 4.4,17.85 10.23,33.12 17.47,45.8 7.24,12.68 15.39,22.64 24.45,29.88 9.06,7.25 17.99,10.87 26.79,10.87zm382.69 -208.04c0,18.12 -2.84,35.06 -8.54,50.85 -5.69,15.78 -13.71,29.63 -24.06,41.53 -7.76,9.31 -12.55,19.92 -14.36,31.82 -1.82,11.9 0.12,23.02 5.82,33.38l29.5 59c3.62,6.72 4.4,13.58 2.32,20.57 -2.07,6.98 -6.21,12.29 -12.42,15.91 -3.1,2.58 -7.5,3.88 -13.19,3.88 -10.87,0 -19.15,-4.92 -24.84,-14.74l-46.58 -93.93c-6.22,-10.35 -14.75,-15.52 -25.62,-15.52l-0.78 0c-7.76,0 -14.36,2.84 -19.79,8.54 -5.44,5.69 -8.15,12.42 -8.15,20.18l0 68.32c0,7.76 -2.71,14.36 -8.15,19.79 -5.44,5.43 -12.03,7.89 -19.79,7.37 -7.25,-0.52 -13.46,-3.49 -18.64,-8.93 -5.18,-5.44 -7.76,-11.77 -7.76,-19.01l0 -334.57c0,-7.76 2.71,-14.23 8.15,-19.4 5.44,-5.18 11.77,-7.76 19.01,-7.76l71.42 0c16.04,0 31.18,3.49 45.41,10.47 14.24,6.99 26.53,16.56 36.87,28.72 10.36,12.16 18.64,26.27 24.84,42.31 6.22,16.04 9.32,33.12 9.32,51.24zm-116.44 79.18c8.28,0 16.3,-2.08 24.06,-6.22 7.77,-4.14 14.37,-9.83 19.8,-17.08 5.43,-7.24 9.83,-15.65 13.2,-25.22 3.36,-9.58 5.04,-19.8 5.04,-30.67 0,-21.74 -6.08,-40.23 -18.24,-55.51 -12.16,-15.26 -26.79,-22.89 -43.86,-22.89 -12.42,0 -22.89,4.27 -31.43,12.81 -8.54,8.54 -12.81,19.01 -12.81,31.43l0 68.32c0,12.42 4.27,23.02 12.81,31.82 8.54,8.8 19.01,13.2 31.43,13.2zm326.03 -211.92c8.28,0 15.13,2.97 20.57,8.93 5.43,5.95 7.63,13.07 6.59,21.35 -1.04,7.24 -4.14,13.06 -9.32,17.46 -5.17,4.4 -11.38,6.6 -18.63,6.6 -16.56,0 -30.41,5.56 -41.53,16.69 -11.12,11.12 -16.69,24.97 -16.69,41.53l0 249.96c0,7.76 -2.84,14.36 -8.54,19.79 -5.7,5.43 -12.16,7.89 -19.4,7.37 -7.76,-0.52 -14.11,-3.49 -19.02,-8.93 -4.92,-5.44 -7.37,-11.77 -7.37,-19.01l0 -249.18c0,-16.56 -5.7,-30.41 -17.08,-41.53 -11.38,-11.13 -25.36,-16.69 -41.92,-16.69l-0.78 0c-7.76,0 -14.36,-2.85 -19.79,-8.54 -5.43,-5.7 -7.89,-12.16 -7.37,-19.4 0.52,-7.25 3.49,-13.46 8.93,-18.64 5.44,-5.18 11.77,-7.76 19.01,-7.76l172.34 0zm856.99 329.14l0 0.77 0 97.81c0,7.76 -2.58,14.23 -7.89,19.4 -5.18,5.18 -11.77,7.76 -19.66,7.76 -7.37,0 -13.72,-2.58 -18.89,-7.76 -5.3,-5.18 -7.89,-11.64 -7.89,-19.4 0,-26.4 -7.5,-50.72 -22.51,-72.97 -15.01,-22.25 -34.94,-38.55 -59.78,-48.9 -7.24,-3.1 -14.87,-6.21 -22.89,-9.32 -8.02,-3.1 -16.43,-6.21 -25.23,-9.31 0,0 -1.56,-0.52 -4.66,-1.56 -0.52,0 -4.4,-1.04 -11.64,-3.1 -7.25,-2.08 -15.14,-4.4 -23.68,-6.99 -8.54,-2.58 -16.43,-4.91 -23.67,-6.98 -7.24,-2.07 -11.12,-3.1 -11.64,-3.1 -25.36,-5.7 -51.11,-9.58 -77.24,-11.64 -26.13,-2.08 -51.49,-1.04 -76.07,3.1 -24.58,4.14 -47.75,12.16 -69.47,24.06 -21.74,11.9 -40.63,28.72 -56.67,50.46 -13.46,18.12 -22,36.09 -25.62,53.95 -3.62,17.86 -1.81,34.55 5.44,50.07 6.72,15 17.73,27.55 32.99,37.65 15.26,10.09 32.73,16.17 52.39,18.25 26.4,2.07 51.89,-3.63 76.47,-17.08 24.58,-13.46 46.19,-33.64 64.81,-60.55l50.46 -91.6c5.7,-9.83 13.72,-16.82 24.06,-20.96 10.36,-4.14 20.96,-4.66 31.83,-1.55 4.14,1.03 7.11,3.49 8.93,7.37 1.81,3.88 1.68,7.89 -0.39,12.03l-68.32 122.64 -0.78 0c0,0.52 -0.13,0.78 -0.39,0.78 -0.25,0 -0.38,0.26 -0.38,0.78 -22.78,33.12 -49.17,58.48 -79.18,76.08 -30.02,17.6 -61.84,26.39 -95.48,26.39 -2.59,0 -5.31,0 -8.15,0 -2.85,0 -5.57,-0.26 -8.15,-0.77 -29.5,-2.59 -55.9,-11.65 -79.18,-27.17 -23.29,-15.52 -40.37,-35.7 -51.24,-60.54 -3.1,-7.25 -6.09,-16.3 -8.93,-27.17 -2.84,-10.86 -4.01,-23.02 -3.49,-36.48 0.52,-13.46 3.62,-28.2 9.32,-44.24 5.69,-16.04 15.52,-32.86 29.5,-50.46 20.7,-26.4 43.85,-46.71 69.47,-60.93 25.62,-14.24 51.62,-24.33 78.01,-30.28 26.4,-5.96 52.27,-8.8 77.62,-8.54 25.36,0.26 47.87,1.94 67.54,5.05 20.7,2.58 40.49,-0.78 59.39,-10.1 18.88,-9.32 33.51,-23.02 43.85,-41.14l64.43 -115.66c4.66,-7.76 6.72,-15.91 6.21,-24.45 -0.52,-8.54 -2.71,-16.17 -6.59,-22.9 -3.88,-6.72 -9.45,-12.29 -16.69,-16.69 -7.24,-4.4 -15.26,-6.59 -24.06,-6.59l-1.56 0c-16.04,0 -28.2,3.36 -36.48,10.09 -5.18,4.14 -7.76,8.54 -7.76,13.2 0,4.14 2.07,7.5 6.21,10.1 4.14,2.58 9.84,3.88 17.08,3.88 7.76,0 14.37,2.97 19.79,8.93 5.44,5.95 7.63,13.07 6.6,21.35 -1.04,7.24 -4.14,13.06 -9.32,17.46 -5.18,4.4 -11.38,6.6 -18.64,6.6 -12.42,0 -23.28,-2.08 -32.6,-6.22 -9.31,-4.14 -17.21,-9.44 -23.67,-15.91 -6.46,-6.46 -11.25,-13.72 -14.37,-21.74 -3.1,-8.02 -4.65,-16.17 -4.65,-24.45 0,-10.35 2.32,-20.31 6.98,-29.88 4.66,-9.58 11.38,-17.99 20.18,-25.23 18.12,-15.01 41.66,-22.52 70.64,-22.52 40.36,0 71.94,-2.58 94.83,-7.76 22.9,-5.18 34.55,-7.76 35.07,-7.76 0,0 0.26,-0.26 0.78,-0.78l0.77 0 0.78 0 0.78 0c0.65,0 1.17,-0.26 1.69,-0.78l0.77 0 0.78 0 0.78 0 1.56 0 1.55 0 0.78 0 1.56 0 0.91 0.78 0.77 0 0.78 0 1.56 0 0 0.78 0.78 0 0.77 0 0.78 0c0,0.52 0.26,0.78 0.78,0.78l0.78 0c0,0.51 0.26,0.77 0.78,0.77l0.9 0c0,0.52 0.26,0.78 0.78,0.78l0.78 0.78 0.78 0 0 0.78c0.52,0 1.04,0.26 1.55,0.78 0.52,0 0.78,0.26 0.78,0.77l0.78 0.78c0,0 0.26,0.26 0.78,0.78l0.78 0 0 0.78 0.78 0.78c0,0 0.25,0.26 0.77,0.77l0 0.78c0.65,0 0.91,0.26 0.91,0.78l0.78 0.78 0 0.78c0,0 0.26,0.26 0.78,0.78l0 0.77c0,0 0.26,0.26 0.78,0.78l0 0.78c0,0 0.26,0.26 0.77,0.78l0 0.78 0 0.77c0,0.52 0.26,0.78 0.78,0.78l0 1.56 0 1.56 0 0.77c0.52,0 0.78,0.26 0.78,0.78l0 0.78 0 1.56 -0.78 406.76zm-54.34 -248.41c0,-3.62 -1.03,-6.59 -3.1,-8.92 -2.07,-2.33 -4.53,-3.88 -7.37,-4.66 -2.84,-0.78 -5.83,-0.65 -8.93,0.39 -3.1,1.03 -5.7,3.1 -7.76,6.21l-62.88 113.34c-3.62,6.21 -5.7,12.68 -6.22,19.4 -0.51,6.73 0.39,13.2 2.72,19.4 2.32,6.22 5.69,11.78 10.09,16.69 4.4,4.92 9.97,8.67 16.69,11.26l1.56 0c7.76,3.1 15.52,4.27 23.28,3.49 7.77,-0.78 14.75,-3.36 20.96,-7.76 6.22,-4.4 11.26,-9.97 15.14,-16.69 3.88,-6.73 5.82,-14.24 5.82,-22.52l0 -129.64zm239.08 254.62c7.25,0 13.59,2.58 19.02,7.76 5.43,5.18 8.41,11.38 8.93,18.64 0,7.76 -2.59,14.36 -7.77,19.79 -5.17,5.44 -11.64,8.15 -19.4,8.15l-100.92 0c-7.24,0 -13.58,-2.71 -19.01,-8.15 -5.44,-5.44 -8.15,-11.77 -8.15,-19.01l0 -335.35c0,-7.76 2.71,-14.36 8.15,-19.79 5.44,-5.44 12.03,-7.89 19.79,-7.37 7.25,0 13.46,2.84 18.64,8.54 5.18,5.69 7.76,12.16 7.76,19.4l0 234.44c0,10.35 1.94,19.92 5.83,28.72 3.88,8.8 9.05,16.43 15.52,22.89 6.46,6.47 14.1,11.64 22.89,15.52 8.8,3.89 18.38,5.83 28.72,5.83zm194.06 0c7.25,0 13.59,2.58 19.02,7.76 5.43,5.18 8.41,11.38 8.93,18.64 0,7.76 -2.59,14.36 -7.77,19.79 -5.17,5.44 -11.64,8.15 -19.4,8.15l-100.92 0c-7.24,0 -13.58,-2.71 -19.01,-8.15 -5.44,-5.44 -8.15,-11.77 -8.15,-19.01l0 -335.35c0,-7.76 2.71,-14.36 8.15,-19.79 5.44,-5.44 12.03,-7.89 19.79,-7.37 7.25,0 13.46,2.84 18.64,8.54 5.18,5.69 7.76,12.16 7.76,19.4l0 234.44c0,10.35 1.94,19.92 5.83,28.72 3.88,8.8 9.05,16.43 15.52,22.89 6.46,6.47 14.1,11.64 22.89,15.52 8.8,3.89 18.38,5.83 28.72,5.83zm268.58 -335.34c7.25,0 13.59,2.58 19.02,7.76 5.44,5.18 8.15,11.64 8.15,19.4l0 335.35c0,7.24 -2.71,13.58 -8.15,19.01 -5.44,5.44 -11.77,8.15 -19.02,8.15 -7.24,0 -13.58,-2.71 -19.01,-8.15 -5.44,-5.44 -8.15,-11.77 -8.15,-19.01l0 -335.35c0,-7.76 2.71,-14.23 8.15,-19.4 5.44,-5.18 11.77,-7.76 19.01,-7.76zm272.47 0c7.76,-0.52 14.36,1.94 19.79,7.37 5.43,5.44 8.15,12.03 8.15,19.79l0 335.35 0 0.77 0 1.56 0 0.78c0,0.52 -0.13,0.78 -0.39,0.78 -0.26,0 -0.39,0.26 -0.39,0.77l0 1.56 0 0.78c0,0 -0.26,0.52 -0.78,1.55l0 0.78c0,0.52 -0.13,0.78 -0.39,0.78 -0.26,0 -0.39,0.26 -0.39,0.78l0 0.78 -1.55 1.55 0 0.78c-0.52,0.52 -0.78,1.04 -0.78,1.56 -0.52,0 -0.78,0.26 -0.78,0.78l-0.78 0.77c-1.03,1.04 -1.55,1.56 -1.55,1.56 0,0 -0.26,0.26 -0.78,0.78 0,0 -0.26,0.26 -0.78,0.78 0,0.52 -0.26,0.77 -0.78,0.77 0,0.52 -0.26,0.78 -0.78,0.78 -0.51,0.52 -1.03,0.78 -1.55,0.78 0,0.52 -0.26,0.78 -0.78,0.78 -0.52,0 -0.78,0.13 -0.78,0.39 0,0.26 -0.26,0.39 -0.78,0.39l-0.77 0c-0.52,0.52 -0.91,0.78 -1.17,0.78 -0.26,0 -0.65,0.25 -1.17,0.77l-0.78 0c-0.52,0 -0.78,0.13 -0.78,0.39 0,0.26 -0.25,0.39 -0.77,0.39l-1.56 0c0,0 -0.52,0.26 -1.56,0.78l-0.77 0 -2.33 0 -0.78 0 -3.1 0 -1.56 0c-0.51,-0.52 -1.29,-0.78 -2.32,-0.78l-0.78 0c0,0 -1.04,-0.52 -3.1,-1.55 0,0 -1.04,-0.52 -3.1,-1.56l-0.78 0c-1.04,-1.04 -1.56,-1.56 -1.56,-1.56 -0.52,0 -0.78,-0.26 -0.78,-0.78l-2.32 -2.32c0,0 -0.26,-0.26 -0.78,-0.78 0,0 -0.52,-0.52 -1.55,-1.55l-0.78 -0.78c0,0 -0.52,-1.04 -1.56,-3.1l-82.28 -161.47c-2.58,-4.65 -5.96,-7.76 -10.1,-9.31 -4.14,-1.56 -8.15,-1.82 -12.03,-0.78 -3.88,1.04 -7.37,3.23 -10.47,6.59 -3.1,3.36 -4.66,7.63 -4.66,12.81l0 139.73c0,7.76 -2.71,14.36 -8.15,19.79 -5.44,5.43 -12.03,7.89 -19.79,7.37 -7.25,-0.52 -13.46,-3.49 -18.64,-8.93 -5.18,-5.44 -7.76,-11.77 -7.76,-19.01l0 -334.57 0 -0.77 0 -1.56 0 -0.78 0 -1.56c0.52,-0.51 0.78,-1.03 0.78,-1.55l0 -0.78c0,-0.52 0.26,-1.04 0.78,-1.56l0 -0.77c0,-0.52 0.26,-1.04 0.77,-1.56l0 -0.78c0.52,-0.52 0.78,-1.04 0.78,-1.55l0.78 -0.78c0,-0.52 0.13,-0.78 0.39,-0.78 0.26,0 0.39,-0.26 0.39,-0.78 0,0 0.26,-0.52 0.78,-1.56 0,0 0.26,-0.25 0.78,-0.77l0.77 -0.78c0.52,0 0.78,-0.26 0.78,-0.78 0.52,0 0.78,-0.13 0.78,-0.39 0,-0.26 0.26,-0.39 0.78,-0.39 0,-0.52 0.26,-0.78 0.78,-0.78 0,-0.51 0.26,-0.77 0.77,-0.77 0.52,-0.52 1.04,-0.78 1.56,-0.78 0,-0.52 0.26,-0.78 0.78,-0.78 0,0 0.52,-0.26 1.55,-0.78 0,0 0.26,-0.26 0.78,-0.78 0,0 0.52,-0.26 1.56,-0.78l0.78 0c0.52,0 0.78,-0.12 0.78,-0.38 0,-0.26 0.25,-0.39 0.77,-0.39l1.56 0c0,0 0.26,-0.26 0.78,-0.78l1.55 0 1.56 0 1.56 0 0.77 0 1.56 0 1.56 0 0.78 0c0.51,0 1.03,0.26 1.55,0.78l0.78 0c1.04,0 1.82,0.26 2.32,0.77 1.04,0 1.82,0.26 2.33,0.78l0.78 0c0,0 0.52,0.26 1.55,0.78l0.78 0.78 0.78 0.78c0.52,0 1.04,0.26 1.56,0.78 0.51,0 0.77,0.26 0.77,0.77 0.52,0 0.78,0.13 0.78,0.39 0,0.26 0.26,0.39 0.78,0.39 0,0.52 0.26,0.78 0.78,0.78 0,0.52 0.13,0.78 0.39,0.78 0.26,0 0.39,0.26 0.39,0.78 0,0 0.26,0.26 0.77,0.77l0.78 0.78c0,0.52 0.13,0.78 0.39,0.78 0.26,0 0.39,0.26 0.39,0.78l0.78 0.78c0,0 0.26,0.52 0.78,1.55l82.28 160.69c2.07,4.65 5.31,7.76 9.7,9.31 4.4,1.56 8.54,1.95 12.43,1.17 3.88,-0.78 7.37,-2.84 10.47,-6.21 3.1,-3.37 4.66,-7.64 4.66,-12.81l0 -138.96c0,-7.24 2.58,-13.72 7.76,-19.4 5.18,-5.7 11.38,-8.54 18.64,-8.54z"/>
    <path class="fil5" d="M8668.82 4642.22c-8.8,0 -17.46,3.62 -26,10.86 -8.54,7.25 -16.3,17.21 -23.29,29.89 -6.98,12.68 -12.68,27.95 -17.08,45.8 -4.4,17.86 -6.59,37.65 -6.59,59.39 0,21.74 2.19,41.53 6.59,59.39 4.4,17.85 10.1,33.12 17.08,45.8 6.99,12.68 14.75,22.64 23.29,29.88 8.54,7.25 17.2,10.87 26,10.87 10.36,0 20.31,-4.4 29.89,-13.2 9.58,-8.8 17.99,-21.22 25.23,-37.26 3.1,-7.24 8.02,-12.16 14.75,-14.75 6.72,-2.58 13.71,-2.32 20.95,0.78 7.25,3.11 12.04,8.15 14.37,15.14 2.32,6.98 1.95,13.84 -1.17,20.57 -11.9,26.39 -26.78,46.83 -44.63,61.32 -17.86,14.49 -37.65,21.74 -59.39,21.74 -18.11,0 -34.8,-5.18 -50.07,-15.53 -15.26,-10.35 -28.72,-24.45 -40.36,-42.3 -11.64,-17.86 -20.7,-39.08 -27.16,-63.66 -6.47,-24.58 -9.71,-50.85 -9.71,-78.79 0,-27.94 3.23,-54.21 9.71,-78.79 6.46,-24.58 15.52,-45.8 27.16,-63.66 11.64,-17.85 25.1,-31.95 40.36,-42.31 15.27,-10.35 31.96,-15.52 50.07,-15.52 21.74,0 41.53,7.11 59.39,21.35 17.86,14.24 32.73,34.55 44.63,60.93 3.11,7.25 3.49,14.37 1.17,21.35 -2.32,6.99 -7.11,12.03 -14.37,15.14 -7.24,3.1 -14.23,3.36 -20.95,0.77 -6.73,-2.58 -11.65,-7.5 -14.75,-14.74 -7.24,-16.04 -15.65,-28.46 -25.23,-37.26 -9.58,-8.8 -19.53,-13.2 -29.89,-13.2zm273.24 286.44c7.25,0 13.59,2.58 19.02,7.76 5.43,5.18 8.41,11.38 8.93,18.64 0,7.76 -2.59,14.36 -7.77,19.79 -5.17,5.44 -11.64,8.15 -19.4,8.15l-100.92 0c-7.24,0 -13.58,-2.71 -19.01,-8.15 -5.44,-5.44 -8.15,-11.77 -8.15,-19.01l0 -335.35c0,-7.76 2.71,-14.36 8.15,-19.79 5.44,-5.44 12.03,-7.89 19.79,-7.37 7.25,0 13.46,2.84 18.64,8.54 5.18,5.69 7.76,12.16 7.76,19.4l0 234.44c0,10.35 1.94,19.92 5.83,28.72 3.88,8.8 9.05,16.43 15.52,22.89 6.46,6.47 14.1,11.64 22.89,15.52 8.8,3.89 18.38,5.83 28.72,5.83zm237.93 -335.34c7.89,0 14.5,2.58 19.67,7.76 5.3,5.18 7.89,11.64 7.89,19.4l0 167.68c0,8.28 -0.13,19.01 -0.39,32.21 -0.26,13.2 -1.56,27.17 -3.88,41.92 -2.33,14.75 -5.7,29.63 -10.1,44.63 -4.4,15.01 -10.99,28.59 -19.53,40.76 -8.54,12.16 -19.28,21.99 -32.34,29.49 -12.94,7.51 -28.98,11.26 -48.26,11.26 -19.14,0 -35.44,-3.75 -48.64,-11.26 -13.33,-7.5 -24.19,-17.33 -32.73,-29.49 -8.54,-12.17 -15.01,-25.75 -19.53,-40.76 -4.4,-15 -7.77,-29.88 -10.1,-44.63 -2.32,-14.74 -3.62,-28.72 -3.88,-41.92 -0.26,-13.2 -0.39,-23.93 -0.39,-32.21l0 -167.68c0,-7.76 2.71,-14.23 8.15,-19.4 5.44,-5.18 11.77,-7.76 19.01,-7.76 7.25,0 13.59,2.58 19.02,7.76 5.44,5.18 8.15,11.64 8.15,19.4l0 167.68c0,60.54 7.24,102.2 21.74,124.98 4.66,7.24 9.96,12.55 15.91,15.91 5.95,3.36 13.59,5.05 22.89,5.05 17.08,0 30.02,-6.99 38.82,-20.96 14.49,-24.32 21.74,-65.98 21.74,-124.98l0 -167.68c0,-7.76 2.58,-14.23 7.89,-19.4 5.18,-5.18 11.51,-7.76 18.88,-7.76zm178.15 168.44c10.87,5.18 22.26,10.87 34.16,17.08 11.9,6.22 22.65,13.72 32.21,22.52 9.58,8.8 17.47,19.27 23.68,31.43 6.21,12.16 9.31,26.53 9.31,43.09 0,15.52 -2.84,30.15 -8.53,43.85 -5.7,13.72 -13.59,25.62 -23.68,35.71 -10.09,10.09 -21.87,18.11 -35.31,24.06 -13.46,5.95 -27.95,8.93 -43.48,8.93 -20.18,0 -38.94,-5.31 -56.27,-15.91 -17.34,-10.61 -30.93,-24.97 -40.75,-43.09 -4.14,-6.72 -5.05,-13.59 -2.72,-20.57 2.33,-6.98 6.86,-12.29 13.59,-15.91 6.72,-3.62 13.59,-4.4 20.57,-2.33 6.98,2.08 12.29,6.47 15.91,13.2 5.18,9.32 12.16,16.69 20.96,22.13 8.8,5.43 18.38,8.15 28.72,8.15 15.52,0 28.85,-5.57 39.98,-16.69 11.12,-11.13 16.69,-24.97 16.69,-41.53 0,-15.52 -5.96,-27.69 -17.86,-36.48 -11.9,-8.8 -28.72,-18.38 -50.46,-28.72 -10.86,-5.18 -21.87,-10.74 -32.99,-16.69 -11.12,-5.96 -21.35,-13.07 -30.67,-21.35 -9.31,-8.28 -16.95,-18.12 -22.89,-29.5 -5.96,-11.38 -8.93,-24.84 -8.93,-40.36 0,-16.05 2.84,-31.06 8.54,-45.03 5.7,-13.97 13.33,-26.13 22.89,-36.48 9.58,-10.35 20.83,-18.5 33.77,-24.45 12.94,-5.96 26.92,-8.93 41.92,-8.93 19.66,0 37.78,5.18 54.34,15.52 16.56,10.36 29.5,24.59 38.82,42.7 3.62,6.73 4.4,13.59 2.32,20.57 -2.07,6.99 -6.46,12.29 -13.2,15.91 -6.72,3.62 -13.58,4.4 -20.57,2.33 -6.98,-2.08 -12.29,-6.47 -15.91,-13.2 -10.86,-19.66 -26.14,-29.5 -45.8,-29.5 -15,0 -27.55,5.96 -37.65,17.86 -10.09,11.9 -15.13,26.13 -15.13,42.7 0,13.45 5.05,24.06 15.13,31.82 10.1,7.76 26.53,16.82 49.29,27.16zm175.44 -168.44c7.25,0 13.59,2.58 19.02,7.76 5.44,5.18 8.15,11.64 8.15,19.4l0 335.35c0,7.24 -2.71,13.58 -8.15,19.01 -5.44,5.44 -11.77,8.15 -19.02,8.15 -7.24,0 -13.58,-2.71 -19.01,-8.15 -5.44,-5.44 -8.15,-11.77 -8.15,-19.01l0 -335.35c0,-7.76 2.71,-14.23 8.15,-19.4 5.44,-5.18 11.77,-7.76 19.01,-7.76zm291.89 0.78c7.24,2.07 12.67,6.33 16.3,12.81 3.62,6.46 4.4,13.32 2.32,20.57l-93.92 336.12c0,0.52 -0.52,1.81 -1.56,3.88l0 0.78c-1.04,1.03 -1.56,2.07 -1.56,3.1l-0.77 0c-0.52,0.52 -0.91,1.04 -1.17,1.55 -0.26,0.52 -0.65,1.04 -1.17,1.56l0 0.78c-1.04,0.52 -2.07,1.3 -3.1,2.32l-0.78 0c-1.04,1.04 -2.07,1.82 -3.1,2.33 -1.04,0.52 -1.69,0.78 -1.95,0.78 -0.26,0 -0.9,0.25 -1.94,0.77l-0.78 0c0,0.52 -0.26,0.78 -0.78,0.78l-1.55 0c-0.52,0 -0.78,0.13 -0.78,0.39 0,0.26 -0.26,0.39 -0.78,0.39l-3.88 0 -3.88 0c-0.52,0 -1.04,-0.26 -1.56,-0.78l-2.32 0 -0.78 -0.78 -0.78 0c-0.52,-0.52 -1.04,-0.77 -1.56,-0.77 -0.51,0 -1.03,-0.26 -1.55,-0.78l-0.78 0c-1.04,-1.04 -2.07,-1.82 -3.1,-2.33 -1.04,-0.52 -2.08,-1.29 -3.1,-2.32 0,-0.52 -0.26,-0.78 -0.78,-0.78 -1.04,-1.04 -1.82,-2.07 -2.33,-3.1 -1.03,-2.08 -1.55,-3.1 -1.55,-3.1l-0.78 -0.78c-0.52,-1.04 -0.78,-1.69 -0.78,-1.95 0,-0.26 -0.26,-0.91 -0.78,-1.94l-93.92 -336.12c-2.08,-7.25 -1.3,-14.11 2.32,-20.57 3.62,-6.47 9.06,-10.74 16.3,-12.81 7.25,-2.08 14.11,-1.3 20.57,2.32 6.47,3.62 10.74,9.06 12.81,16.3l49.68 175.44c1.04,4.66 3.37,8.28 6.99,10.86 3.62,2.59 7.37,3.88 11.25,3.88 3.88,0 7.63,-1.29 11.25,-3.88 3.62,-2.58 6.22,-6.21 7.76,-10.86l48.91 -175.44c2.07,-7.24 6.33,-12.68 12.8,-16.3 6.47,-3.62 13.33,-4.4 20.58,-2.32zm167.67 53.56c-16.04,0 -29.5,5.43 -40.36,16.3 -10.86,10.86 -16.3,24.32 -16.3,40.36 0,15.52 5.44,28.85 16.3,39.98 10.86,11.12 24.32,16.68 40.36,16.68l7.76 0c7.25,0 13.59,2.72 19.02,8.16 5.43,5.43 7.89,12.03 7.37,19.79 0,7.24 -2.84,13.46 -8.54,18.63 -5.7,5.18 -12.16,7.76 -19.4,7.76l-6.22 0c-16.04,0 -29.5,5.57 -40.36,16.69 -10.86,11.13 -16.3,24.45 -16.3,39.98 0,16.04 5.44,29.5 16.3,40.36 10.86,10.86 24.32,16.3 40.36,16.3l22.52 0c7.76,0 14.23,2.71 19.4,8.15 5.18,5.44 7.76,12.03 7.76,19.79 -0.52,7.25 -3.49,13.46 -8.93,18.64 -5.43,5.18 -11.77,7.76 -19.01,7.76l-105.58 0c-7.24,0 -13.58,-2.71 -19.01,-8.15 -5.44,-5.44 -8.15,-11.77 -8.15,-19.01l0 -335.35c0,-7.76 2.71,-14.23 8.15,-19.4 5.44,-5.18 11.77,-7.76 19.01,-7.76l105.58 0c7.24,0 13.59,2.58 19.01,7.76 5.44,5.18 8.41,11.38 8.93,18.64 0,7.24 -2.58,13.71 -7.76,19.4 -5.18,5.69 -11.64,8.54 -19.4,8.54l-22.52 0z"/>
   </g>
   <g>
    <path class="fil2" d="M3007.44 4060.62c-258.03,-122.31 -409.36,62.71 -612.32,-40.46 -41.55,-21.12 -73.49,-41.67 -98.73,-61.82 70.86,104.58 157.07,197.9 255.4,276.73 132.31,-12.69 242.69,-67.93 375,-0.67 184.79,93.92 179.37,176.36 240.88,264.83 55.23,7.42 111.6,11.25 168.88,11.25 49.29,0 97.9,-2.84 145.71,-8.36 -11.07,-3.75 -22.46,-8.14 -34.2,-13.26 -181.29,-78.95 -171.19,-300.53 -440.63,-428.25zm-349.62 -698.02c-307.74,-156.41 -87.94,-280.95 -528.28,-454.61 -17.05,59.44 -29.84,120.7 -38,183.4 14.45,4.43 29.42,9.96 45,16.74 181.29,78.95 171.19,300.54 440.63,428.25 258.03,122.31 409.37,-62.7 612.32,40.46 293.94,149.41 106.6,269.73 472.93,431.54 233.37,102.99 373.7,-60.37 588.56,33.18 15.13,6.57 28.95,14.18 41.69,22.62l2.49 1.65c41.72,-49.27 79.7,-101.78 113.53,-157.14l-3.8 -1.81c-352.61,-184.66 -443.38,33.61 -694.13,-75.57 -181.29,-78.95 -171.19,-300.54 -440.63,-428.25 -258.03,-122.31 -409.36,62.71 -612.32,-40.46zm-132.91 331.59c-285.81,-145.27 -116.6,-263.05 -443.74,-418.2 1.37,83.39 10.86,164.79 27.74,243.46 87.7,101.67 131.59,251.93 335.34,348.51 258.04,122.32 409.37,-62.69 612.32,40.46 293.94,149.41 106.6,269.74 472.93,431.55 173,76.35 294.87,6.31 433.88,3.09 74.24,-42.86 143.67,-93.1 207.33,-149.71 -271.78,-97.98 -368,67.45 -592.86,-30.46 -181.29,-78.95 -171.19,-300.54 -440.62,-428.25 -258.04,-122.32 -409.37,62.7 -612.32,-40.46z"/>
    <circle class="fil4" cx="3919.01" cy="3385.87" r="239.33"/>
   </g>
   <path class="fil3" d="M5856.47 2955.86c-29.67,-85.9 -106.2,-142.13 -196.8,-149.94 -218.68,-15.62 -282.72,192.12 -363.93,452.96l-15.62 48.42c-7.8,23.42 -17.18,53.1 -26.56,87.46 -26.55,81.22 -146.82,70.29 -156.19,-17.18l-24.98 -245.22c-7.82,-70.28 4.69,-274.9 -101.54,-268.65 -65.6,4.69 -74.97,78.1 -89.03,128.08 -20.3,70.29 -40.61,142.13 -60.91,213.98 -59.98,210.79 -109.73,381.66 -158.56,513.64 -3.7,5.9 -6.64,12.4 -8.68,19.42 -1.65,5.66 -3.37,11.3 -5.14,16.92 -9.2,23.52 -18.4,45.67 -27.65,66.43 -18.14,40.68 -33,76.27 -45.03,107.32 -23.62,46.74 -48.58,91.05 -71.92,132.45 -3.42,6.1 5.41,-9.57 -18.67,33.52 -3.25,5.82 -6.38,11.16 -9.37,16 -2.32,3.76 -5.71,8.91 -10.17,15.45l-2.55 4.02c-81.38,117.76 -237.43,253.28 -424.45,337.44 -145.61,65.52 -308.78,98.56 -466.93,64.65 -41.56,-8.8 -82.4,17.75 -91.21,59.31 -8.81,41.57 17.75,82.41 59.31,91.22 193.56,41.5 389.37,2.81 562.05,-74.89 212.75,-95.72 392.36,-252.92 487.64,-390.71l3.2 -4.34c3.68,-5.42 8.31,-12.63 13.77,-21.46 4.65,-7.53 8.99,-14.89 12.98,-22.04 11.93,-21.36 2.51,-4.26 18.67,-32.91 55,-97.59 118.5,-210.3 158.97,-342.2 26.8,-69.89 52.54,-147.79 78.41,-233.15 14.18,-46.81 82.78,-39.05 89.03,9.38l57.79 571.66c4.69,39.05 37.5,68.72 74.97,68.72 3.13,0 6.25,0 7.81,0 31.24,-3.12 56.23,-24.98 65.6,-53.1 0,0 192.12,-604.46 254.6,-805.95l15.61 -48.42c79.67,-256.16 117.15,-351.43 207.75,-345.18 45.3,3.1 60.91,37.47 65.59,48.4 4.69,14.07 12.5,49.99 -20.29,81.21 -31.25,29.69 -32.81,78.11 -3.14,107.78 28.12,31.24 76.55,31.24 107.78,3.12 67.17,-64.04 89.04,-157.75 57.79,-243.66z"/>
   <path class="fil3" d="M7962.08 3723.03c-13.46,-40.23 8.24,-83.78 48.47,-97.24 40.23,-13.46 83.78,8.24 97.24,48.47 15.88,47.21 40.29,84.4 68.23,111.64 29.96,29.21 63.01,46.49 92.65,51.85 41.73,7.48 69.5,47.39 62.02,89.12 -7.48,41.73 -47.39,69.5 -89.12,62.02 -58.25,-10.53 -120.17,-41.55 -172.73,-92.79 -44.2,-43.1 -82.46,-100.89 -106.75,-173.07z"/>
  </g>
 </g>
</svg>
