<?xml version="1.0" encoding="UTF-8"?>
<!DOCTYPE svg PUBLIC "-//W3C//DTD SVG 1.1//EN" "http://www.w3.org/Graphics/SVG/1.1/DTD/svg11.dtd">
<!-- Creator: CorelDRAW 2020 (64 Bit) -->
<svg xmlns="http://www.w3.org/2000/svg" xml:space="preserve" width="115.661mm" height="95.1439mm" version="1.1" style="shape-rendering:geometricPrecision; text-rendering:geometricPrecision; image-rendering:optimizeQuality; fill-rule:evenodd; clip-rule:evenodd"
viewBox="0 0 11534.96 9488.79"
 xmlns:xlink="http://www.w3.org/1999/xlink"
 xmlns:xodm="http://www.corel.com/coreldraw/odm/2003">
 <defs>
  <style type="text/css">
   <![CDATA[
    .fil0 {fill:none}
    .fil3 {fill:#2A3A63}
    .fil5 {fill:#FFA400}
    .fil2 {fill:#04B1BB;fill-rule:nonzero}
    .fil1 {fill:#2A3A63;fill-rule:nonzero}
    .fil4 {fill:url(#id0)}
   ]]>
  </style>
  <linearGradient id="id0" gradientUnits="userSpaceOnUse" x1="3848.64" y1="4788.58" x2="4673.6" y2="3019.6">
   <stop offset="0" style="stop-opacity:1; stop-color:#00BFBA"/>
   <stop offset="1" style="stop-opacity:1; stop-color:#1678BF"/>
  </linearGradient>
 </defs>
 <g id="Camada_x0020_1">
  <metadata id="CorelCorpID_0Corel-Layer"/>
  <polygon class="fil0" points="-0,0 11534.96,0 11534.96,9488.79 -0,9488.79 "/>
  <g id="_2229704797840">
   <path class="fil1" d="M8076.15 5828.78c-43.51,-13.64 -91.79,10.55 -106.02,55.62 -37.89,120.03 -81.91,188.44 -145.99,168.6 -59.32,-18.37 -43.66,-106.08 -29.55,-149.48l67.78 -208.57c44.18,-135.88 -30.02,-281.85 -166.84,-326.74 -80.43,-26.38 -166.21,-9.5 -231.17,36.5 -18.48,13.09 -43.97,12.95 -62.57,0 -21.39,-14.89 -45.12,-28.01 -71.25,-36.5 -43.39,-14.09 -88.72,-17.69 -130.36,-8.7 -89.39,19.31 -156.48,58.8 -189.83,154.92 -11.22,39.31 -9.63,100.27 -31.3,166.88 -35,107.61 20.61,-29.23 -15.65,77.99l-99.46 227.71c107.5,-39.63 218.73,-146.12 257.35,-264.56 27.24,-83.56 46.9,-144.15 47.61,-145.68 18.54,-40.21 66.31,-63.36 109.49,-48.67 43.71,14.86 72.71,60.39 59.09,102.54l-130.35 403.22c-14.53,44.97 10.18,94.65 53.87,107.76 8.48,2.52 17.38,3.46 26.07,3.46 36.5,0 70.3,-22.32 81.69,-57.35l67.78 -208.57c32.27,-99.3 62.75,-196.34 93.86,-291.98 15.81,-48.6 66.29,-73.78 112.97,-59.09 47.18,14.85 73.14,66.1 57.36,114.71l-67.78 208.56c-9.5,29.29 -50.42,177.3 27.8,283.31 29.51,39.98 85.17,86.89 187.71,86.89 192.91,0 255.48,-199.87 283.29,-286.77 13.9,-43.45 -10.5,-91.88 -55.61,-106.02zm-1695.83 364.08c2.77,0.99 5.56,1.96 8.39,2.87 135.56,45.19 283.31,-29.54 326.76,-165.1l111.22 -340.66c42.61,-132.9 -28.4,-275.81 -158.93,-323.94l-0.35 1.08c-2.77,-0.99 -5.57,-1.96 -8.4,-2.88 -135.56,-45.18 -283.3,29.54 -326.75,165.11l-111.23 340.65c-2.5,7.84 -4.61,15.72 -6.34,23.59 -27.66,72.23 -90.3,158.67 -189.36,181.41 -206.82,52.14 -337.17,-74.74 -311.1,-152.95l111.24 -338.92c13.9,-48.66 64.31,-72.99 112.96,-59.09 46.93,15.65 73,66.04 57.36,114.71 -15.64,43.45 8.7,92.12 53.88,106.02 45.19,13.9 92.11,-10.43 106.02,-53.88 45.19,-135.56 -29.55,-283.3 -165.1,-326.74 -135.57,-45.19 -283.31,29.53 -326.76,165.1l-109.09 334.1c-3.01,5.26 -5.5,10.92 -7.36,16.97 -38.23,119.93 -81.68,184.23 -145.99,168.6 -53.88,-13.9 -43.45,-106.02 -29.55,-149.48l102.54 -321.52c13.89,-43.45 -10.44,-92.12 -55.62,-106.02 -43.45,-13.9 -92.11,10.42 -106.01,55.62l-102.55 319.79c-1.74,6.95 -5.21,17.38 -8.69,33.02 0,0 0,0 0,0 -38.24,119.93 -85.16,187.71 -147.72,168.6 -55.62,-19.12 -41.72,-106.02 -27.82,-149.48l159.91 -500.55c22.59,-67.77 97.33,-104.27 163.37,-79.93 38.24,15.63 78.22,26.07 114.7,24.33 53.88,-3.48 97.34,-41.72 99.07,-93.86 3.48,-55.62 -39.96,-102.54 -93.86,-106.02 -10.41,0 -20.84,1.74 -31.28,3.48 -19.12,5.21 -38.24,3.47 -55.61,-1.75 -1.75,0 -1.75,0 -1.75,0 -57.36,-20.85 -86.9,-81.69 -69.52,-139.04l57.36 -179.01c13.91,-43.45 -10.42,-92.11 -55.61,-106.02 -43.45,-13.9 -92.12,10.43 -106.02,55.62l-31.29 95.59c-24.33,79.94 -97.32,133.82 -179.01,132.08 -76.47,-1.74 -154.69,22.6 -234.64,95.59 -34.77,31.29 -36.5,85.17 -5.22,119.93 31.29,34.77 85.16,36.5 119.93,5.22 6.95,-6.95 13.9,-13.9 20.85,-19.12 71.26,-52.14 166.84,19.12 140.77,102.54l-172.06 538.78c-1.73,4.91 -4.27,13.05 -6.95,23.71 -1.33,3 -2.49,6.1 -3.48,9.31 -38.24,119.93 -83.42,185.98 -146,168.6 -57.36,-17.38 -43.44,-106.02 -29.54,-149.48l53.87 -170.32c33.02,-100.81 71.26,-218.99 88.64,-276.34 13.9,-45.19 -10.42,-92.12 -55.62,-106.02 -43.44,-13.89 -92.11,10.44 -106.01,53.89l-187.7 577.01c-15.64,46.92 -66.04,72.99 -112.98,57.36 -22.59,-6.95 -41.71,-22.6 -52.14,-45.2 -10.43,-20.85 -12.17,-45.19 -5.22,-67.78l152.95 -469.26c15.65,-43.45 -8.69,-92.12 -53.87,-106.02 -43.45,-15.63 -92.12,8.69 -106.02,53.89l-154.67 469.25 -1.21 3.94c-0.84,2.11 -1.6,4.27 -2.28,6.48 -38.23,119.93 -90.39,184.23 -147.73,168.6 -64.31,-19.12 -41.71,-106.02 -27.8,-149.48 69.52,-215.51 71.26,-220.72 126.87,-399.74 13.9,-43.45 -10.43,-92.11 -55.61,-106.02 -22.59,-6.95 -46.92,-3.47 -67.79,6.97 -10.42,6.94 -22.59,5.2 -33.02,-1.76 -20.85,-13.9 -43.45,-26.07 -69.52,-34.75 -135.56,-45.19 -283.29,29.53 -326.74,165.1l-111.24 340.65c-43.45,135.56 31.29,281.56 166.86,326.75 26.07,8.68 53.86,12.17 79.93,12.17 62.57,0 121.66,-22.61 168.6,-62.57 31.29,34.77 85.16,71.25 175.54,71.25 83.27,0 142.47,-37.9 185.06,-87.88 29.21,30.03 65.69,52.93 106.93,67.04 26.07,8.68 53.88,12.17 79.95,12.17 62.57,0 123.4,-22.61 170.33,-62.57 31.29,34.77 85.15,71.25 175.53,71.25 74.09,0 129.12,-30.03 170.35,-71.85 31.83,35.81 85.66,71.85 175.52,71.85 74.74,0 128.61,-29.53 170.33,-71.25 31.29,34.77 85.16,71.25 175.54,71.25 87.26,0 147.87,-40.92 190.65,-93.75 35.8,41.2 81.27,73.45 129.15,90.29 64.31,20.84 128.61,31.29 191.18,31.29 78.2,0 151.2,-15.66 218.99,-48.67 42.62,-21.31 80.61,-48.6 113.45,-81.12 28.55,34.43 66.2,61.95 110.82,78.41l0.36 -1.08zm233.81 -665.96l-0.12 0.33c8.73,3.63 16.63,8.51 23.54,14.34l0.28 0.23 0.37 0.33c26.15,23.09 37.71,60.37 26.03,96.71l-12.46 37.88 0.56 -0.06 -98.5 300.1c-12.17,38.24 -46.92,62.57 -85.16,62.57 -8.7,0 -17.38,-1.76 -27.81,-3.48 -2.48,-0.83 -4.9,-1.77 -7.25,-2.77l0.11 -0.33c-8.72,-3.64 -16.61,-8.52 -23.54,-14.35l-0.28 -0.23 -0.37 -0.33c-22.09,-19.5 -33.78,-49.15 -29.81,-79.79l1.9 -5.57c1.62,-5.23 2.71,-10.49 3.32,-15.71l11.02 -33.51 -0.56 0.07 98.49 -300.1c12.17,-38.24 46.92,-62.57 85.16,-62.57 8.7,0 17.38,1.75 27.81,3.48 2.48,0.83 4.91,1.76 7.26,2.77zm-2969.88 508.12c-46.94,-15.65 -73,-66.05 -57.36,-112.98l111.22 -338.92c12.17,-38.24 46.93,-62.57 85.17,-62.57 8.69,0 17.37,1.75 27.8,3.48 43.45,15.65 67.79,59.09 59.09,102.54l-112.97 351.08c-15.65,46.92 -66.05,72.99 -112.97,57.36zm5146.21 -206.23c-45.17,-13.89 -91.77,10.55 -106,55.62 -37.9,120.03 -90.6,184.91 -147.74,168.6 -64.5,-18.42 -41.79,-106.06 -27.8,-149.48 69.43,-215.54 70.97,-220.83 126.88,-399.74 13.59,-43.54 -10.43,-92.12 -55.62,-106.02 -22.58,-6.95 -47.4,-4.36 -67.79,6.96 -10.94,6.08 -22.6,5.21 -33.02,-1.75 -20.85,-13.89 -43.46,-26.07 -69.52,-34.76 -135.55,-45.17 -282.57,29.79 -326.74,165.11l-111.24 340.65c-44.17,135.3 31.29,281.57 166.86,326.74 26.06,8.69 53.87,12.17 79.94,12.17 62.57,0 121.65,-22.6 168.59,-62.57 31.29,34.78 85.16,71.26 175.54,71.26 191.19,0 255.49,-199.86 283.3,-286.77 13.9,-43.45 -10.44,-92.12 -55.62,-106.02zm-599.6 210.31c-46.92,-15.64 -72.77,-65.98 -57.36,-112.98l111.23 -338.92c12.51,-38.13 46.93,-62.57 85.16,-62.57 8.69,0 17.75,0.24 27.8,3.48 43.95,14.16 72.65,60.37 59.09,102.54l-112.96 351.08c-15.15,47.07 -66.07,72.97 -112.98,57.36zm1284.39 -210.31c-45.1,-14.14 -92.12,10.43 -106.02,55.62l-3.47 5.22c-34.77,112.98 -66.16,172.48 -114.7,159.9 -45.31,-11.74 -40.2,-71.32 -31.29,-102.54 8.46,-29.61 21.9,-76.67 33.02,-114.71 54.92,-187.9 -93.88,-260.7 -173.81,-300.67 -20.85,-10.42 -34.56,-19.37 -46.92,-29.55 -17.18,-14.14 -25.94,-39.97 -24.33,-64.31 0.11,-1.72 0,-3.48 0,-5.22 0,-3.48 0,-5.22 0,-8.69 0,0 0,0 0,0 0,-6.95 -1.22,-14.07 -3.47,-20.86 -8.17,-24.51 -27.97,-43 -53.88,-52.14 -3.64,-1.28 -6.95,-1.74 -8.69,-3.47 -5.22,0 -12.17,-1.75 -17.38,-1.75 -36.5,0 -69.69,22.56 -81.69,59.1l-156.41 476.21c-13.54,41.26 5.46,88.06 46.92,106.01 10.69,4.63 22.6,6.95 33.02,6.95 36.5,0 70.48,-22.26 81.68,-57.36l52.14 -163.37c24.56,-76.96 126.24,-98.54 177.28,-34.77 11.53,14.42 18.36,29.81 13.9,45.19 -11.19,38.53 -26.43,86.82 -34.76,116.46 -22.94,81.59 -10.63,172.22 34.76,234.64 38.02,52.27 93.84,83.67 159.91,86.89 5.19,0.24 10.41,0 15.63,0 172.07,0 233.81,-172.08 260.71,-279.81l1.74 -6.95c11.18,-44.81 -10.36,-92.37 -53.87,-106.02z"/>
   <path class="fil1" d="M6526.58 6147.63c-39.4,-26.08 -50.2,-79.19 -24.12,-118.59 26.08,-39.4 79.19,-50.2 118.59,-24.12 9.57,6.33 20.16,10.91 31.73,13.3 12.9,2.66 27.56,3.13 44.07,1.01 48.97,-6.29 92.51,-39.38 128.52,-83.95 53.38,-66.05 88.76,-154.16 104.18,-227.09 6.26,-29.63 19.63,-108.79 30.25,-181.94 7.73,-53.29 13.82,-101.1 14.16,-119.34 0.74,-47.17 39.58,-84.82 86.76,-84.08 47.17,0.74 84.82,39.58 84.08,86.76 -0.53,28.5 -7.16,83.33 -15.5,140.78 -10.95,75.41 -25.25,159.51 -32.26,192.67 -20.15,95.25 -67.03,211.18 -138.35,299.43 -61.61,76.25 -141.76,133.58 -240.4,146.27 -35.85,4.61 -69.06,3.31 -99.68,-3.02 -34.34,-7.11 -64.95,-20.18 -92.03,-38.08z"/>
   <path class="fil2" d="M3885.66 7218.41c13.92,14.93 24.55,32.01 31.87,51.25 7.32,19.24 10.91,39.19 10.91,59.87 0,22.97 -4.31,44.5 -12.93,64.61 -8.61,20.1 -20.52,37.76 -35.74,52.98 -15.22,15.22 -33.02,27.14 -53.13,35.74 -20.1,8.62 -41.63,12.93 -64.61,12.93 -37.32,0 -68.2,-8.62 -92.74,-25.84 -24.4,-17.37 -44.65,-39.91 -60.74,-67.91 -16.08,-27.85 -29.28,-59.59 -39.62,-95.33 -10.33,-35.6 -19.81,-71.93 -28.42,-108.83 -8.04,-33.88 -16.66,-67.19 -25.56,-99.64 -8.9,-32.44 -19.81,-62.45 -32.73,-90.02 -12.92,-27.57 -28.57,-51.83 -46.94,-72.78 -18.38,-20.96 -41.35,-36.61 -69.05,-46.95 0,-0.57 -0.29,-0.86 -0.87,-0.86 -21.24,-6.31 -42.21,-11.63 -62.88,-15.94 -20.67,-4.31 -39.34,-7.9 -55.99,-10.77 -19.53,-2.87 -38.34,-5.17 -56.14,-6.89 -61.45,-6.89 -112.85,4.02 -154.34,32.74 -17.8,13.2 -31.58,28.56 -41.34,46.09 -9.76,17.51 -14.65,35.45 -14.65,53.83 0,17.8 2.87,34.17 8.62,49.1 5.74,14.93 13.78,27.99 24.11,39.19 10.34,11.2 22.4,19.96 36.18,26.28 13.78,6.31 29,9.47 45.66,9.47 16.66,0 30.73,-2.87 42.21,-8.62 11.49,-5.74 21.1,-13.2 28.86,-22.4 7.75,-9.19 13.78,-19.38 18.09,-30.58 4.31,-11.2 7.61,-21.96 9.9,-32.3 2.29,-10.33 3.73,-19.67 4.31,-27.99 0.57,-8.33 0.86,-14.5 0.86,-18.52l0 -0.87 0 -58.57c0,-9.19 3.45,-16.79 10.34,-22.83 6.89,-6.03 14.93,-8.47 24.11,-7.32 7.47,1.15 13.64,4.45 18.52,9.9 4.89,5.46 7.32,12.21 7.32,20.25l0 59.44 0 1.73c0,24.69 -3.3,48.95 -9.9,72.78 -6.6,23.84 -16.66,44.94 -30.15,63.46 -13.49,18.52 -30.58,33.6 -51.25,45.23 -20.67,11.63 -45.09,17.51 -73.22,17.51 -24.69,0 -47.66,-4.74 -68.91,-14.21 -21.25,-9.47 -39.77,-22.4 -55.56,-38.77 -15.8,-16.37 -28.14,-35.75 -37.04,-58.14 -8.91,-22.4 -13.35,-46.51 -13.35,-72.36 0,-28.13 7.18,-55.27 21.53,-81.4 14.36,-26.13 34.46,-48.38 60.31,-66.76 35.03,-25.27 76.37,-40.2 124.04,-44.79 21.25,-2.3 38.77,-11.35 52.55,-27.14 13.78,-15.8 20.67,-34.32 20.67,-55.56l0 -6.89c0,-14.36 -2.72,-27.85 -8.18,-40.49 -5.46,-12.64 -12.93,-23.55 -22.4,-32.73 -9.47,-9.19 -20.38,-16.37 -32.73,-21.54 -12.35,-5.17 -25.7,-7.75 -40.06,-7.75l-1.72 0c-19.53,0 -32.74,6.03 -39.63,18.09 -5.73,10.33 -5.17,20.38 1.73,30.15 6.32,10.34 18.09,14.64 35.31,12.93 8.62,-1.15 16.23,1.29 22.83,7.32 6.61,6.02 9.91,13.63 9.91,22.83 0,8.04 -2.87,14.79 -8.62,20.25 -5.74,5.46 -12.64,8.76 -20.67,9.9l-9.47 0c-35.04,0 -61.45,-13.21 -79.26,-39.62 -9.19,-13.78 -14.21,-29 -15.07,-45.66 -0.87,-16.66 2.72,-32.16 10.77,-46.51 8.61,-16.09 20.95,-28.43 37.04,-37.04 16.08,-8.62 34.46,-12.93 55.13,-12.93 18.95,0 35.31,-2.29 49.1,-6.89 13.78,-4.6 25.27,-9.76 34.46,-15.51 9.19,-5.74 15.94,-11.2 20.25,-16.37 4.3,-5.17 6.45,-8.04 6.45,-8.62 4.6,-6.89 11.06,-11.05 19.39,-12.49 8.33,-1.44 15.94,0.14 22.83,4.74 8.61,6.31 12.92,14.93 12.92,25.84 0,4.6 2.01,7.47 6.03,8.62 4.02,1.15 7.47,0 10.33,-3.45 16.8,-20.1 37.77,-31.86 63.18,-35.31 1.72,-0.57 4.02,-0.86 6.89,-0.86l3.44 0 1.73 0 3.44 0c62.74,1.73 112.28,20.96 148.6,57.71 16.66,17.22 29.14,37.61 37.18,61.15 8.04,23.55 12.07,49.39 12.07,77.53 0,26.42 -5.03,51.25 -15.08,74.51 -10.05,23.26 -24.26,43.79 -42.64,61.59 -12.63,12.64 -19.38,27.85 -20.24,45.66 -0.87,17.8 4.45,33.6 15.94,47.38 7.46,9.19 14.93,19.81 22.39,31.86 22.4,35.6 39.91,74.66 52.55,117.15 12.64,42.5 23.98,85.28 34.32,128.35 9.19,39.05 18.37,74.08 27.57,105.1 9.05,31.01 19.67,57.28 31.72,78.82 12.06,21.53 26.28,38.05 42.5,49.53 16.37,11.49 36.61,17.23 60.59,17.23 14.36,0 27.99,-2.87 41.21,-8.62 13.2,-5.74 24.54,-13.35 34.03,-22.83 9.32,-9.47 16.93,-20.67 22.68,-33.59 5.74,-12.93 8.62,-26.57 8.62,-40.92 0,-27 -8.91,-50.25 -26.71,-69.78 -5.17,-6.31 -7.9,-13.49 -8.18,-21.53 -0.29,-8.04 2.72,-15.22 9.05,-21.53 6.31,-6.32 13.63,-9.2 21.96,-8.62 8.47,0.58 15.51,4.02 21.39,10.34zm-540.39 -404.01c20.1,0 39.04,-3.59 56.85,-10.77 17.81,-7.17 33.31,-16.93 46.52,-29.28 13.2,-12.35 23.69,-26.71 31.44,-43.07 7.76,-16.37 11.63,-34.03 11.63,-52.98 0,-15.51 -1.86,-31.16 -5.59,-46.94 -3.73,-15.8 -10.91,-30.3 -21.53,-43.5 -10.63,-13.21 -25.13,-23.98 -43.5,-32.3 -18.38,-8.33 -42.22,-12.78 -71.5,-13.35 -9.76,0.58 -17.95,4.16 -24.55,10.77 -6.6,6.6 -9.9,14.78 -9.9,24.54 0,11.49 4.74,20.96 14.21,28.43 9.47,7.46 20.25,9.47 32.3,6.02 5.17,-1.73 10.05,-4.88 14.64,-9.47 6.32,-5.74 13.64,-8.47 21.97,-8.18 8.33,0.28 15.36,3.58 21.1,9.9 5.74,6.31 8.33,13.49 7.75,21.53 -0.57,8.04 -4.02,15.22 -10.33,21.54 -18.38,17.22 -40.49,25.84 -66.33,25.84 -21.82,0 -40.49,-6.03 -55.99,-18.09 -7.47,-5.17 -15.22,-5.74 -23.26,-1.73 -8.05,4.02 -12.07,10.91 -12.07,20.67l0 104.23c0,8.05 2.3,15.37 6.89,21.97 4.6,6.6 10.91,11.34 18.96,14.21l0.86 0 59.44 0zm397.11 -155.92c-17.8,0 -32.73,6.03 -44.79,18.09 -12.06,12.07 -18.09,27 -18.09,44.8 0,17.22 6.03,32.01 18.09,44.36 12.06,12.35 26.99,18.52 44.79,18.52l8.62 0c8.04,0 15.08,3.01 21.1,9.05 6.03,6.03 8.77,13.35 8.19,21.96 0,8.05 -3.16,14.94 -9.47,20.67 -6.32,5.74 -13.49,8.62 -21.54,8.62l-6.89 0c-17.8,0 -32.73,6.17 -44.79,18.52 -12.06,12.35 -18.09,27.14 -18.09,44.37 0,17.8 6.03,32.73 18.09,44.79 12.06,12.06 26.99,18.09 44.79,18.09l24.98 0c8.62,0 15.8,3.01 21.54,9.05 5.74,6.02 8.61,13.35 8.61,21.96 -0.57,8.04 -3.87,14.93 -9.9,20.67 -6.03,5.74 -13.06,8.62 -21.1,8.62l-117.15 0c-8.04,0 -15.07,-3.01 -21.1,-9.05 -6.03,-6.03 -9.05,-13.06 -9.05,-21.1l0 -372.14c0,-8.61 3.01,-15.79 9.05,-21.53 6.03,-5.74 13.06,-8.62 21.1,-8.62l117.15 0c8.04,0 15.07,2.87 21.1,8.62 6.03,5.74 9.33,12.64 9.9,20.67 0,8.04 -2.86,15.22 -8.61,21.53 -5.74,6.32 -12.93,9.47 -21.54,9.47l-24.98 0zm211.05 126.63c12.06,5.74 24.69,12.07 37.91,18.96 13.2,6.89 25.12,15.22 35.74,24.97 10.62,9.76 19.39,21.39 26.28,34.9 6.89,13.49 10.33,29.43 10.33,47.8 0,17.23 -3.16,33.46 -9.47,48.68 -6.31,15.21 -15.08,28.42 -26.27,39.62 -11.2,11.2 -24.26,20.1 -39.19,26.7 -14.94,6.61 -31.02,9.91 -48.24,9.91 -22.4,0 -43.21,-5.89 -62.46,-17.66 -19.24,-11.77 -34.31,-27.71 -45.22,-47.81 -4.6,-7.46 -5.6,-15.07 -3.01,-22.83 2.58,-7.75 7.61,-13.63 15.07,-17.65 7.47,-4.02 15.08,-4.89 22.83,-2.59 7.75,2.3 13.64,7.18 17.66,14.65 5.74,10.33 13.49,18.52 23.26,24.55 9.76,6.02 20.38,9.04 31.87,9.04 17.22,0 32.01,-6.17 44.36,-18.52 12.35,-12.35 18.52,-27.71 18.52,-46.09 0,-17.22 -6.6,-30.72 -19.82,-40.48 -13.2,-9.76 -31.87,-20.38 -55.99,-31.87 -12.06,-5.74 -24.26,-11.92 -36.61,-18.52 -12.35,-6.6 -23.69,-14.5 -34.03,-23.69 -10.33,-9.2 -18.8,-20.11 -25.41,-32.74 -6.6,-12.63 -9.9,-27.57 -9.9,-44.79 0,-17.8 3.16,-34.46 9.47,-49.97 6.32,-15.5 14.79,-29 25.41,-40.48 10.62,-11.49 23.12,-20.53 37.47,-27.14 14.36,-6.6 29.87,-9.9 46.52,-9.9 21.82,0 41.92,5.73 60.3,17.22 18.37,11.49 32.73,27.28 43.06,47.38 4.03,7.46 4.89,15.07 2.59,22.83 -2.3,7.75 -7.18,13.63 -14.65,17.65 -7.46,4.02 -15.07,4.89 -22.83,2.58 -7.75,-2.29 -13.63,-7.17 -17.65,-14.64 -12.07,-21.82 -29,-32.73 -50.82,-32.73 -16.66,0 -30.59,6.6 -41.79,19.81 -11.19,13.21 -16.79,29 -16.79,47.38 0,14.93 5.6,26.71 16.79,35.31 11.2,8.62 29.44,18.67 54.7,30.15zm281.68 -192.95c20.11,0 39.05,5.73 56.86,17.22 17.8,11.49 33.17,27.14 46.09,46.94 12.93,19.82 23.12,43.36 30.58,70.64 7.47,27.28 11.2,56.43 11.2,87.43 0,31.02 -3.73,60.16 -11.2,87.43 -7.46,27.28 -17.65,50.82 -30.58,70.64 -12.92,19.81 -28.28,35.45 -46.09,46.94 -17.8,11.49 -36.75,17.23 -56.86,17.23 -20.1,0 -38.91,-5.74 -56.42,-17.23 -17.51,-11.49 -32.73,-27.14 -45.66,-46.94 -12.92,-19.82 -23.12,-43.36 -30.58,-70.64 -7.47,-27.28 -11.2,-56.42 -11.2,-87.43 0,-31.01 3.73,-60.16 11.2,-87.43 7.46,-27.28 17.66,-50.82 30.58,-70.64 12.93,-19.81 28.14,-35.45 45.66,-46.94 17.51,-11.49 36.32,-17.22 56.42,-17.22zm0 384.18c9.76,0 19.68,-4.02 29.72,-12.06 10.05,-8.04 19.1,-19.09 27.14,-33.16 8.04,-14.07 14.65,-31.02 19.82,-50.82 5.17,-19.82 7.75,-41.78 7.75,-65.9 0,-24.11 -2.58,-46.09 -7.75,-65.89 -5.17,-19.82 -11.78,-36.76 -19.82,-50.83 -8.04,-14.06 -17.08,-25.12 -27.14,-33.16 -10.04,-8.04 -19.96,-12.06 -29.72,-12.06 -9.75,0 -19.67,4.02 -29.71,12.06 -10.05,8.04 -19.1,19.1 -27.14,33.16 -8.04,14.07 -14.5,31.02 -19.39,50.83 -4.88,19.81 -7.32,41.78 -7.32,65.89 0,24.12 2.44,46.09 7.32,65.9 4.89,19.81 11.35,36.75 19.39,50.82 8.04,14.07 17.08,25.12 27.14,33.16 10.04,8.04 19.96,12.06 29.71,12.06zm424.68 -230.86c0,20.11 -3.16,38.91 -9.48,56.43 -6.31,17.51 -15.21,32.87 -26.7,46.09 -8.62,10.33 -13.92,22.11 -15.94,35.31 -2.01,13.2 0.14,25.55 6.46,37.04l32.73 65.47c4.02,7.46 4.88,15.07 2.58,22.82 -2.29,7.76 -6.89,13.64 -13.78,17.66 -3.44,2.87 -8.33,4.31 -14.64,4.31 -12.06,0 -21.25,-5.46 -27.57,-16.37l-51.69 -104.23c-6.89,-11.49 -16.37,-17.23 -28.42,-17.23l-0.86 0c-8.62,0 -15.94,3.16 -21.97,9.47 -6.03,6.32 -9.05,13.78 -9.05,22.4l0 75.81c0,8.62 -3.01,15.94 -9.05,21.96 -6.02,6.03 -13.35,8.77 -21.96,8.19 -8.04,-0.58 -14.93,-3.88 -20.67,-9.9 -5.74,-6.03 -8.62,-13.06 -8.62,-21.1l0 -371.28c0,-8.61 3.01,-15.79 9.05,-21.53 6.03,-5.74 13.06,-8.62 21.1,-8.62l79.25 0c17.81,0 34.61,3.88 50.39,11.63 15.8,7.76 29.43,18.38 40.92,31.87 11.49,13.49 20.67,29.14 27.57,46.95 6.89,17.8 10.34,36.75 10.34,56.85zm-129.22 87.86c9.2,0 18.09,-2.29 26.71,-6.89 8.62,-4.59 15.94,-10.91 21.97,-18.95 6.02,-8.04 10.91,-17.37 14.64,-27.99 3.73,-10.62 5.59,-21.97 5.59,-34.03 0,-24.11 -6.74,-44.65 -20.24,-61.59 -13.5,-16.93 -29.72,-25.41 -48.68,-25.41 -13.77,0 -25.41,4.74 -34.89,14.22 -9.47,9.47 -14.21,21.1 -14.21,34.89l0 75.81c0,13.78 4.74,25.55 14.21,35.31 9.47,9.76 21.11,14.64 34.89,14.64zm361.79 -235.17c9.2,0 16.8,3.3 22.83,9.91 6.03,6.6 8.48,14.5 7.33,23.69 -1.16,8.04 -4.6,14.5 -10.34,19.38 -5.74,4.89 -12.64,7.32 -20.67,7.32 -18.38,0 -33.74,6.17 -46.09,18.52 -12.35,12.35 -18.52,27.72 -18.52,46.09l0 277.38c0,8.62 -3.16,15.94 -9.47,21.96 -6.31,6.03 -13.49,8.77 -21.53,8.19 -8.62,-0.58 -15.66,-3.88 -21.11,-9.9 -5.46,-6.03 -8.18,-13.06 -8.18,-21.1l0 -276.52c0,-18.37 -6.32,-33.74 -18.95,-46.09 -12.64,-12.35 -28.14,-18.52 -46.52,-18.52l-0.86 0c-8.62,0 -15.94,-3.15 -21.96,-9.47 -6.03,-6.31 -8.77,-13.49 -8.19,-21.53 0.58,-8.04 3.88,-14.93 9.9,-20.67 6.03,-5.74 13.06,-8.62 21.1,-8.62l191.23 0zm951.01 365.24l0 0.86 0 108.54c0,8.62 -2.87,15.8 -8.77,21.54 -5.73,5.74 -13.06,8.61 -21.82,8.61 -8.18,0 -15.22,-2.86 -20.95,-8.61 -5.89,-5.74 -8.77,-12.93 -8.77,-21.54 0,-29.28 -8.33,-56.28 -24.97,-80.97 -16.66,-24.69 -38.77,-42.78 -66.33,-54.26 -8.04,-3.45 -16.52,-6.89 -25.41,-10.34 -8.91,-3.44 -18.24,-6.89 -27.99,-10.33 0,0 -1.73,-0.58 -5.18,-1.73 -0.57,0 -4.88,-1.15 -12.92,-3.45 -8.04,-2.29 -16.8,-4.88 -26.28,-7.75 -9.47,-2.87 -18.23,-5.46 -26.27,-7.75 -8.04,-2.3 -12.35,-3.45 -12.93,-3.45 -28.13,-6.31 -56.71,-10.62 -85.71,-12.92 -29,-2.3 -57.14,-1.16 -84.42,3.44 -27.28,4.6 -52.98,13.49 -77.09,26.71 -24.12,13.2 -45.08,31.86 -62.88,55.99 -14.94,20.1 -24.41,40.05 -28.43,59.87 -4.02,19.82 -2,38.34 6.03,55.56 7.46,16.66 19.67,30.58 36.61,41.78 16.94,11.2 36.32,17.95 58.14,20.25 29.29,2.29 57.57,-4.02 84.85,-18.95 27.28,-14.93 51.25,-37.33 71.93,-67.19l55.99 -101.66c6.32,-10.91 15.22,-18.66 26.71,-23.26 11.49,-4.59 23.26,-5.17 35.31,-1.72 4.6,1.15 7.9,3.87 9.91,8.18 2,4.31 1.86,8.76 -0.44,13.35l-75.8 136.1 -0.87 0c0,0.58 -0.14,0.86 -0.43,0.86 -0.29,0 -0.43,0.29 -0.43,0.87 -25.27,36.75 -54.56,64.89 -87.86,84.41 -33.31,19.53 -68.62,29.29 -105.95,29.29 -2.87,0 -5.89,0 -9.05,0 -3.16,0 -6.17,-0.29 -9.05,-0.86 -32.73,-2.87 -62.02,-12.93 -87.86,-30.15 -25.85,-17.23 -44.8,-39.62 -56.86,-67.19 -3.45,-8.05 -6.75,-18.09 -9.9,-30.16 -3.16,-12.06 -4.46,-25.55 -3.88,-40.48 0.58,-14.93 4.02,-31.3 10.33,-49.1 6.32,-17.81 17.23,-36.47 32.74,-56 22.97,-29.28 48.67,-51.83 77.09,-67.62 28.43,-15.8 57.29,-27 86.58,-33.6 29.28,-6.6 58,-9.76 86.14,-9.47 28.14,0.29 53.13,2.15 74.95,5.6 22.97,2.87 44.94,-0.87 65.89,-11.2 20.96,-10.34 37.19,-25.56 48.67,-45.66l71.5 -128.35c5.18,-8.62 7.47,-17.65 6.89,-27.14 -0.57,-9.47 -3.01,-17.94 -7.32,-25.41 -4.31,-7.46 -10.48,-13.63 -18.52,-18.52 -8.04,-4.88 -16.93,-7.32 -26.7,-7.32l-1.73 0c-17.8,0 -31.3,3.73 -40.49,11.2 -5.73,4.6 -8.61,9.47 -8.61,14.64 0,4.6 2.29,8.33 6.89,11.2 4.59,2.87 10.91,4.31 18.95,4.31 8.62,0 15.94,3.3 21.96,9.9 6.03,6.61 8.48,14.5 7.33,23.7 -1.16,8.04 -4.6,14.5 -10.34,19.38 -5.74,4.89 -12.64,7.32 -20.67,7.32 -13.78,0 -25.84,-2.29 -36.18,-6.89 -10.33,-4.59 -19.09,-10.48 -26.27,-17.65 -7.18,-7.18 -12.49,-15.22 -15.94,-24.12 -3.44,-8.9 -5.17,-17.94 -5.17,-27.14 0,-11.48 2.58,-22.54 7.75,-33.16 5.17,-10.62 12.64,-19.96 22.4,-27.99 20.1,-16.66 46.23,-24.98 78.39,-24.98 44.79,0 79.82,-2.87 105.24,-8.62 25.41,-5.74 38.34,-8.61 38.91,-8.61 0,0 0.29,-0.29 0.87,-0.87l0.86 0 0.86 0 0.87 0c0.72,0 1.29,-0.29 1.86,-0.86l0.86 0 0.87 0 0.86 0 1.73 0 1.72 0 0.87 0 1.73 0 1 0.86 0.87 0 0.86 0 1.73 0 0 0.87 0.86 0 0.87 0 0.86 0c0,0.57 0.29,0.86 0.86,0.86l0.87 0c0,0.57 0.28,0.86 0.86,0.86l1.01 0c0,0.58 0.29,0.87 0.86,0.87l0.87 0.86 0.86 0 0 0.86c0.58,0 1.15,0.29 1.73,0.87 0.57,0 0.86,0.29 0.86,0.86l0.86 0.87c0,0 0.29,0.28 0.87,0.86l0.86 0 0 0.86 0.87 0.87c0,0 0.28,0.28 0.86,0.86l0 0.86c0.72,0 1.01,0.29 1.01,0.87l0.86 0.86 0 0.86c0,0 0.29,0.29 0.86,0.87l0 0.86c0,0 0.29,0.29 0.87,0.87l0 0.86c0,0 0.29,0.29 0.86,0.86l0 0.87 0 0.86c0,0.58 0.29,0.86 0.87,0.86l0 1.73 0 1.73 0 0.86c0.57,0 0.86,0.29 0.86,0.87l0 0.86 0 1.73 -0.86 451.38zm-60.31 -275.66c0,-4.02 -1.15,-7.32 -3.44,-9.9 -2.29,-2.58 -5.03,-4.31 -8.19,-5.17 -3.15,-0.87 -6.45,-0.72 -9.9,0.43 -3.44,1.15 -6.31,3.44 -8.62,6.89l-69.77 125.76c-4.02,6.89 -6.31,14.07 -6.89,21.54 -0.58,7.46 0.43,14.64 3.01,21.53 2.58,6.89 6.32,13.06 11.2,18.52 4.89,5.46 11.06,9.62 18.52,12.5l1.73 0c8.62,3.44 17.22,4.74 25.84,3.87 8.62,-0.86 16.37,-3.73 23.26,-8.62 6.89,-4.88 12.5,-11.05 16.8,-18.52 4.3,-7.46 6.45,-15.79 6.45,-24.97l0 -143.86zm265.31 282.55c8.04,0 15.08,2.87 21.1,8.62 6.03,5.73 9.33,12.63 9.91,20.67 0,8.61 -2.87,15.93 -8.62,21.96 -5.74,6.03 -12.93,9.05 -21.53,9.05l-111.99 0c-8.04,0 -15.07,-3.01 -21.1,-9.05 -6.03,-6.03 -9.05,-13.06 -9.05,-21.1l0 -372.14c0,-8.61 3.01,-15.94 9.05,-21.96 6.03,-6.03 13.35,-8.76 21.96,-8.19 8.05,0 14.94,3.16 20.67,9.47 5.74,6.32 8.62,13.5 8.62,21.54l0 260.15c0,11.48 2.15,22.11 6.46,31.87 4.31,9.75 10.05,18.23 17.22,25.41 7.18,7.17 15.66,12.92 25.41,17.22 9.76,4.31 20.39,6.46 31.87,6.46zm215.36 0c8.04,0 15.08,2.87 21.1,8.62 6.03,5.73 9.33,12.63 9.91,20.67 0,8.61 -2.87,15.93 -8.62,21.96 -5.74,6.03 -12.93,9.05 -21.53,9.05l-111.99 0c-8.04,0 -15.07,-3.01 -21.1,-9.05 -6.03,-6.03 -9.05,-13.06 -9.05,-21.1l0 -372.14c0,-8.61 3.01,-15.94 9.05,-21.96 6.03,-6.03 13.35,-8.76 21.96,-8.19 8.05,0 14.94,3.16 20.67,9.47 5.74,6.32 8.62,13.5 8.62,21.54l0 260.15c0,11.48 2.15,22.11 6.46,31.87 4.31,9.75 10.05,18.23 17.22,25.41 7.18,7.17 15.66,12.92 25.41,17.22 9.76,4.31 20.39,6.46 31.87,6.46zm298.06 -372.14c8.04,0 15.08,2.87 21.1,8.62 6.03,5.74 9.05,12.93 9.05,21.53l0 372.14c0,8.04 -3.01,15.07 -9.05,21.1 -6.02,6.03 -13.06,9.05 -21.1,9.05 -8.04,0 -15.07,-3.01 -21.1,-9.05 -6.03,-6.03 -9.05,-13.06 -9.05,-21.1l0 -372.14c0,-8.61 3.01,-15.79 9.05,-21.53 6.03,-5.74 13.06,-8.62 21.1,-8.62zm302.35 0c8.62,-0.57 15.94,2.15 21.97,8.19 6.02,6.02 9.04,13.35 9.04,21.96l0 372.14 0 0.86 0 1.73 0 0.86c0,0.58 -0.14,0.87 -0.43,0.87 -0.29,0 -0.43,0.29 -0.43,0.86l0 1.73 0 0.86c0,0 -0.29,0.58 -0.86,1.73l0 0.86c0,0.58 -0.15,0.87 -0.43,0.87 -0.29,0 -0.44,0.29 -0.44,0.86l0 0.87 -1.72 1.72 0 0.87c-0.58,0.57 -0.87,1.15 -0.87,1.72 -0.57,0 -0.86,0.29 -0.86,0.87l-0.87 0.86c-1.15,1.15 -1.72,1.73 -1.72,1.73 0,0 -0.29,0.29 -0.87,0.86 0,0 -0.28,0.29 -0.86,0.87 0,0.57 -0.29,0.86 -0.86,0.86 0,0.58 -0.29,0.86 -0.87,0.86 -0.57,0.58 -1.15,0.87 -1.73,0.87 0,0.57 -0.28,0.86 -0.86,0.86 -0.57,0 -0.86,0.15 -0.86,0.43 0,0.29 -0.29,0.44 -0.87,0.44l-0.86 0c-0.58,0.57 -1.01,0.86 -1.3,0.86 -0.28,0 -0.72,0.29 -1.29,0.86l-0.87 0c-0.57,0 -0.86,0.15 -0.86,0.43 0,0.29 -0.29,0.44 -0.86,0.44l-1.73 0c0,0 -0.58,0.28 -1.73,0.86l-0.86 0 -2.58 0 -0.87 0 -3.44 0 -1.73 0c-0.57,-0.58 -1.44,-0.86 -2.58,-0.86l-0.86 0c0,0 -1.16,-0.58 -3.45,-1.73 0,0 -1.15,-0.58 -3.44,-1.73l-0.87 0c-1.15,-1.15 -1.72,-1.73 -1.72,-1.73 -0.58,0 -0.87,-0.28 -0.87,-0.86l-2.58 -2.58c0,0 -0.29,-0.29 -0.86,-0.86 0,0 -0.58,-0.58 -1.73,-1.73l-0.86 -0.87c0,0 -0.58,-1.15 -1.73,-3.44l-91.31 -179.18c-2.87,-5.17 -6.6,-8.62 -11.2,-10.33 -4.59,-1.73 -9.05,-2.01 -13.35,-0.87 -4.3,1.15 -8.18,3.59 -11.63,7.32 -3.44,3.74 -5.17,8.48 -5.17,14.22l0 155.05c0,8.62 -3.01,15.94 -9.05,21.96 -6.02,6.03 -13.35,8.77 -21.96,8.19 -8.04,-0.58 -14.93,-3.88 -20.67,-9.9 -5.74,-6.03 -8.62,-13.06 -8.62,-21.1l0 -371.28 0 -0.86 0 -1.73 0 -0.86 0 -1.73c0.58,-0.57 0.86,-1.15 0.86,-1.73l0 -0.86c0,-0.58 0.29,-1.15 0.87,-1.73l0 -0.86c0,-0.58 0.29,-1.15 0.86,-1.73l0 -0.86c0.58,-0.58 0.86,-1.15 0.86,-1.73l0.87 -0.86c0,-0.58 0.14,-0.87 0.43,-0.87 0.29,0 0.43,-0.29 0.43,-0.86 0,0 0.29,-0.58 0.87,-1.73 0,0 0.28,-0.29 0.86,-0.86l0.86 -0.87c0.58,0 0.87,-0.28 0.87,-0.86 0.57,0 0.86,-0.14 0.86,-0.43 0,-0.29 0.29,-0.43 0.86,-0.43 0,-0.58 0.29,-0.87 0.87,-0.87 0,-0.57 0.29,-0.86 0.86,-0.86 0.58,-0.58 1.15,-0.87 1.73,-0.87 0,-0.57 0.29,-0.86 0.86,-0.86 0,0 0.58,-0.29 1.73,-0.86 0,0 0.29,-0.29 0.86,-0.87 0,0 0.58,-0.28 1.73,-0.86l0.87 0c0.57,0 0.86,-0.14 0.86,-0.43 0,-0.29 0.29,-0.43 0.86,-0.43l1.73 0c0,0 0.29,-0.29 0.86,-0.87l1.73 0 1.73 0 1.73 0 0.86 0 1.73 0 1.73 0 0.86 0c0.58,0 1.15,0.29 1.73,0.87l0.86 0c1.15,0 2.01,0.28 2.58,0.86 1.15,0 2.01,0.29 2.58,0.86l0.87 0c0,0 0.57,0.29 1.72,0.87l0.87 0.86 0.86 0.86c0.58,0 1.15,0.29 1.73,0.87 0.58,0 0.86,0.29 0.86,0.86 0.58,0 0.87,0.15 0.87,0.43 0,0.29 0.28,0.44 0.86,0.44 0,0.57 0.29,0.86 0.86,0.86 0,0.58 0.15,0.86 0.44,0.86 0.28,0 0.43,0.29 0.43,0.87 0,0 0.29,0.29 0.86,0.86l0.87 0.86c0,0.58 0.14,0.87 0.43,0.87 0.29,0 0.43,0.29 0.43,0.86l0.86 0.87c0,0 0.29,0.57 0.87,1.72l91.3 178.32c2.3,5.17 5.89,8.62 10.77,10.33 4.88,1.73 9.47,2.15 13.78,1.3 4.31,-0.87 8.19,-3.16 11.63,-6.89 3.45,-3.73 5.17,-8.48 5.17,-14.21l0 -154.19c0,-8.04 2.87,-15.22 8.62,-21.54 5.74,-6.31 12.64,-9.47 20.67,-9.47z"/>
   <path class="fil2" d="M7076.92 6652.46c-9.76,0 -19.38,4.02 -28.85,12.06 -9.47,8.04 -18.09,19.1 -25.84,33.16 -7.76,14.07 -14.07,31.02 -18.96,50.83 -4.88,19.81 -7.32,41.78 -7.32,65.89 0,24.12 2.44,46.09 7.32,65.9 4.89,19.81 11.2,36.75 18.96,50.82 7.75,14.07 16.37,25.12 25.84,33.16 9.47,8.04 19.09,12.06 28.85,12.06 11.49,0 22.54,-4.88 33.17,-14.64 10.62,-9.76 19.96,-23.55 27.99,-41.35 3.44,-8.04 8.9,-13.49 16.37,-16.37 7.47,-2.87 15.22,-2.58 23.26,0.86 8.04,3.45 13.35,9.05 15.94,16.8 2.58,7.75 2.15,15.36 -1.3,22.83 -13.2,29.28 -29.71,51.97 -49.53,68.05 -19.82,16.08 -41.78,24.12 -65.9,24.12 -20.1,0 -38.62,-5.74 -55.56,-17.23 -16.93,-11.49 -31.87,-27.14 -44.79,-46.94 -12.93,-19.82 -22.98,-43.36 -30.15,-70.64 -7.18,-27.28 -10.77,-56.42 -10.77,-87.43 0,-31.01 3.59,-60.16 10.77,-87.43 7.17,-27.28 17.22,-50.82 30.15,-70.64 12.92,-19.81 27.85,-35.45 44.79,-46.94 16.94,-11.49 35.46,-17.22 55.56,-17.22 24.12,0 46.09,7.89 65.9,23.69 19.82,15.79 36.32,38.34 49.53,67.62 3.45,8.04 3.88,15.94 1.3,23.7 -2.58,7.75 -7.9,13.34 -15.94,16.79 -8.04,3.44 -15.79,3.73 -23.26,0.86 -7.47,-2.87 -12.93,-8.33 -16.37,-16.37 -8.04,-17.8 -17.37,-31.58 -27.99,-41.35 -10.63,-9.76 -21.68,-14.64 -33.17,-14.64zm303.22 317.86c8.04,0 15.08,2.87 21.1,8.62 6.03,5.73 9.33,12.63 9.91,20.67 0,8.61 -2.87,15.93 -8.62,21.96 -5.74,6.03 -12.93,9.05 -21.53,9.05l-111.99 0c-8.04,0 -15.07,-3.01 -21.1,-9.05 -6.03,-6.03 -9.05,-13.06 -9.05,-21.1l0 -372.14c0,-8.61 3.01,-15.94 9.05,-21.96 6.03,-6.03 13.35,-8.76 21.96,-8.19 8.05,0 14.94,3.16 20.67,9.47 5.74,6.32 8.62,13.5 8.62,21.54l0 260.15c0,11.48 2.15,22.11 6.46,31.87 4.31,9.75 10.05,18.23 17.22,25.41 7.18,7.17 15.66,12.92 25.41,17.22 9.76,4.31 20.39,6.46 31.87,6.46zm264.03 -372.14c8.77,0 16.09,2.87 21.83,8.62 5.88,5.74 8.76,12.93 8.76,21.53l0 186.07c0,9.19 -0.15,21.1 -0.43,35.75 -0.29,14.64 -1.73,30.15 -4.31,46.51 -2.58,16.37 -6.32,32.87 -11.2,49.53 -4.89,16.66 -12.21,31.73 -21.68,45.23 -9.47,13.49 -21.39,24.4 -35.89,32.73 -14.35,8.33 -32.16,12.5 -53.55,12.5 -21.25,0 -39.34,-4.17 -53.98,-12.5 -14.79,-8.33 -26.85,-19.24 -36.32,-32.73 -9.47,-13.49 -16.66,-28.57 -21.68,-45.23 -4.89,-16.66 -8.62,-33.16 -11.2,-49.53 -2.58,-16.37 -4.02,-31.87 -4.31,-46.51 -0.29,-14.65 -0.43,-26.57 -0.43,-35.75l0 -186.07c0,-8.61 3.01,-15.79 9.05,-21.53 6.03,-5.74 13.06,-8.62 21.1,-8.62 8.04,0 15.08,2.87 21.1,8.62 6.03,5.74 9.05,12.93 9.05,21.53l0 186.07c0,67.19 8.04,113.42 24.12,138.69 5.17,8.04 11.05,13.93 17.65,17.66 6.61,3.73 15.08,5.59 25.41,5.59 18.96,0 33.31,-7.75 43.07,-23.26 16.08,-26.99 24.12,-73.21 24.12,-138.69l0 -186.07c0,-8.61 2.86,-15.79 8.76,-21.53 5.73,-5.74 12.78,-8.62 20.95,-8.62zm197.7 186.93c12.06,5.74 24.69,12.07 37.91,18.96 13.2,6.89 25.12,15.22 35.74,24.97 10.62,9.76 19.39,21.39 26.28,34.9 6.89,13.49 10.33,29.43 10.33,47.8 0,17.23 -3.16,33.46 -9.47,48.68 -6.31,15.21 -15.08,28.42 -26.27,39.62 -11.2,11.2 -24.26,20.1 -39.19,26.7 -14.94,6.61 -31.02,9.91 -48.24,9.91 -22.4,0 -43.21,-5.89 -62.46,-17.66 -19.24,-11.77 -34.31,-27.71 -45.22,-47.81 -4.6,-7.46 -5.6,-15.07 -3.01,-22.83 2.58,-7.75 7.61,-13.63 15.07,-17.65 7.47,-4.02 15.08,-4.89 22.83,-2.59 7.75,2.3 13.64,7.18 17.66,14.65 5.74,10.33 13.49,18.52 23.26,24.55 9.76,6.02 20.38,9.04 31.87,9.04 17.22,0 32.01,-6.17 44.36,-18.52 12.35,-12.35 18.52,-27.71 18.52,-46.09 0,-17.22 -6.6,-30.72 -19.82,-40.48 -13.2,-9.76 -31.87,-20.38 -55.99,-31.87 -12.06,-5.74 -24.26,-11.92 -36.61,-18.52 -12.35,-6.6 -23.69,-14.5 -34.03,-23.69 -10.33,-9.2 -18.8,-20.11 -25.41,-32.74 -6.6,-12.63 -9.9,-27.57 -9.9,-44.79 0,-17.8 3.16,-34.46 9.47,-49.97 6.32,-15.5 14.79,-29 25.41,-40.48 10.62,-11.49 23.12,-20.53 37.47,-27.14 14.36,-6.6 29.87,-9.9 46.52,-9.9 21.82,0 41.92,5.73 60.3,17.22 18.37,11.49 32.73,27.28 43.06,47.38 4.03,7.46 4.89,15.07 2.59,22.83 -2.3,7.75 -7.18,13.63 -14.65,17.65 -7.46,4.02 -15.07,4.89 -22.83,2.58 -7.75,-2.29 -13.63,-7.17 -17.65,-14.64 -12.07,-21.82 -29,-32.73 -50.82,-32.73 -16.66,0 -30.59,6.6 -41.79,19.81 -11.19,13.21 -16.79,29 -16.79,47.38 0,14.93 5.6,26.71 16.79,35.31 11.2,8.62 29.44,18.67 54.7,30.15zm194.68 -186.93c8.04,0 15.08,2.87 21.1,8.62 6.03,5.74 9.05,12.93 9.05,21.53l0 372.14c0,8.04 -3.01,15.07 -9.05,21.1 -6.02,6.03 -13.06,9.05 -21.1,9.05 -8.04,0 -15.07,-3.01 -21.1,-9.05 -6.03,-6.03 -9.05,-13.06 -9.05,-21.1l0 -372.14c0,-8.61 3.01,-15.79 9.05,-21.53 6.03,-5.74 13.06,-8.62 21.1,-8.62zm323.9 0.87c8.04,2.29 14.07,7.03 18.09,14.21 4.02,7.18 4.88,14.79 2.58,22.83l-104.23 372.99c0,0.57 -0.58,2 -1.73,4.31l0 0.86c-1.15,1.15 -1.73,2.29 -1.73,3.44l-0.86 0c-0.58,0.58 -1.01,1.16 -1.3,1.73 -0.29,0.58 -0.72,1.15 -1.29,1.73l0 0.86c-1.15,0.58 -2.3,1.44 -3.45,2.58l-0.86 0c-1.15,1.16 -2.3,2.01 -3.45,2.59 -1.15,0.57 -1.86,0.86 -2.15,0.86 -0.28,0 -1,0.29 -2.15,0.86l-0.86 0c0,0.58 -0.29,0.87 -0.86,0.87l-1.73 0c-0.58,0 -0.86,0.14 -0.86,0.43 0,0.29 -0.29,0.43 -0.87,0.43l-4.31 0 -4.31 0c-0.57,0 -1.15,-0.29 -1.72,-0.86l-2.58 0 -0.87 -0.87 -0.86 0c-0.58,-0.57 -1.15,-0.86 -1.73,-0.86 -0.57,0 -1.15,-0.29 -1.73,-0.86l-0.86 0c-1.15,-1.16 -2.29,-2.01 -3.45,-2.59 -1.15,-0.57 -2.29,-1.44 -3.44,-2.58 0,-0.57 -0.29,-0.86 -0.86,-0.86 -1.16,-1.15 -2.01,-2.29 -2.59,-3.45 -1.15,-2.29 -1.72,-3.44 -1.72,-3.44l-0.87 -0.86c-0.57,-1.16 -0.86,-1.87 -0.86,-2.15 0,-0.29 -0.29,-1.01 -0.86,-2.15l-104.24 -372.99c-2.29,-8.04 -1.44,-15.65 2.58,-22.83 4.03,-7.18 10.05,-11.92 18.09,-14.21 8.05,-2.3 15.65,-1.44 22.83,2.58 7.18,4.02 11.92,10.04 14.21,18.09l55.13 194.67c1.16,5.17 3.74,9.19 7.76,12.06 4.02,2.87 8.18,4.31 12.49,4.31 4.31,0 8.48,-1.44 12.5,-4.31 4.02,-2.87 6.89,-6.89 8.61,-12.06l54.27 -194.67c2.29,-8.05 7.03,-14.07 14.21,-18.09 7.18,-4.02 14.79,-4.89 22.83,-2.58zm186.06 59.43c-17.8,0 -32.73,6.03 -44.79,18.09 -12.06,12.07 -18.09,27 -18.09,44.8 0,17.22 6.03,32.01 18.09,44.36 12.06,12.35 26.99,18.52 44.79,18.52l8.62 0c8.04,0 15.08,3.01 21.1,9.05 6.03,6.03 8.77,13.35 8.19,21.96 0,8.05 -3.16,14.94 -9.47,20.67 -6.32,5.74 -13.49,8.62 -21.54,8.62l-6.89 0c-17.8,0 -32.73,6.17 -44.79,18.52 -12.06,12.35 -18.09,27.14 -18.09,44.37 0,17.8 6.03,32.73 18.09,44.79 12.06,12.06 26.99,18.09 44.79,18.09l24.98 0c8.62,0 15.8,3.01 21.54,9.05 5.74,6.02 8.61,13.35 8.61,21.96 -0.57,8.04 -3.87,14.93 -9.9,20.67 -6.03,5.74 -13.06,8.62 -21.1,8.62l-117.15 0c-8.04,0 -15.07,-3.01 -21.1,-9.05 -6.03,-6.03 -9.05,-13.06 -9.05,-21.1l0 -372.14c0,-8.61 3.01,-15.79 9.05,-21.53 6.03,-5.74 13.06,-8.62 21.1,-8.62l117.15 0c8.04,0 15.07,2.87 21.1,8.62 6.03,5.74 9.33,12.64 9.9,20.67 0,8.04 -2.86,15.22 -8.61,21.53 -5.74,6.32 -12.93,9.47 -21.54,9.47l-24.98 0z"/>
   <path class="fil3" d="M3831.61 2329.65c-61.26,124.08 -101.41,260.24 -115.85,404.11 -11.82,150.49 2.75,312.53 33.72,488.93l246.42 107.89c-46.58,-138.91 -68.69,-289.01 -72.03,-445.46 -6.86,-323.12 87.92,-524.57 269.46,-631.96l7.89 -4.59c28.51,-16.23 60.25,-27.62 94.04,-35.04l0 0 0.04 -0.01c54.79,-12.02 115,-13.61 175.72,-8.51 98.34,6.4 200.86,30.42 302,70.09 86.79,31.85 168.83,73.56 244.78,123.77 83.02,54.88 158.7,119.93 225.33,193.36 -217.78,-0.95 -416.45,53 -584.24,157.38 -208.95,129.96 -368.04,336.37 -454.75,610.52 52.73,10.44 104.5,27.78 156.54,52.44 12.39,5.87 24.47,11.95 36.28,18.23 70.86,-230.19 200.49,-401.61 370.19,-507.17 173.77,-108.08 391.7,-148.97 633.82,-115.09 172.17,291.36 226.25,669 38.43,1090.12 64.29,18.19 126.46,44.45 187.13,76.03l4.44 2.12c83.12,-178.71 129.59,-377.89 129.59,-587.95 0,-296.33 -92.36,-571.12 -249.85,-797.11 -262.14,-376.18 -686.95,-598.76 -1146.02,-598.76 -92.43,0 -182.78,9 -270.17,26.13 -450.31,88.33 -823,393.2 -1005.21,801.72 71.87,24.09 124.79,63.22 168.28,108.6 43.84,-83.35 91.19,-160.38 142.43,-230.39 23.62,-32.94 48.86,-64.61 75.62,-94.89 103.47,-118.93 221.3,-211.95 356,-274.5z"/>
   <path class="fil4" d="M3996.86 4295.08c-287.13,-136.09 -455.52,69.78 -681.35,-45.02 -46.24,-23.51 -81.78,-46.36 -109.86,-68.79 78.85,116.37 174.78,220.21 284.19,307.93 147.23,-14.12 270.05,-75.59 417.27,-0.75 205.62,104.52 199.59,196.24 268.03,294.68 61.46,8.27 124.19,12.53 187.92,12.53 54.85,0 108.95,-3.16 162.14,-9.3 -12.32,-4.17 -24.99,-9.06 -38.05,-14.74 -201.74,-87.85 -190.49,-334.42 -490.3,-476.53zm-389.04 -776.7c-342.44,-174.05 -97.85,-312.64 -587.83,-505.85 -18.97,66.14 -33.2,134.3 -42.28,204.08 16.07,4.92 32.73,11.06 50.07,18.62 201.74,87.84 190.49,334.41 490.3,476.52 287.12,136.09 455.52,-69.76 681.34,45.02 327.08,166.26 118.62,300.15 526.25,480.19 259.68,114.6 415.83,-67.18 654.91,36.92 16.83,7.32 32.21,15.78 46.38,25.16l2.77 1.84c46.42,-54.82 88.69,-113.26 126.33,-174.85l-4.23 -2.02c-392.36,-205.47 -493.37,37.41 -772.38,-84.07 -201.74,-87.85 -190.49,-334.42 -490.31,-476.53 -287.12,-136.09 -455.51,69.78 -681.34,-45.02zm-147.9 368.96c-318.02,-161.64 -129.73,-292.69 -493.76,-465.34 1.52,92.79 12.1,183.37 30.87,270.91 97.59,113.12 146.42,280.33 373.15,387.8 287.12,136.09 455.52,-69.76 681.34,45.02 327.08,166.26 118.62,300.15 526.25,480.19 192.5,84.96 328.1,7.04 482.79,3.44 82.61,-47.68 159.87,-103.58 230.7,-166.58 -302.41,-109.03 -409.49,75.06 -659.69,-33.89 -201.74,-87.85 -190.49,-334.42 -490.3,-476.53 -287.13,-136.09 -455.52,69.78 -681.35,-45.02z"/>
   <path class="fil1" d="M3186.39 2643.11c173.71,67.76 256.63,187.92 335.18,301.79 85.36,123.73 163.66,237.21 425.93,192.12l48.49 194.16c-398.38,75.56 -513.27,-90.97 -638.73,-272.83 -64.41,-93.35 -132.61,-192.21 -268.12,-237.55 -1.21,-0.41 93.12,-179.29 97.25,-177.68z"/>
   <circle class="fil5" cx="5011.19" cy="3544.26" r="266.31"/>
   <path class="fil1" d="M6306.19 5680.82c-14.98,-44.77 9.17,-93.22 53.93,-108.2 44.77,-14.98 93.23,9.17 108.21,53.93 17.67,52.54 44.83,93.94 75.91,124.22 33.34,32.51 70.1,51.74 103.09,57.7 46.43,8.32 77.33,52.73 69,99.15 -8.32,46.43 -52.73,77.33 -99.15,69 -64.84,-11.73 -133.72,-46.24 -192.2,-103.24 -49.2,-47.96 -91.78,-112.27 -118.79,-192.58z"/>
   <path class="fil1" d="M3977.29 4821.08c-33.01,-95.59 -118.17,-158.16 -218.98,-166.85 -243.33,-17.38 -314.58,213.77 -404.96,504.02l-17.38 53.88c-8.69,26.07 -19.12,59.09 -29.55,97.33 -29.54,90.38 -163.36,78.21 -173.8,-19.12l-27.79 -272.86c-8.71,-78.21 5.22,-305.89 -112.98,-298.94 -73,5.22 -83.42,86.91 -99.07,142.52 -22.59,78.22 -45.19,158.15 -67.78,238.11 -182.49,641.33 -279.82,950.69 -504.03,950.69 -85.15,0 -135.55,-67.79 -145.99,-133.82 -12.17,-64.31 10.43,-146 107.75,-180.76 43.45,-15.64 66.05,-64.31 50.4,-107.76 -15.64,-43.45 -64.31,-67.78 -107.76,-50.4 -182.49,64.31 -241.58,231.17 -217.24,368.46 27.8,159.91 156.42,272.87 312.84,272.87 293.73,0 425.81,-265.92 564.86,-723.02 15.65,-52.13 92.12,-43.43 99.07,10.43l64.31 636.11c5.22,43.45 41.72,76.47 83.41,76.47 3.49,0 6.95,0 8.69,0 34.77,-3.47 62.57,-27.8 73,-59.09 0,0 213.78,-672.62 283.31,-896.81l17.36 -53.88c88.64,-285.03 130.36,-391.04 231.17,-384.09 50.4,3.47 67.79,41.71 72.99,53.87 5.22,15.65 13.91,55.62 -22.59,90.38 -34.77,33.03 -36.5,86.9 -3.48,119.92 31.29,34.77 85.17,34.77 119.93,3.48 74.74,-71.25 99.07,-175.54 64.3,-271.13z"/>
  </g>
 </g>
</svg>
